<svg width="191" height="50" viewBox="0 0 191 50" fill="none" xmlns="http://www.w3.org/2000/svg">
<path d="M13.2879 7.6435C14.5216 7.6435 15.7296 7.84911 16.8862 8.23464C17.9914 8.62017 18.9938 9.23702 19.8419 10.0338C20.7158 10.8819 21.4097 11.91 21.8981 13.0666C22.4378 14.4288 22.7462 15.8938 22.7719 17.3845C22.7977 17.7958 22.8234 18.3869 22.8234 19.1066C22.8234 19.8262 22.7977 20.3917 22.7719 20.8286C22.7462 22.2936 22.4635 23.7843 21.8981 25.1465C21.4354 26.2774 20.7158 27.3312 19.8419 28.1794C18.9938 28.9761 17.9914 29.593 16.8862 29.9528C15.7296 30.3383 14.4959 30.544 13.2879 30.5183C12.4912 30.544 11.7201 30.4412 10.949 30.2869C10.3836 30.1584 9.84386 29.9528 9.35552 29.6958C8.94429 29.4902 8.58446 29.2075 8.25033 28.899C7.96761 28.6163 7.68489 28.3079 7.42787 27.9995V28.9761C7.40217 29.6187 6.91383 30.107 6.29698 30.1327H1.15659C0.51404 30.1327 0.025702 29.6444 0 29.0018V1.1666C0.025702 0.524049 0.51404 0.0357117 1.15659 0.0100098H6.4769C7.11945 0.0357117 7.60778 0.524049 7.60778 1.1666V10.188C7.8391 9.90527 8.09612 9.62255 8.37884 9.36553C8.71297 9.05711 9.0985 8.77438 9.50973 8.54307C10.0238 8.26035 10.5635 8.05473 11.1033 7.90052C11.8229 7.7206 12.5426 7.6435 13.2879 7.6435ZM15.1899 17.8986C15.1128 16.9733 14.7786 16.0737 14.2132 15.3284C13.4935 14.5316 12.4398 14.1204 11.386 14.2232C10.8205 14.1975 10.2808 14.326 9.76675 14.5059C9.35552 14.6858 8.96999 14.9429 8.66157 15.277C8.37884 15.5854 8.14753 15.9709 7.96761 16.3565C7.7877 16.742 7.68489 17.1532 7.63349 17.5902C7.50498 18.5668 7.50498 19.5692 7.63349 20.5459C7.68489 20.9571 7.8134 21.3684 7.96761 21.7796C8.14753 22.1651 8.37884 22.5506 8.66157 22.8591C8.96999 23.1932 9.35552 23.4759 9.76675 23.6558C10.2808 23.8614 10.8205 23.9643 11.3603 23.9643C12.4141 24.0671 13.4678 23.6558 14.1875 22.8591C14.7529 22.1137 15.0871 21.2141 15.1642 20.2889C15.267 19.4921 15.267 18.6953 15.1899 17.8986Z" fill="#14102F"/>
<path d="M41.0719 8.08008C41.7144 8.10578 42.2027 8.59412 42.2027 9.23667V13.5289C42.177 14.1714 41.6887 14.6598 41.0719 14.6855H37.2166C34.6207 14.6855 33.3356 15.9963 33.3356 18.5922V29.0272C33.3099 29.6697 32.8215 30.1581 32.179 30.1838H26.8587C26.2161 30.1581 25.7278 29.6697 25.7278 29.0272V9.23667C25.7535 8.59412 26.2418 8.10578 26.8587 8.08008H31.7677C32.4103 8.10578 32.8986 8.59412 32.8986 9.23667V10.2133C33.5926 9.57079 34.3636 9.05675 35.2375 8.69693C36.2656 8.28569 37.3965 8.08008 38.5017 8.10578H41.0719V8.08008Z" fill="#14102F"/>
<path d="M42.9994 23.8356C42.948 22.0364 43.7448 20.3401 45.1327 19.2092C46.5463 18.0012 48.8852 17.1017 52.0979 16.5362L57.0327 15.688C57.0584 15.0712 56.8528 14.4801 56.493 14.0174C56.0046 13.5291 55.285 13.2721 54.591 13.3492C54.077 13.3235 53.5629 13.4263 53.1003 13.6319C52.8176 13.7604 52.5605 13.9403 52.3035 14.1202C52.0979 14.3258 51.8666 14.4543 51.5839 14.5315C51.3269 14.6086 51.0441 14.6343 50.7871 14.6086H45.4154C45.1584 14.6343 44.9271 14.5315 44.7214 14.3515C44.5415 14.1716 44.4387 13.9403 44.4901 13.6833C44.5929 12.9379 44.8757 12.244 45.3383 11.6528C45.9294 10.8818 46.6234 10.2135 47.4202 9.69948C48.3968 9.05694 49.4763 8.5686 50.5815 8.20877C51.8666 7.79754 53.2288 7.59192 54.5653 7.61762C56.0817 7.59192 57.5981 7.79754 59.0374 8.26017C60.194 8.62 61.2735 9.21115 62.1988 10.0079C63.0213 10.7276 63.6381 11.6528 64.0493 12.6809C64.4606 13.7861 64.6662 14.9427 64.6405 16.0993V28.9246C64.6148 29.5671 64.1264 30.0554 63.5096 30.0812H58.1893C57.5467 30.0554 57.0584 29.5671 57.0584 28.9246V27.768C56.3644 28.6161 55.5163 29.3101 54.5396 29.7727C53.2802 30.3125 51.9437 30.5695 50.5815 30.5181C49.4763 30.5438 48.3968 30.3639 47.343 30.0297C46.4692 29.7213 45.6724 29.2587 44.9785 28.6418C44.3359 28.0507 43.8476 27.331 43.5135 26.5086C43.1793 25.6604 42.9994 24.7608 42.9994 23.8356ZM52.6377 24.8122C53.2288 24.8122 53.8199 24.7094 54.3854 24.5038C54.8994 24.2982 55.3621 24.0155 55.7733 23.63C56.1588 23.2701 56.493 22.8332 56.6986 22.3449C56.9299 21.8565 57.0327 21.2911 57.0327 20.7513L53.1517 21.3425C52.4834 21.4453 51.8666 21.6766 51.3012 22.0621C50.8642 22.3449 50.6072 22.8589 50.6072 23.3729C50.5558 23.8099 50.7614 24.2468 51.1212 24.5038C51.6096 24.7351 52.1236 24.8379 52.6377 24.8122Z" fill="#14102F"/>
<path d="M90.1369 28.9759C90.1112 29.6185 89.6229 30.1068 89.006 30.1325H83.6857C83.0432 30.1068 82.5549 29.6185 82.5549 28.9759V18.2325C82.6063 17.1787 82.2978 16.1506 81.6553 15.3025C80.9356 14.5057 79.9075 14.1202 78.8795 14.1973C77.8514 14.0945 76.7976 14.5057 76.1037 15.3025C75.4868 16.1506 75.1784 17.1787 75.2298 18.2325V28.9502C75.2298 29.5928 74.7157 30.0811 74.0989 30.1068H68.7786C68.136 30.0811 67.6477 29.5928 67.6477 28.9502V9.21108C67.6477 8.56853 68.1617 8.0802 68.7786 8.0545H73.8933C74.5358 8.0802 75.0242 8.56853 75.0499 9.21108V10.1878C75.3069 9.87934 75.5896 9.57091 75.898 9.28819C76.2579 8.95406 76.6948 8.67134 77.1317 8.46573C77.6715 8.20871 78.2112 8.00309 78.8024 7.87458C79.522 7.72037 80.2674 7.64326 81.0127 7.64326C82.2721 7.61756 83.5315 7.82318 84.7395 8.20871C85.819 8.56853 86.8214 9.15968 87.6438 9.98214C88.492 10.8303 89.1346 11.8584 89.5201 12.9893C90.0084 14.3772 90.2397 15.8422 90.214 17.3072L90.1369 28.9759Z" fill="#14102F"/>
<path d="M100.726 17.6156C100.597 18.5923 100.597 19.5946 100.726 20.5713C100.777 21.4966 101.189 22.3961 101.857 23.013C102.602 23.6555 103.579 23.9897 104.556 23.9383C105.301 23.9897 106.021 23.8355 106.689 23.5527C107.177 23.2957 107.588 22.9102 107.897 22.4218C108.025 22.1905 108.205 22.0106 108.385 21.8307C108.591 21.6508 108.848 21.5737 109.131 21.5737H114.656C114.965 21.5737 115.273 21.7022 115.479 21.9078C115.71 22.1134 115.813 22.3961 115.787 22.7046C115.685 23.3985 115.505 24.0668 115.248 24.6836C114.836 25.6603 114.245 26.5599 113.474 27.3052C112.497 28.2562 111.315 29.0273 110.03 29.5413C108.282 30.2352 106.406 30.5437 104.53 30.4923C103.039 30.518 101.523 30.2867 100.109 29.824C98.7983 29.4128 97.5903 28.7445 96.5109 27.8707C95.4828 27.0225 94.6603 25.9944 94.0692 24.8121C93.4523 23.5527 93.1182 22.1648 93.0668 20.7769C93.0411 20.3657 93.0154 19.8002 93.0154 19.0806C93.0154 18.3609 93.0411 17.8212 93.0668 17.3843C93.0925 15.9706 93.4266 14.6084 94.0692 13.349C94.6603 12.1668 95.5085 11.113 96.5109 10.2905C97.5646 9.41665 98.7983 8.7741 100.109 8.33716C101.548 7.87453 103.039 7.64321 104.53 7.64321C106.406 7.5661 108.282 7.90023 110.03 8.59418C111.315 9.13392 112.472 9.87928 113.474 10.856C114.245 11.6013 114.836 12.4752 115.248 13.4776C115.53 14.1201 115.71 14.7884 115.787 15.4566C115.813 15.765 115.685 16.0735 115.479 16.2534C115.248 16.4847 114.965 16.5875 114.656 16.5875H109.131C108.848 16.6132 108.591 16.5104 108.385 16.3305C108.205 16.1506 108.025 15.9449 107.897 15.7393C107.588 15.2767 107.177 14.8912 106.689 14.6084C106.021 14.3 105.275 14.1715 104.556 14.2229C103.579 14.1715 102.602 14.5056 101.857 15.1482C101.189 15.7907 100.777 16.6646 100.726 17.6156Z" fill="#14102F"/>
<path d="M141.309 28.9759C141.284 29.6184 140.795 30.1068 140.178 30.1325H134.858C134.216 30.1068 133.727 29.6184 133.702 28.9759V18.2325C133.753 17.1787 133.445 16.1506 132.802 15.3024C132.082 14.5057 131.054 14.1202 130.026 14.1973C128.998 14.0944 127.944 14.5057 127.276 15.3024C126.659 16.1506 126.351 17.1787 126.402 18.2325V28.9502C126.402 29.5927 125.888 30.0811 125.246 30.1068H119.925C119.283 30.0811 118.794 29.5927 118.794 28.9502V1.16635C118.82 0.523805 119.308 0.0354676 119.925 0.00976562H125.246C125.888 0.0354676 126.377 0.523805 126.402 1.16635V10.1877C127.045 9.46809 127.79 8.90265 128.638 8.46572C129.718 7.90027 130.926 7.61755 132.159 7.64325C133.419 7.61755 134.678 7.82317 135.886 8.2087C136.966 8.56852 137.968 9.15967 138.791 9.98213C139.639 10.8303 140.281 11.8584 140.667 12.9893C141.155 14.3772 141.386 15.8422 141.361 17.3072L141.309 28.9759Z" fill="#14102F"/>
<path d="M157.373 8.13157L152.336 1.06352C152.233 0.935012 152.053 0.729397 151.796 0.420973C151.462 0.112549 151.025 -0.0416629 150.588 0.00974107H144.317C143.828 0.00974107 143.417 0.420973 143.391 0.935012C143.391 1.08922 143.443 1.24344 143.52 1.39765L152.721 14.3771L157.373 8.13157Z" fill="#FFD04D"/>
<path d="M153.569 15.6623L143.957 29.1302C143.905 29.233 143.88 29.3101 143.854 29.4129C143.828 29.49 143.828 29.5414 143.828 29.5928C143.828 30.0811 144.24 30.4924 144.754 30.5181H151.076C151.488 30.5695 151.899 30.441 152.233 30.2354C152.439 30.0297 152.618 29.8241 152.798 29.5671L158.119 22.0621L158.247 9.41675L153.569 15.6623Z" fill="#78C36A"/>
<path d="M172.743 0.292451C172.589 0.112537 172.357 0.00972888 172.1 0.00972888H165.726C165.289 -0.0416751 164.852 0.138239 164.518 0.420961C164.261 0.703682 164.081 0.909298 163.979 1.06351L159.095 8.10585L163.619 14.5313L172.871 1.37193C172.949 1.21772 173 1.06351 173 0.909298C173 0.703682 172.923 0.472365 172.743 0.292451Z" fill="#879BCF"/>
<path d="M172.306 29.1559L162.771 15.8422L158.247 9.41675L158.119 22.0621L163.465 29.5671C163.619 29.8241 163.824 30.0297 164.03 30.2353C164.364 30.4667 164.775 30.5695 165.187 30.5181H171.509C171.998 30.5181 172.409 30.1068 172.435 29.5928C172.435 29.5157 172.409 29.4643 172.409 29.4129C172.383 29.3358 172.358 29.233 172.306 29.1559Z" fill="#F37F8E"/>
<path d="M43.304 47.0208C43.2159 47.0208 43.141 46.9937 43.0793 46.9396C43.0264 46.8764 43 46.7997 43 46.7094V37.8667C43 37.7674 43.0264 37.6906 43.0793 37.6365C43.141 37.5733 43.2159 37.5417 43.304 37.5417H46.5293C47.5428 37.5417 48.3359 37.7854 48.9087 38.2729C49.4815 38.7604 49.7679 39.4646 49.7679 40.3854C49.7679 41.0715 49.6005 41.6358 49.2656 42.0781C48.9395 42.5205 48.4769 42.8274 47.8776 42.999L49.9133 46.601C49.9397 46.6552 49.9529 46.7049 49.9529 46.75C49.9529 46.8222 49.9221 46.8854 49.8604 46.9396C49.8075 46.9937 49.7459 47.0208 49.6754 47.0208H49.0409C48.9087 47.0208 48.8029 46.9892 48.7236 46.926C48.6531 46.8628 48.587 46.7726 48.5253 46.6552L46.6087 43.2156H44.2954V46.7094C44.2954 46.7997 44.2646 46.8764 44.2029 46.9396C44.1412 46.9937 44.0663 47.0208 43.9782 47.0208H43.304ZM46.4765 42.0646C47.7895 42.0646 48.446 41.5003 48.446 40.3719C48.446 39.2434 47.7895 38.6792 46.4765 38.6792H44.2954V42.0646H46.4765Z" fill="black"/>
<path d="M54.1619 47.1562C53.2542 47.1562 52.5272 46.8719 51.9809 46.3031C51.4433 45.7253 51.1481 44.9399 51.0952 43.9469L51.082 43.4865L51.0952 43.0396C51.1569 42.0646 51.4565 41.2882 51.9941 40.7104C52.5404 40.1326 53.2586 39.8437 54.1487 39.8437C55.1269 39.8437 55.8847 40.1642 56.4223 40.8052C56.9598 41.4372 57.2286 42.2948 57.2286 43.3781V43.6083C57.2286 43.6986 57.1978 43.7753 57.1361 43.8385C57.0832 43.8927 57.0127 43.9198 56.9246 43.9198H52.351V44.0417C52.3774 44.6285 52.5492 45.1295 52.8665 45.5448C53.1926 45.951 53.6199 46.1542 54.1487 46.1542C54.5541 46.1542 54.8845 46.0729 55.1401 45.9104C55.4044 45.7389 55.5983 45.5628 55.7217 45.3823C55.801 45.274 55.8583 45.2108 55.8935 45.1927C55.9376 45.1656 56.0125 45.1521 56.1182 45.1521H56.766C56.8453 45.1521 56.9114 45.1747 56.9642 45.2198C57.0171 45.2649 57.0435 45.3281 57.0435 45.4094C57.0435 45.608 56.9202 45.8472 56.6734 46.1271C56.4355 46.4069 56.0962 46.6507 55.6556 46.8583C55.2238 47.0569 54.7259 47.1562 54.1619 47.1562ZM55.9728 42.9854V42.9448C55.9728 42.3219 55.8054 41.8163 55.4705 41.4281C55.1445 41.0309 54.7039 40.8323 54.1487 40.8323C53.5935 40.8323 53.1529 41.0309 52.8268 41.4281C52.5096 41.8163 52.351 42.3219 52.351 42.9448V42.9854H55.9728Z" fill="black"/>
<path d="M61.3207 47.1562C60.4042 47.1562 59.7124 46.8493 59.2454 46.2354C58.7783 45.6215 58.5316 44.8451 58.5051 43.9062L58.4919 43.5L58.5051 43.0937C58.5316 42.1639 58.7783 41.392 59.2454 40.7781C59.7124 40.1552 60.4042 39.8437 61.3207 39.8437C62.2283 39.8437 62.9421 40.1733 63.4621 40.8323V37.7177C63.4621 37.6274 63.4885 37.5552 63.5414 37.501C63.6031 37.4378 63.678 37.4062 63.7661 37.4062H64.4006C64.4887 37.4062 64.5592 37.4378 64.6121 37.501C64.6738 37.5552 64.7046 37.6274 64.7046 37.7177V46.7094C64.7046 46.7997 64.6738 46.8764 64.6121 46.9396C64.5592 46.9937 64.4887 47.0208 64.4006 47.0208H63.8058C63.7176 47.0208 63.6427 46.9937 63.581 46.9396C63.5282 46.8764 63.5017 46.7997 63.5017 46.7094V46.1406C62.9906 46.8177 62.2636 47.1562 61.3207 47.1562ZM61.5983 46.0594C62.2063 46.0594 62.6601 45.8562 62.9598 45.45C63.2682 45.0347 63.4356 44.5427 63.4621 43.974C63.4709 43.8747 63.4753 43.7031 63.4753 43.4594C63.4753 43.2066 63.4709 43.0306 63.4621 42.9312C63.4444 42.3986 63.277 41.9337 62.9598 41.5365C62.6425 41.1392 62.1887 40.9406 61.5983 40.9406C60.9726 40.9406 60.5143 41.1392 60.2235 41.5365C59.9415 41.9337 59.7873 42.4573 59.7609 43.1073L59.7477 43.5C59.7477 45.2062 60.3645 46.0594 61.5983 46.0594Z" fill="black"/>
<path d="M69.42 47.1562C68.5123 47.1562 67.7853 46.8719 67.239 46.3031C66.7014 45.7253 66.4062 44.9399 66.3533 43.9469L66.3401 43.4865L66.3533 43.0396C66.415 42.0646 66.7146 41.2882 67.2522 40.7104C67.7985 40.1326 68.5167 39.8437 69.4068 39.8437C70.385 39.8437 71.1428 40.1642 71.6804 40.8052C72.2179 41.4372 72.4867 42.2948 72.4867 43.3781V43.6083C72.4867 43.6986 72.4559 43.7753 72.3942 43.8385C72.3413 43.8927 72.2708 43.9198 72.1827 43.9198H67.6091V44.0417C67.6355 44.6285 67.8074 45.1295 68.1246 45.5448C68.4507 45.951 68.878 46.1542 69.4068 46.1542C69.8122 46.1542 70.1426 46.0729 70.3982 45.9104C70.6626 45.7389 70.8564 45.5628 70.9798 45.3823C71.0591 45.274 71.1164 45.2108 71.1516 45.1927C71.1957 45.1656 71.2706 45.1521 71.3764 45.1521H72.0241C72.1034 45.1521 72.1695 45.1747 72.2223 45.2198C72.2752 45.2649 72.3016 45.3281 72.3016 45.4094C72.3016 45.608 72.1783 45.8472 71.9315 46.1271C71.6936 46.4069 71.3543 46.6507 70.9137 46.8583C70.4819 47.0569 69.984 47.1562 69.42 47.1562ZM71.2309 42.9854V42.9448C71.2309 42.3219 71.0635 41.8163 70.7286 41.4281C70.4026 41.0309 69.962 40.8323 69.4068 40.8323C68.8516 40.8323 68.411 41.0309 68.0849 41.4281C67.7677 41.8163 67.6091 42.3219 67.6091 42.9448V42.9854H71.2309Z" fill="black"/>
<path d="M74.9941 47.0208C74.906 47.0208 74.8311 46.9937 74.7694 46.9396C74.7165 46.8764 74.6901 46.7997 74.6901 46.7094V41.0625H73.5665C73.4784 41.0625 73.4035 41.0354 73.3418 40.9813C73.2889 40.9181 73.2625 40.8413 73.2625 40.751V40.2906C73.2625 40.2003 73.2889 40.1281 73.3418 40.074C73.4035 40.0108 73.4784 39.9792 73.5665 39.9792H74.6901V39.3021C74.6901 37.7674 75.4479 37 76.9637 37H78.9993C79.0874 37 79.1579 37.0316 79.2108 37.0948C79.2725 37.149 79.3033 37.2212 79.3033 37.3115V37.7719C79.3033 37.8622 79.2725 37.9389 79.2108 38.0021C79.1579 38.0562 79.0874 38.0833 78.9993 38.0833H76.9901C76.5935 38.0833 76.3159 38.1917 76.1573 38.4083C75.9987 38.616 75.9194 38.9365 75.9194 39.3698V39.9792H78.9993C79.0874 39.9792 79.1579 40.0108 79.2108 40.074C79.2725 40.1281 79.3033 40.2003 79.3033 40.2906V46.7094C79.3033 46.7997 79.2725 46.8764 79.2108 46.9396C79.1579 46.9937 79.0874 47.0208 78.9993 47.0208H78.3913C78.3031 47.0208 78.2282 46.9937 78.1665 46.9396C78.1137 46.8764 78.0872 46.7997 78.0872 46.7094V41.0625H75.9194V46.7094C75.9194 46.7997 75.8885 46.8764 75.8269 46.9396C75.774 46.9937 75.7035 47.0208 75.6154 47.0208H74.9941Z" fill="black"/>
<path d="M81.5614 47.0208C81.4733 47.0208 81.3984 46.9937 81.3367 46.9396C81.2838 46.8764 81.2574 46.7997 81.2574 46.7094V40.2906C81.2574 40.2003 81.2838 40.1281 81.3367 40.074C81.3984 40.0108 81.4733 39.9792 81.5614 39.9792H82.1827C82.2708 39.9792 82.3413 40.0108 82.3942 40.074C82.4559 40.1281 82.4867 40.2003 82.4867 40.2906V40.8865C82.7423 40.5524 83.0419 40.2951 83.3856 40.1146C83.7381 39.934 84.1743 39.8437 84.6942 39.8437C85.5402 39.8437 86.1967 40.1236 86.6638 40.6833C87.1396 41.234 87.3776 41.9698 87.3776 42.8906V46.7094C87.3776 46.7997 87.3467 46.8764 87.285 46.9396C87.2322 46.9937 87.1617 47.0208 87.0736 47.0208H86.4126C86.3245 47.0208 86.2496 46.9937 86.1879 46.9396C86.135 46.8764 86.1086 46.7997 86.1086 46.7094V42.9583C86.1086 42.3174 85.9544 41.8208 85.646 41.4687C85.3463 41.1167 84.9101 40.9406 84.3373 40.9406C83.7821 40.9406 83.3415 41.1212 83.0155 41.4823C82.6894 41.8344 82.5264 42.3264 82.5264 42.9583V46.7094C82.5264 46.7997 82.4955 46.8764 82.4339 46.9396C82.381 46.9937 82.3105 47.0208 82.2224 47.0208H81.5614Z" fill="black"/>
<path d="M89.472 38.6656C89.3839 38.6656 89.309 38.6385 89.2473 38.5844C89.1944 38.5212 89.168 38.4444 89.168 38.3542V37.6229C89.168 37.5326 89.1944 37.4559 89.2473 37.3927C89.309 37.3295 89.3839 37.2979 89.472 37.2979H90.3048C90.3929 37.2979 90.4678 37.3295 90.5295 37.3927C90.5912 37.4559 90.622 37.5326 90.622 37.6229V38.3542C90.622 38.4444 90.5912 38.5212 90.5295 38.5844C90.4678 38.6385 90.3929 38.6656 90.3048 38.6656H89.472ZM89.5777 47.0208C89.4896 47.0208 89.4147 46.9937 89.353 46.9396C89.3002 46.8764 89.2737 46.7997 89.2737 46.7094V40.2906C89.2737 40.2003 89.3002 40.1281 89.353 40.074C89.4147 40.0108 89.4896 39.9792 89.5777 39.9792H90.2122C90.3004 39.9792 90.3709 40.0108 90.4237 40.074C90.4854 40.1281 90.5163 40.2003 90.5163 40.2906V46.7094C90.5163 46.7997 90.4854 46.8764 90.4237 46.9396C90.3709 46.9937 90.3004 47.0208 90.2122 47.0208H89.5777Z" fill="black"/>
<path d="M92.7791 47.0208C92.691 47.0208 92.6161 46.9937 92.5544 46.9396C92.5015 46.8764 92.4751 46.7997 92.4751 46.7094V40.2906C92.4751 40.2003 92.5015 40.1281 92.5544 40.074C92.6161 40.0108 92.691 39.9792 92.7791 39.9792H93.4004C93.4885 39.9792 93.559 40.0108 93.6119 40.074C93.6736 40.1281 93.7044 40.2003 93.7044 40.2906V40.8865C93.96 40.5524 94.2596 40.2951 94.6033 40.1146C94.9558 39.934 95.392 39.8437 95.9119 39.8437C96.7579 39.8437 97.4144 40.1236 97.8815 40.6833C98.3573 41.234 98.5953 41.9698 98.5953 42.8906V46.7094C98.5953 46.7997 98.5644 46.8764 98.5027 46.9396C98.4499 46.9937 98.3793 47.0208 98.2912 47.0208H97.6303C97.5422 47.0208 97.4673 46.9937 97.4056 46.9396C97.3527 46.8764 97.3263 46.7997 97.3263 46.7094V42.9583C97.3263 42.3174 97.1721 41.8208 96.8636 41.4687C96.564 41.1167 96.1278 40.9406 95.555 40.9406C94.9998 40.9406 94.5592 41.1212 94.2331 41.4823C93.9071 41.8344 93.7441 42.3264 93.7441 42.9583V46.7094C93.7441 46.7997 93.7132 46.8764 93.6515 46.9396C93.5986 46.9937 93.5282 47.0208 93.44 47.0208H92.7791Z" fill="black"/>
<path d="M103.307 50C102.584 50 102.003 49.8736 101.562 49.6208C101.121 49.3771 100.809 49.0972 100.624 48.7812C100.439 48.4653 100.337 48.1809 100.32 47.9281C100.311 47.8378 100.337 47.7611 100.399 47.6979C100.469 47.6347 100.544 47.6031 100.624 47.6031H101.258C101.337 47.6031 101.403 47.6212 101.456 47.6573C101.509 47.7024 101.553 47.7792 101.589 47.8875C101.694 48.1764 101.866 48.4247 102.104 48.6323C102.351 48.849 102.73 48.9573 103.241 48.9573C103.893 48.9573 104.373 48.8128 104.682 48.524C104.99 48.2441 105.144 47.7431 105.144 47.0208V46.1C104.915 46.3979 104.624 46.6372 104.272 46.8177C103.919 46.9892 103.501 47.075 103.016 47.075C102.082 47.075 101.381 46.7726 100.914 46.1677C100.456 45.5538 100.214 44.7774 100.187 43.8385L100.174 43.4594L100.187 43.0937C100.214 42.1639 100.461 41.392 100.928 40.7781C101.395 40.1552 102.091 39.8437 103.016 39.8437C103.941 39.8437 104.664 40.1913 105.184 40.8865V40.3042C105.184 40.2139 105.21 40.1372 105.263 40.074C105.325 40.0108 105.4 39.9792 105.488 39.9792H106.096C106.184 39.9792 106.259 40.0108 106.321 40.074C106.382 40.1372 106.413 40.2139 106.413 40.3042V46.8719C106.413 48.9573 105.378 50 103.307 50ZM103.28 45.9917C103.88 45.9917 104.334 45.7885 104.642 45.3823C104.95 44.976 105.118 44.4931 105.144 43.9333C105.153 43.8521 105.158 43.6941 105.158 43.4594C105.158 43.2337 105.153 43.0802 105.144 42.999C105.118 42.4392 104.95 41.9562 104.642 41.55C104.342 41.1437 103.889 40.9406 103.28 40.9406C102.655 40.9406 102.201 41.1392 101.919 41.5365C101.637 41.9337 101.483 42.4573 101.456 43.1073L101.443 43.4594L101.456 43.825C101.483 44.466 101.637 44.9896 101.919 45.3958C102.201 45.7931 102.655 45.9917 103.28 45.9917Z" fill="black"/>
<path d="M111.235 47.0208C111.165 47.0208 111.099 46.9937 111.037 46.9396C110.984 46.8854 110.958 46.8222 110.958 46.75C110.958 46.6868 110.975 46.6281 111.011 46.574L114.038 42.2L111.156 37.9885C111.13 37.9434 111.116 37.8847 111.116 37.8125C111.116 37.7403 111.143 37.6771 111.196 37.6229C111.249 37.5687 111.31 37.5417 111.381 37.5417H112.174C112.306 37.5417 112.425 37.6184 112.531 37.7719L114.857 41.1573L117.17 37.7719C117.259 37.6184 117.373 37.5417 117.514 37.5417H118.268C118.338 37.5417 118.4 37.5687 118.453 37.6229C118.506 37.6771 118.532 37.7403 118.532 37.8125C118.532 37.8938 118.514 37.9524 118.479 37.9885L115.637 42.2135L118.651 46.574C118.686 46.6281 118.704 46.6868 118.704 46.75C118.704 46.8222 118.677 46.8854 118.625 46.9396C118.572 46.9937 118.506 47.0208 118.426 47.0208H117.62C117.488 47.0208 117.369 46.9441 117.263 46.7906L114.804 43.2833L112.359 46.7906C112.271 46.9441 112.156 47.0208 112.015 47.0208H111.235Z" fill="black"/>
<path d="M120.301 49.5937C120.213 49.5937 120.138 49.5622 120.076 49.499C120.023 49.4448 119.997 49.3726 119.997 49.2823V40.2906C119.997 40.2003 120.023 40.1281 120.076 40.074C120.138 40.0108 120.213 39.9792 120.301 39.9792H120.909C120.997 39.9792 121.067 40.0108 121.12 40.074C121.182 40.1281 121.213 40.2003 121.213 40.2906V40.8865C121.706 40.1913 122.429 39.8437 123.381 39.8437C124.306 39.8437 124.998 40.1417 125.456 40.7375C125.923 41.3333 126.174 42.1007 126.209 43.0396C126.218 43.1389 126.223 43.2924 126.223 43.5C126.223 43.7076 126.218 43.8611 126.209 43.9604C126.174 44.8903 125.923 45.6576 125.456 46.2625C124.989 46.8583 124.297 47.1562 123.381 47.1562C122.464 47.1562 121.75 46.8177 121.239 46.1406V49.2823C121.239 49.3726 121.213 49.4448 121.16 49.499C121.107 49.5622 121.037 49.5937 120.949 49.5937H120.301ZM123.103 46.0594C123.729 46.0594 124.183 45.8608 124.465 45.4635C124.755 45.0663 124.914 44.5427 124.94 43.8927C124.949 43.8024 124.954 43.6715 124.954 43.5C124.954 41.7937 124.337 40.9406 123.103 40.9406C122.495 40.9406 122.037 41.1483 121.728 41.5635C121.429 41.9698 121.266 42.4573 121.239 43.026L121.226 43.5406L121.239 44.0687C121.257 44.6014 121.424 45.0663 121.742 45.4635C122.059 45.8608 122.513 46.0594 123.103 46.0594Z" fill="black"/>
<path d="M130.607 47.1562C129.7 47.1562 128.973 46.8719 128.426 46.3031C127.889 45.7253 127.593 44.9399 127.541 43.9469L127.527 43.4865L127.541 43.0396C127.602 42.0646 127.902 41.2882 128.439 40.7104C128.986 40.1326 129.704 39.8437 130.594 39.8437C131.572 39.8437 132.33 40.1642 132.868 40.8052C133.405 41.4372 133.674 42.2948 133.674 43.3781V43.6083C133.674 43.6986 133.643 43.7753 133.581 43.8385C133.529 43.8927 133.458 43.9198 133.37 43.9198H128.796V44.0417C128.823 44.6285 128.995 45.1295 129.312 45.5448C129.638 45.951 130.065 46.1542 130.594 46.1542C130.999 46.1542 131.33 46.0729 131.585 45.9104C131.85 45.7389 132.044 45.5628 132.167 45.3823C132.246 45.274 132.304 45.2108 132.339 45.1927C132.383 45.1656 132.458 45.1521 132.564 45.1521H133.211C133.291 45.1521 133.357 45.1747 133.41 45.2198C133.463 45.2649 133.489 45.3281 133.489 45.4094C133.489 45.608 133.366 45.8472 133.119 46.1271C132.881 46.4069 132.542 46.6507 132.101 46.8583C131.669 47.0569 131.171 47.1562 130.607 47.1562ZM132.418 42.9854V42.9448C132.418 42.3219 132.251 41.8163 131.916 41.4281C131.59 41.0309 131.149 40.8323 130.594 40.8323C130.039 40.8323 129.598 41.0309 129.272 41.4281C128.955 41.8163 128.796 42.3219 128.796 42.9448V42.9854H132.418Z" fill="black"/>
<path d="M135.559 47.0208C135.47 47.0208 135.396 46.9937 135.334 46.9396C135.281 46.8764 135.255 46.7997 135.255 46.7094V40.3042C135.255 40.2139 135.281 40.1372 135.334 40.074C135.396 40.0108 135.47 39.9792 135.559 39.9792H136.167C136.255 39.9792 136.33 40.0108 136.391 40.074C136.453 40.1372 136.484 40.2139 136.484 40.3042V40.9C136.845 40.2861 137.462 39.9792 138.334 39.9792H138.85C138.938 39.9792 139.009 40.0108 139.062 40.074C139.123 40.1281 139.154 40.2003 139.154 40.2906V40.8458C139.154 40.9361 139.123 41.0083 139.062 41.0625C139.009 41.1167 138.938 41.1437 138.85 41.1437H138.057C137.581 41.1437 137.206 41.2882 136.933 41.5771C136.66 41.8569 136.524 42.2406 136.524 42.7281V46.7094C136.524 46.7997 136.493 46.8764 136.431 46.9396C136.369 46.9937 136.294 47.0208 136.206 47.0208H135.559Z" fill="black"/>
<path d="M140.474 38.6656C140.386 38.6656 140.311 38.6385 140.25 38.5844C140.197 38.5212 140.17 38.4444 140.17 38.3542V37.6229C140.17 37.5326 140.197 37.4559 140.25 37.3927C140.311 37.3295 140.386 37.2979 140.474 37.2979H141.307C141.395 37.2979 141.47 37.3295 141.532 37.3927C141.594 37.4559 141.624 37.5326 141.624 37.6229V38.3542C141.624 38.4444 141.594 38.5212 141.532 38.5844C141.47 38.6385 141.395 38.6656 141.307 38.6656H140.474ZM140.58 47.0208C140.492 47.0208 140.417 46.9937 140.355 46.9396C140.302 46.8764 140.276 46.7997 140.276 46.7094V40.2906C140.276 40.2003 140.302 40.1281 140.355 40.074C140.417 40.0108 140.492 39.9792 140.58 39.9792H141.215C141.303 39.9792 141.373 40.0108 141.426 40.074C141.488 40.1281 141.519 40.2003 141.519 40.2906V46.7094C141.519 46.7997 141.488 46.8764 141.426 46.9396C141.373 46.9937 141.303 47.0208 141.215 47.0208H140.58Z" fill="black"/>
<path d="M146.227 47.1562C145.319 47.1562 144.592 46.8719 144.046 46.3031C143.508 45.7253 143.213 44.9399 143.16 43.9469L143.147 43.4865L143.16 43.0396C143.222 42.0646 143.521 41.2882 144.059 40.7104C144.605 40.1326 145.324 39.8437 146.214 39.8437C147.192 39.8437 147.95 40.1642 148.487 40.8052C149.025 41.4372 149.294 42.2948 149.294 43.3781V43.6083C149.294 43.6986 149.263 43.7753 149.201 43.8385C149.148 43.8927 149.078 43.9198 148.99 43.9198H144.416V44.0417C144.442 44.6285 144.614 45.1295 144.931 45.5448C145.258 45.951 145.685 46.1542 146.214 46.1542C146.619 46.1542 146.949 46.0729 147.205 45.9104C147.469 45.7389 147.663 45.5628 147.787 45.3823C147.866 45.274 147.923 45.2108 147.958 45.1927C148.003 45.1656 148.077 45.1521 148.183 45.1521H148.831C148.91 45.1521 148.976 45.1747 149.029 45.2198C149.082 45.2649 149.109 45.3281 149.109 45.4094C149.109 45.608 148.985 45.8472 148.738 46.1271C148.5 46.4069 148.161 46.6507 147.721 46.8583C147.289 47.0569 146.791 47.1562 146.227 47.1562ZM148.038 42.9854V42.9448C148.038 42.3219 147.87 41.8163 147.535 41.4281C147.209 41.0309 146.769 40.8323 146.214 40.8323C145.658 40.8323 145.218 41.0309 144.892 41.4281C144.575 41.8163 144.416 42.3219 144.416 42.9448V42.9854H148.038Z" fill="black"/>
<path d="M151.178 47.0208C151.09 47.0208 151.015 46.9937 150.953 46.9396C150.901 46.8764 150.874 46.7997 150.874 46.7094V40.2906C150.874 40.2003 150.901 40.1281 150.953 40.074C151.015 40.0108 151.09 39.9792 151.178 39.9792H151.799C151.888 39.9792 151.958 40.0108 152.011 40.074C152.073 40.1281 152.103 40.2003 152.103 40.2906V40.8865C152.359 40.5524 152.659 40.2951 153.002 40.1146C153.355 39.934 153.791 39.8437 154.311 39.8437C155.157 39.8437 155.813 40.1236 156.28 40.6833C156.756 41.234 156.994 41.9698 156.994 42.8906V46.7094C156.994 46.7997 156.963 46.8764 156.902 46.9396C156.849 46.9937 156.778 47.0208 156.69 47.0208H156.029C155.941 47.0208 155.866 46.9937 155.805 46.9396C155.752 46.8764 155.725 46.7997 155.725 46.7094V42.9583C155.725 42.3174 155.571 41.8208 155.263 41.4687C154.963 41.1167 154.527 40.9406 153.954 40.9406C153.399 40.9406 152.958 41.1212 152.632 41.4823C152.306 41.8344 152.143 42.3264 152.143 42.9583V46.7094C152.143 46.7997 152.112 46.8764 152.051 46.9396C151.998 46.9937 151.927 47.0208 151.839 47.0208H151.178Z" fill="black"/>
<path d="M161.666 47.1562C160.723 47.1562 159.983 46.8854 159.446 46.3438C158.917 45.7931 158.635 45.0257 158.6 44.0417L158.586 43.5L158.6 42.9583C158.635 41.9743 158.917 41.2115 159.446 40.6698C159.983 40.1191 160.723 39.8437 161.666 39.8437C162.301 39.8437 162.838 39.9611 163.279 40.1958C163.72 40.4306 164.046 40.7194 164.257 41.0625C164.477 41.4056 164.596 41.7486 164.614 42.0917C164.623 42.1819 164.596 42.2542 164.535 42.3083C164.473 42.3625 164.398 42.3896 164.31 42.3896H163.676C163.587 42.3896 163.521 42.3715 163.477 42.3354C163.433 42.2993 163.389 42.2271 163.345 42.1187C163.195 41.6854 162.984 41.3785 162.711 41.1979C162.437 41.0083 162.094 40.9135 161.68 40.9135C161.133 40.9135 160.697 41.0896 160.371 41.4417C160.054 41.7847 159.882 42.3128 159.855 43.026L159.842 43.5135L159.855 43.974C159.882 44.6962 160.054 45.2288 160.371 45.5719C160.688 45.9149 161.124 46.0865 161.68 46.0865C162.094 46.0865 162.437 45.9962 162.711 45.8156C162.984 45.626 163.195 45.3146 163.345 44.8812C163.389 44.7729 163.433 44.7007 163.477 44.6646C163.521 44.6194 163.587 44.5969 163.676 44.5969H164.31C164.398 44.5969 164.473 44.6285 164.535 44.6917C164.596 44.7458 164.623 44.8181 164.614 44.9083C164.596 45.2424 164.477 45.5854 164.257 45.9375C164.046 46.2806 163.72 46.5694 163.279 46.8042C162.847 47.0389 162.31 47.1562 161.666 47.1562Z" fill="black"/>
<path d="M168.933 47.1562C168.026 47.1562 167.299 46.8719 166.752 46.3031C166.215 45.7253 165.919 44.9399 165.867 43.9469L165.853 43.4865L165.867 43.0396C165.928 42.0646 166.228 41.2882 166.765 40.7104C167.312 40.1326 168.03 39.8437 168.92 39.8437C169.898 39.8437 170.656 40.1642 171.194 40.8052C171.731 41.4372 172 42.2948 172 43.3781V43.6083C172 43.6986 171.969 43.7753 171.907 43.8385C171.855 43.8927 171.784 43.9198 171.696 43.9198H167.122V44.0417C167.149 44.6285 167.321 45.1295 167.638 45.5448C167.964 45.951 168.391 46.1542 168.92 46.1542C169.325 46.1542 169.656 46.0729 169.911 45.9104C170.176 45.7389 170.37 45.5628 170.493 45.3823C170.572 45.274 170.63 45.2108 170.665 45.1927C170.709 45.1656 170.784 45.1521 170.89 45.1521H171.537C171.617 45.1521 171.683 45.1747 171.736 45.2198C171.789 45.2649 171.815 45.3281 171.815 45.4094C171.815 45.608 171.692 45.8472 171.445 46.1271C171.207 46.4069 170.868 46.6507 170.427 46.8583C169.995 47.0569 169.497 47.1562 168.933 47.1562ZM170.744 42.9854V42.9448C170.744 42.3219 170.577 41.8163 170.242 41.4281C169.916 41.0309 169.475 40.8323 168.92 40.8323C168.365 40.8323 167.924 41.0309 167.598 41.4281C167.281 41.8163 167.122 42.3219 167.122 42.9448V42.9854H170.744Z" fill="black"/>
<path d="M183.2 14.4C181.893 14.4 180.687 14.08 179.58 13.44C178.487 12.7867 177.613 11.9133 176.96 10.82C176.32 9.71333 176 8.50667 176 7.2C176 5.89333 176.32 4.69333 176.96 3.6C177.613 2.49333 178.487 1.62 179.58 0.98C180.687 0.326667 181.893 0 183.2 0C184.507 0 185.707 0.326667 186.8 0.98C187.907 1.62 188.78 2.49333 189.42 3.6C190.073 4.69333 190.4 5.89333 190.4 7.2C190.4 8.50667 190.073 9.71333 189.42 10.82C188.78 11.9133 187.907 12.7867 186.8 13.44C185.707 14.08 184.507 14.4 183.2 14.4ZM183.2 13.14C184.267 13.14 185.247 12.8733 186.14 12.34C187.033 11.7933 187.74 11.0667 188.26 10.16C188.793 9.25333 189.06 8.26667 189.06 7.2C189.06 6.13333 188.793 5.14667 188.26 4.24C187.74 3.32 187.027 2.59333 186.12 2.06C185.227 1.51333 184.253 1.24 183.2 1.24C182.147 1.24 181.167 1.51333 180.26 2.06C179.367 2.59333 178.66 3.32 178.14 4.24C177.62 5.14667 177.36 6.13333 177.36 7.2C177.36 8.26667 177.62 9.25333 178.14 10.16C178.66 11.0667 179.367 11.7933 180.26 12.34C181.167 12.8733 182.147 13.14 183.2 13.14ZM180.88 10.84C180.747 10.84 180.64 10.8 180.56 10.72C180.48 10.64 180.44 10.5333 180.44 10.4V3.96C180.44 3.82667 180.48 3.72 180.56 3.64C180.64 3.56 180.747 3.52 180.88 3.52H183.5C184.34 3.52 185.02 3.71333 185.54 4.1C186.06 4.47333 186.32 5.06667 186.32 5.88C186.32 6.38667 186.193 6.82 185.94 7.18C185.7 7.52667 185.367 7.78667 184.94 7.96L186.22 10.12C186.273 10.2 186.3 10.2933 186.3 10.4C186.3 10.52 186.26 10.6267 186.18 10.72C186.113 10.8 186.007 10.84 185.86 10.84H185.32C185.067 10.84 184.873 10.7133 184.74 10.46L183.44 8.24H181.92V10.4C181.92 10.5333 181.88 10.64 181.8 10.72C181.72 10.8 181.613 10.84 181.48 10.84H180.88ZM183.46 6.92C184.367 6.92 184.82 6.57333 184.82 5.88C184.82 5.17333 184.367 4.82 183.46 4.82H181.92V6.92H183.46Z" fill="black"/>
</svg>
