<svg width="390" height="374" viewBox="0 0 390 374" fill="none" xmlns="http://www.w3.org/2000/svg">
<path d="M61.7421 284.718C63.5766 284.707 65.3634 284.132 66.8609 283.073C67.7859 282.398 68.5686 281.547 69.1642 280.569C69.7599 279.591 70.1568 278.505 70.3323 277.373C70.5077 276.242 70.4583 275.087 70.1868 273.974C69.9153 272.862 69.427 271.814 68.7499 270.891C53.8916 250.437 44.4763 226.544 41.3879 201.456C38.2995 176.368 41.6393 150.907 51.0938 127.462C60.5483 104.018 75.8074 83.3596 95.4387 67.4264C115.07 51.4932 138.43 40.8078 163.325 36.3731C164.453 36.1731 165.531 35.753 166.497 35.1366C167.463 34.5202 168.298 33.7197 168.954 32.7807C169.611 31.8417 170.076 30.7828 170.323 29.6642C170.569 28.5456 170.594 27.3894 170.394 26.2615C170.194 25.1336 169.773 24.0561 169.157 23.0906C168.54 22.1251 167.739 21.2904 166.8 20.6343C165.86 19.9781 164.801 19.5134 163.682 19.2665C162.563 19.0196 161.406 18.9955 160.278 19.1955C132.455 24.1178 106.342 36.0353 84.3968 53.8265C62.4515 71.6177 45.3953 94.6977 34.8333 120.895C24.2712 147.091 20.5505 175.544 24.0213 203.574C27.4921 231.605 38.0404 258.292 54.6734 281.124C55.4762 282.247 56.5377 283.159 57.7682 283.785C58.9986 284.411 60.3617 284.731 61.7421 284.718Z" fill="#CACACA"/>
<path d="M381.28 332.413H272.689C301.073 318.341 324.853 296.467 341.237 269.36C357.621 242.252 365.93 211.035 365.188 179.372C364.446 147.71 354.684 116.916 337.047 90.6052C319.411 64.2942 294.633 43.5578 265.62 30.83L294.078 17.2463C296.163 16.2285 297.758 14.4245 298.512 12.2312C299.267 10.0379 299.118 7.6349 298.1 5.55087C297.082 3.46684 295.277 1.87248 293.083 1.11852C290.889 0.364572 288.485 0.512791 286.4 1.53057L237.65 24.7386C236.572 25.2591 235.613 25.9945 234.83 26.8995C234.047 27.8045 233.458 28.86 233.098 30.0011C232.739 31.1422 232.616 32.3448 232.739 33.5349C232.862 34.725 233.226 35.8774 233.811 36.9213L260.745 83.703C261.522 85.0349 262.633 86.1405 263.97 86.9099C265.306 87.6793 266.821 88.0857 268.363 88.0887C269.889 88.0874 271.387 87.6854 272.709 86.9232C274.031 86.1609 275.129 85.0651 275.895 83.7452C276.66 82.4254 277.065 80.9279 277.069 79.4025C277.073 77.8771 276.677 76.3773 275.919 75.0532L260.136 47.4594C291.223 61.4979 316.556 85.7667 331.907 116.218C347.259 146.669 351.702 181.461 344.494 214.79C337.287 248.119 318.865 277.971 292.302 299.365C265.739 320.759 232.641 332.402 198.528 332.352H31.011L40.5173 323.459C41.3575 322.679 42.0359 321.741 42.5136 320.699C42.9913 319.657 43.259 318.531 43.3015 317.386C43.3439 316.24 43.1602 315.098 42.7609 314.023C42.3616 312.949 41.7545 311.964 40.9743 311.124C40.1941 310.284 39.256 309.606 38.2136 309.128C37.1712 308.651 36.0449 308.383 34.899 308.341C33.7532 308.298 32.6102 308.482 31.5353 308.881C30.4604 309.28 29.4747 309.887 28.6345 310.667L2.97976 334.606C1.5694 335.814 0.592031 337.449 0.196091 339.263C-0.199848 341.077 0.00727844 342.971 0.786014 344.657C1.01368 345.124 1.2786 345.572 1.5782 345.997L2.00476 346.545L2.67508 347.276L28.6345 371.52C30.3314 373.135 32.6009 374.011 34.9437 373.953C37.2864 373.896 39.5105 372.911 41.1266 371.215C42.7428 369.519 43.6187 367.25 43.5615 364.908C43.5044 362.566 42.5189 360.343 40.822 358.728L30.9501 349.834H381.28C383.591 349.834 385.807 348.917 387.442 347.283C389.076 345.649 389.994 343.434 389.994 341.124C389.994 338.813 389.076 336.598 387.442 334.964C385.807 333.331 383.591 332.413 381.28 332.413Z" fill="#CACACA"/>
<path d="M94.5875 186.464C94.5755 205.894 100.327 224.892 111.115 241.055C121.902 257.218 137.242 269.821 155.194 277.27C173.147 284.72 192.906 286.682 211.973 282.907C231.041 279.133 248.56 269.792 262.318 256.066C276.075 242.339 285.452 224.843 289.263 205.79C293.075 186.738 291.149 166.983 283.73 149.024C276.311 131.064 263.732 115.707 247.583 104.894C231.433 94.0801 212.439 88.2956 193.001 88.2715C166.927 88.2553 141.913 98.5896 123.459 117.003C105.005 135.416 94.6198 160.4 94.5875 186.464ZM193.001 105.693C208.985 105.681 224.614 110.408 237.91 119.276C251.206 128.144 261.572 140.754 267.697 155.512C273.822 170.27 275.431 186.512 272.32 202.185C269.209 217.857 261.518 232.255 250.22 243.557C238.922 254.859 224.525 262.558 208.849 265.679C193.173 268.801 176.923 267.205 162.154 261.093C147.386 254.982 134.763 244.629 125.881 231.345C117 218.061 112.259 202.442 112.259 186.464C112.292 165.063 120.807 144.546 135.94 129.407C151.073 114.268 171.592 105.741 193.001 105.693Z" fill="black"/>
<path d="M193.001 204.434C195.792 204.469 198.552 203.85 201.06 202.627C203.568 201.403 205.754 199.608 207.443 197.387C209.132 195.166 210.276 192.58 210.784 189.837C211.292 187.094 211.15 184.27 210.369 181.591L242.056 149.916C243.201 148.228 243.722 146.194 243.529 144.163C243.336 142.133 242.441 140.233 240.998 138.791C239.555 137.349 237.655 136.454 235.624 136.261C233.592 136.068 231.557 136.589 229.869 137.733L198.181 168.982C195.703 168.254 193.097 168.067 190.54 168.436C187.984 168.805 185.537 169.72 183.366 171.119C181.195 172.519 179.351 174.369 177.96 176.545C176.569 178.721 175.664 181.17 175.305 183.728C174.947 186.285 175.144 188.889 175.883 191.363C176.622 193.837 177.886 196.123 179.588 198.065C181.291 200.007 183.392 201.559 185.748 202.616C188.105 203.673 190.662 204.21 193.245 204.19L193.001 204.434ZM192.636 186.16C192.754 186.118 192.883 186.118 193.001 186.16C193.109 186.156 193.215 186.184 193.306 186.241C193.398 186.297 193.471 186.379 193.516 186.476C193.562 186.573 193.578 186.682 193.562 186.788C193.546 186.894 193.5 186.994 193.428 187.074C193.377 187.127 193.315 187.17 193.247 187.199C193.179 187.228 193.106 187.243 193.032 187.243C192.958 187.243 192.885 187.228 192.817 187.199C192.748 187.17 192.687 187.127 192.636 187.074C192.506 187.074 192.382 187.022 192.291 186.931C192.2 186.84 192.148 186.716 192.148 186.586C192.148 186.457 192.2 186.333 192.291 186.242C192.382 186.15 192.506 186.099 192.636 186.099V186.16Z" fill="#F33974"/>
</svg>
