<svg width="46" height="45" viewBox="0 0 46 45" fill="none" xmlns="http://www.w3.org/2000/svg">
<path d="M3.96913 28.912C5.84889 27.9136 7.59561 26.9989 9.32674 26.0572C9.74932 25.8273 10.126 25.775 10.5824 25.9544C12.3295 26.6408 14.1508 27.0443 16.0301 27.1472C20.8178 27.4096 25.1728 26.2815 28.8708 23.2038C34.0105 18.9265 34.5493 12.2006 30.1323 7.3576C27.5273 4.50149 24.1765 2.94049 20.3427 2.38196C15.2563 1.64073 10.52 2.56025 6.42931 5.69751C-0.218998 10.7961 0.570337 18.5102 5.47432 22.8602C5.8381 23.1829 5.91541 23.5108 5.74904 23.9608C5.15793 25.5598 4.59344 27.168 3.96913 28.912ZM17.2937 28.5828C14.9742 28.5862 12.7241 28.2118 10.5526 27.4269C10.1893 27.2956 9.91204 27.3319 9.58134 27.5103C7.49154 28.6373 5.38971 29.7425 3.29479 30.8607C2.94125 31.0495 2.59371 31.2119 2.22833 30.9138C1.86159 30.6146 1.97009 30.2528 2.10258 29.8838C2.78932 27.9739 3.46651 26.0608 4.1561 24.1519C4.25026 23.891 4.30824 23.6967 4.05704 23.4547C-1.05266 18.532 -1.60761 10.1522 5.50728 4.63531C9.36301 1.64559 13.847 0.511731 18.7186 0.80504C22.9208 1.0582 26.7051 2.42432 29.8855 5.1611C32.7242 7.60402 34.4407 10.6368 34.5294 14.3801C34.6239 18.374 32.8836 21.6129 29.8533 24.2018C26.2728 27.2607 22.004 28.5444 17.2937 28.5828Z" fill="#042964"/>
<path d="M42.1763 42.7C41.7235 41.4326 41.352 40.1527 40.8103 38.945C40.2958 37.7981 40.4283 37.0431 41.3939 36.0765C45.86 31.6062 45.522 24.7709 40.7595 20.4467C39.3778 19.192 37.8261 18.2003 36.0874 17.4823C35.9278 17.4163 35.7608 17.3589 35.6166 17.2684C35.2838 17.0595 35.1479 16.7545 35.3239 16.3983C35.5033 16.0353 35.8205 15.8628 36.2317 16.035C41.5838 18.2773 45.3385 21.8616 45.9408 27.74C46.3128 31.3702 44.9096 34.5486 42.316 37.1916C41.9953 37.5183 41.9123 37.7681 42.0746 38.2024C42.7654 40.0512 43.4091 41.9166 44.0769 43.7735C44.2167 44.1622 44.333 44.5438 43.9384 44.8509C43.5651 45.1415 43.2196 44.9494 42.8708 44.7632C40.8271 43.6715 38.7722 42.5988 36.7397 41.4878C36.3122 41.2542 35.964 41.2469 35.5039 41.3898C28.7551 43.4853 22.4341 42.7602 16.7531 38.4803C14.1043 36.4847 12.4295 33.8261 11.8253 30.5806C11.6745 29.7709 11.8366 29.3851 12.3487 29.3088C12.842 29.2352 13.0777 29.5006 13.2327 30.3101C13.9871 34.2485 16.3866 37.0255 19.8962 38.8947C24.8806 41.5493 30.0976 41.803 35.4238 39.9335C36.004 39.7299 36.4544 39.7328 36.9926 40.0343C38.512 40.8851 40.0618 41.6848 41.6035 42.4976C41.7635 42.5819 41.9039 42.7311 42.1763 42.7Z" fill="#042964"/>
<path d="M29.8581 34.1607C28.2589 34.1607 26.6594 34.1471 25.0604 34.1698C24.6348 34.1759 24.4438 34.0692 24.5158 33.639C24.5341 33.5293 24.5362 33.4112 24.5159 33.3023C24.4273 32.8282 24.6774 32.7491 25.0985 32.7515C27.8147 32.7669 30.5311 32.7639 33.2474 32.7657C33.7675 32.7661 34.2881 32.7722 34.8077 32.7546C35.1452 32.7432 35.2808 32.8444 35.2688 33.2018C35.2296 34.3754 35.4112 34.1488 34.3093 34.16C32.8257 34.175 31.3419 34.1636 29.8581 34.1636V34.1607Z" fill="#042964"/>
<path d="M27.7409 29.9849C26.3744 29.9849 25.0073 29.9673 23.6413 29.9952C23.2101 30.0041 23.0303 29.8952 23.0995 29.4677C23.1203 29.3398 23.1199 29.2036 23.1008 29.0752C23.0413 28.6737 23.2219 28.5751 23.6169 28.5769C26.3692 28.5894 29.1218 28.5869 31.874 28.5701C32.2771 28.5677 32.4394 28.6902 32.3915 29.0802C32.3733 29.228 32.3709 29.3821 32.3924 29.529C32.4491 29.9162 32.2614 30.0013 31.8986 29.9972C30.5128 29.9813 29.1269 29.9908 27.7409 29.9908C27.7409 29.9888 27.7409 29.9868 27.7409 29.9849Z" fill="#042964"/>
<path d="M35.94 29.9848C35.3636 29.9848 34.7869 29.9744 34.2108 29.9894C33.9379 29.9965 33.8504 29.9037 33.8341 29.6369C33.7691 28.5827 33.7594 28.5803 34.8243 28.5782C35.7656 28.5762 36.7073 28.5932 37.6484 28.5785C38.0079 28.573 38.1598 28.6586 38.1428 29.0486C38.0947 30.1475 38.2782 29.9658 37.208 29.9893C36.7855 29.9986 36.3627 29.9909 35.94 29.9909V29.9848Z" fill="#042964"/>
<path d="M15.2361 16.6012C17.4532 16.6012 19.6704 16.6116 21.8873 16.5916C22.2993 16.588 22.448 16.7065 22.3951 17.0968C22.3727 17.263 22.373 17.4355 22.3891 17.6028C22.4187 17.9071 22.2737 17.9912 21.9831 17.9828C21.4436 17.9675 20.9035 17.9787 20.3636 17.9787C16.4688 17.979 12.5738 17.9559 8.67948 17.9985C7.85935 18.0075 8.12671 17.5301 8.06518 17.1364C7.9816 16.603 8.27942 16.5843 8.70063 16.5873C10.8791 16.6026 13.0576 16.5944 15.2361 16.5944V16.6012Z" fill="#042964"/>
<path d="M20.9057 13.811C19.193 13.811 17.48 13.7966 15.7677 13.8208C15.3342 13.827 15.1606 13.7096 15.2294 13.2879C15.2474 13.1782 15.2477 13.0612 15.23 12.9515C15.1632 12.5373 15.3311 12.4034 15.7631 12.4062C18.4758 12.4234 21.1885 12.4169 23.9012 12.419C24.6708 12.4195 25.4412 12.4446 26.2095 12.4149C26.5925 12.4001 26.7017 12.504 26.6935 12.879C26.6729 13.8087 26.6928 13.8114 25.7552 13.8125C24.1386 13.8143 22.5222 13.813 20.9057 13.813V13.811Z" fill="#042964"/>
<path d="M10.9046 13.8106C10.1152 13.8106 9.32524 13.7916 8.53673 13.8187C8.14497 13.832 8.05661 13.6942 8.06127 13.3347C8.07344 12.4129 8.05526 12.4114 9.01116 12.4132C10.4355 12.4161 11.8601 12.4331 13.2842 12.4171C13.6797 12.4127 13.8578 12.518 13.7968 12.9188C13.7744 13.0658 13.7763 13.2192 13.7898 13.3678C13.8202 13.7028 13.6901 13.8298 13.3304 13.8198C12.5223 13.7967 11.7132 13.8125 10.9046 13.8125C10.9046 13.8118 10.9046 13.8112 10.9046 13.8106Z" fill="#042964"/>
<path d="M25.1988 16.5941C25.4481 16.5939 25.702 16.6238 25.9457 16.588C26.5525 16.499 26.7078 16.7363 26.7049 17.3146C26.702 17.8495 26.5782 18.0408 26.0101 17.9909C25.4204 17.9391 24.8217 17.9642 24.2281 17.9851C23.899 17.9967 23.797 17.8835 23.8071 17.5683C23.8451 16.383 23.6325 16.6259 24.7962 16.5948C24.9303 16.5913 25.0646 16.5943 25.1988 16.5941Z" fill="#042964"/>
</svg>
