<svg width="55" height="63" viewBox="0 0 55 63" fill="none" xmlns="http://www.w3.org/2000/svg">
<path d="M32.6859 44.8194H24.2289C24.797 44.2274 25.3557 43.4827 25.7848 42.5455C26.2726 41.4861 26.5889 40.195 26.5874 38.6753C26.5874 38.21 26.552 37.7193 26.4897 37.2113H30.7826C31.342 37.2113 31.7958 36.7575 31.7958 36.1981C31.7958 35.6387 31.342 35.1857 30.7826 35.1857H26.2408C26.201 34.8636 26.1619 34.5264 26.1221 34.1892C26.0302 33.3815 25.9484 32.5833 25.926 32.1766V32.1665C25.9216 32.1115 25.9202 32.0514 25.9202 31.9855C25.9216 31.0064 26.3486 30.1221 27.0564 29.4584C27.7634 28.7963 28.7397 28.3859 29.7716 28.3867C30.4729 28.3874 31.1227 28.5763 31.6908 28.9055C32.1757 29.1863 32.7945 29.0213 33.076 28.5372C33.356 28.053 33.1918 27.4336 32.7069 27.1528V27.1521C31.8472 26.6542 30.8427 26.3604 29.7709 26.3604C28.2034 26.3618 26.7473 26.9748 25.672 27.9771C24.598 28.9779 23.8924 30.3992 23.8939 31.9855C23.8939 32.0832 23.8953 32.1867 23.9025 32.2967V32.2866C23.9395 32.9488 24.0719 34.1255 24.1993 35.1857H20.9868C20.4274 35.1857 19.9737 35.6387 19.9737 36.1981C19.9737 36.7575 20.4274 37.2113 20.9868 37.2113H24.4525C24.4525 37.2127 24.454 37.2207 24.454 37.2207L24.4554 37.2323C24.5293 37.749 24.5625 38.2288 24.5625 38.676C24.5611 39.9171 24.3093 40.9006 23.9438 41.7017C23.3952 42.8987 22.5702 43.6991 21.8733 44.2035C21.526 44.4553 21.2133 44.6305 20.9955 44.739C20.8855 44.7933 20.8001 44.8317 20.7466 44.8548L20.6901 44.8773L20.68 44.8809V44.8823C20.2204 45.0502 19.9447 45.5235 20.0301 46.0069C20.1148 46.4918 20.536 46.8457 21.0281 46.8457H32.6859C33.2453 46.8457 33.6991 46.3919 33.6991 45.8332C33.6991 45.2724 33.2453 44.8194 32.6859 44.8194Z" fill="#F33974"/>
<path d="M52.1009 48.1105C52.9983 46.0162 53.5526 42.6821 53.5526 39.676C53.5526 25.7682 39.0789 12.8989 27.5 12.8989C15.9211 12.8989 1.45171 25.7675 1.44737 39.6752C1.44737 42.6814 2.00316 46.0154 2.89908 48.1091C1.12967 49.5571 0 51.755 0 54.2155C0 58.575 3.54243 62.1095 7.91131 62.1095C10.4102 62.1095 12.6348 60.9501 14.0851 59.1452C18.0016 61.0254 22.5912 62.1095 27.5 62.1095C32.4087 62.1095 36.9998 61.0254 40.9149 59.1452C42.3652 60.9501 44.5898 62.1095 47.0887 62.1095C51.4576 62.1095 55 58.575 55 54.2155C55 51.755 53.8703 49.5586 52.1009 48.1105ZM47.0887 59.9384C45.3403 59.9384 43.7062 59.1539 42.6084 57.7854L41.5286 56.4423L39.9756 57.1877C36.2284 58.9875 31.9145 59.9384 27.5 59.9384C23.087 59.9384 18.7716 58.9875 15.0237 57.1877L13.4714 56.443L12.3916 57.7854C11.2931 59.1539 9.65974 59.9384 7.91131 59.9384C4.74664 59.9384 2.17105 57.3708 2.17105 54.2155C2.17105 52.496 2.93743 50.8837 4.27408 49.7894L5.53763 48.7553L4.89428 47.2544C4.13151 45.4705 3.61842 42.4252 3.61842 39.676C3.62132 27.0021 17.0761 15.07 27.5 15.07C37.9283 15.07 51.3816 27.0021 51.3816 39.676C51.3816 42.4281 50.8685 45.4741 50.105 47.2558L49.4616 48.7568L50.7252 49.7909C52.0626 50.8844 52.8289 52.4967 52.8289 54.2155C52.8289 57.3708 50.2534 59.9384 47.0887 59.9384Z" fill="#F33974"/>
<path d="M31.5186 54.6224C30.2804 55.0089 28.9235 55.2238 27.5 55.2238C26.0779 55.2238 24.7225 55.0096 23.4828 54.6231C22.9104 54.4444 22.3025 54.7635 22.123 55.336C21.945 55.9084 22.2641 56.517 22.8366 56.6958C24.2868 57.1481 25.8601 57.3948 27.4993 57.3948C29.1406 57.3948 30.7146 57.1473 32.1649 56.6943C32.7373 56.5156 33.0564 55.9069 32.877 55.3345C32.7004 54.7628 32.091 54.4437 31.5186 54.6224Z" fill="#F33974"/>
<path d="M20.8472 7.96487C21.322 9.48461 23.0139 10.7279 24.6053 10.7279H30.3948C31.9876 10.7279 33.6781 9.48388 34.1529 7.96487L36.0439 1.91197C36.4129 0.731645 35.9975 0 35.0951 0C34.8368 0 34.5371 0.0607896 34.2057 0.188158L30.2016 1.72816C29.4583 2.01474 28.4785 2.1573 27.4993 2.1573C26.5202 2.1573 25.5403 2.01474 24.7985 1.72816L20.7944 0.188158C20.4622 0.0607896 20.1626 0 19.9043 0C19.004 0 18.5871 0.731645 18.9555 1.91197L20.8472 7.96487ZM24.0184 3.75375C24.9795 4.12428 26.2162 4.32763 27.5 4.32763C28.7839 4.32763 30.0199 4.12428 30.9817 3.75447L33.4979 2.78691L32.0817 7.31717C31.8892 7.93158 31.0389 8.55684 30.3955 8.55684H24.606C23.9627 8.55684 23.1123 7.93158 22.9198 7.31717L21.505 2.78691L24.0184 3.75375Z" fill="#F33974"/>
</svg>
