<svg width="40" height="40" viewBox="0 0 40 40" fill="none" xmlns="http://www.w3.org/2000/svg">
<path d="M37.1489 39.6305H25.7331C24.8293 39.6305 23.8304 38.9803 23.8304 37.7727V27.5547H16.1724V37.7727C16.1724 38.9803 15.1735 39.6305 14.2697 39.6305H2.85395C1.28428 39.6305 0 38.3765 0 36.8438V20.1699C0 19.3804 0.33296 18.6372 0.856184 18.1263L17.9323 1.45247C18.5031 0.895127 19.2641 0.616455 20.0252 0.616455C20.7862 0.616455 21.4997 0.941572 22.0229 1.45247L39.0991 18.1263C39.6698 18.6837 39.9552 19.3804 39.9552 20.1235V36.8438C40.0028 37.5405 39.7174 38.2372 39.1942 38.7945C38.671 39.3054 37.9099 39.6305 37.1489 39.6305ZM25.7331 37.7727H37.1489C37.3867 37.7727 37.6245 37.6798 37.8148 37.494C37.9575 37.3083 38.0526 37.1225 38.0526 36.8903V20.1235C38.0526 19.8448 37.9575 19.6126 37.7672 19.4268L20.6435 2.75294C20.4533 2.56716 20.2155 2.47427 19.9776 2.47427C19.6922 2.47427 19.4544 2.56716 19.2641 2.75294L2.18803 19.4268C1.99776 19.6126 1.90263 19.8913 1.90263 20.1699V36.8438C1.90263 37.3547 2.33072 37.7727 2.85395 37.7727H14.2697V27.5547C14.2697 26.5329 15.1259 25.6969 16.1724 25.6969H23.7829C24.8293 25.6969 25.6855 26.5329 25.6855 27.5547L25.7331 37.7727Z" fill="#042964"/>
</svg>
