<?xml version="1.0" encoding="utf-8"?>
<!-- Generator: Adobe Illustrator 25.3.1, SVG Export Plug-In . SVG Version: 6.00 Build 0)  -->
<svg version="1.1" id="Layer_1" xmlns="http://www.w3.org/2000/svg" xmlns:xlink="http://www.w3.org/1999/xlink" x="0px" y="0px"
	 viewBox="0 0 46.1 27" style="enable-background:new 0 0 46.1 27;" xml:space="preserve">
<style type="text/css">
	.st0{fill:#202F62;}
</style>
<g>
	<path class="st0" d="M26.7,13.9l-0.8-2.5c-0.2-0.6-0.1-1.2,0.4-1.7l2.4-2.3c0.4,0.1,0.8,0.2,1.2,0.2c1.2,0,2.3-0.6,2.9-1.4l0.3-0.1
		c0.6-0.2,1.2-0.1,1.7,0.4l1.9,1.9c0.4,0.4,0.6,0.9,0.4,1.5l-0.8,3.3h-2.9c-0.4-1-1.3-1.7-2.5-1.7h-1.1v1h1.1c0.9,0,1.6,0.7,1.6,1.6
		c0,0.5-0.2,1-0.6,1.3s-0.9,0.4-1.4,0.3L27.8,15C27.3,14.9,26.9,14.5,26.7,13.9z M22.1,13.1c-0.4-0.9-1.3-1.6-2.4-1.6h-1.1v1h1.1
		c0.9,0,1.6,0.7,1.6,1.6c0,0.5-0.2,1-0.6,1.3s-0.9,0.4-1.4,0.3L16.6,15c-0.5-0.2-1-0.5-1.1-1l-0.8-2.5c-0.2-0.6-0.1-1.2,0.4-1.7
		l2.3-2.4c0.4,0.2,0.8,0.2,1.2,0.2c1.1,0,2.1-0.5,2.8-1.3L22.2,6c0.6-0.2,1.2-0.1,1.7,0.4l1.9,1.9c0.1,0.1,0.2,0.3,0.3,0.4L25.8,9
		c-0.7,0.7-1,1.8-0.6,2.7l0.4,1.3L22.1,13.1L22.1,13.1z M10.8,13.1c-0.4-0.9-1.3-1.6-2.4-1.6H7.3v1h1.1c0.9,0,1.6,0.7,1.6,1.6
		c0,0.5-0.2,1-0.6,1.3S8.5,15.8,8,15.7L5.3,15c-0.5-0.2-1-0.5-1.1-1l-0.8-2.5c-0.2-0.6-0.1-1.2,0.4-1.7l2.3-2.4
		c0.4,0.2,0.8,0.2,1.2,0.2c1.2,0,2.3-0.6,2.9-1.4l0.3-0.1c0.6-0.2,1.2-0.1,1.7,0.4l1.9,1.9c0.2,0.2,0.3,0.4,0.4,0.6l-0.1,0.1
		c-0.7,0.7-1,1.8-0.6,2.7l0.4,1.3C14.2,13.1,10.8,13.1,10.8,13.1z M4.5,3.9c0-1.5,1.2-2.7,2.7-2.7s2.7,1.2,2.7,2.7S8.7,6.6,7.2,6.6
		S4.5,5.4,4.5,3.9z M15.8,3.9c0-1.5,1.2-2.7,2.7-2.7s2.7,1.2,2.7,2.7S20,6.6,18.5,6.6C17,6.6,15.8,5.4,15.8,3.9z M27.1,3.9
		c0-1.5,1.2-2.7,2.7-2.7s2.7,1.2,2.7,2.7s-1.2,2.7-2.7,2.7C28.4,6.6,27.1,5.4,27.1,3.9z M31,16.7c0.6,0,1.1-0.2,1.6-0.6
		c0.6-0.5,1-1.2,1-2.1h12.5v-1h-8.7l0.7-3c0.2-0.9-0.1-1.8-0.7-2.4l-1.9-1.9c-0.6-0.6-1.3-0.8-2.1-0.8c0.1-0.4,0.2-0.7,0.2-1.1
		c0-2.1-1.7-3.8-3.8-3.8C27.7,0,26,1.7,26,3.8c0,1.2,0.6,2.4,1.6,3.1l-1,1c-0.1-0.1-0.2-0.3-0.3-0.4l-1.8-1.8
		c-0.6-0.6-1.6-0.9-2.4-0.7c0.1-0.4,0.2-0.8,0.2-1.1c0-2.1-1.7-3.8-3.8-3.8c-2.1,0-3.8,1.7-3.8,3.8c0,1.2,0.6,2.4,1.6,3.1l-1.2,1.2
		C15,8,14.8,7.8,14.7,7.6l-1.9-1.9c-0.6-0.6-1.3-0.8-2.1-0.8c0.1-0.4,0.2-0.7,0.2-1.1C10.9,1.7,9.2,0,7.1,0C5,0,3.3,1.7,3.3,3.8
		c0,1.2,0.6,2.4,1.6,3.1L2.8,9c-0.7,0.7-1,1.8-0.6,2.7L2.6,13c-0.6,0.1-1.3,0.2-1.9,0.7C0.3,14.1,0,14.6,0,15.2v4.9h1v-4.9
		c0-0.3,0.1-0.5,0.3-0.7c0.4-0.3,1-0.4,1.5-0.4l0.1,0.2c0.3,0.9,1,1.5,1.9,1.7l0.4,0.1l1.3,3.8c0.1,0.3,0.3,0.6,0.6,0.8l4.3,2.9
		c0.1,0.1,0.1,0.1,0.2,0.2l1.2,2.4c0.3,0.5,0.8,0.8,1.3,0.8h1.6c0.8,0,1.5-0.7,1.5-1.5v-0.1h0.1c0.8,0,1.5-0.7,1.5-1.5v-1.2
		c0-0.8-0.7-1.5-1.5-1.5c-0.2,0-0.4-0.1-0.4-0.3l-1.3-2.5c-0.1-0.2-0.2-0.3-0.3-0.4l-3.1-3.1l-0.6,0.7l3.1,3.1
		c0.1,0.1,0.1,0.1,0.1,0.1l1.3,2.5c0.3,0.5,0.8,0.8,1.3,0.8c0.3,0,0.5,0.2,0.5,0.5v1.2c0,0.3-0.2,0.5-0.5,0.5h-0.1v-0.1
		c0-0.8-0.7-1.5-1.5-1.5c-0.2,0-0.4-0.1-0.4-0.3l-1.3-2.5c-0.1-0.2-0.2-0.3-0.3-0.4l-1.6-1.4l-0.7,0.7l1.5,1.5
		c0.1,0.1,0.1,0.1,0.1,0.1l1.3,2.5c0.3,0.5,0.8,0.8,1.3,0.8c0.3,0,0.5,0.2,0.5,0.5v1.2c0,0.3-0.2,0.5-0.5,0.5h-1.6
		c-0.2,0-0.4-0.1-0.4-0.3l-1.2-2.4c-0.1-0.3-0.3-0.4-0.5-0.6l-4.4-2.8c-0.1-0.1-0.2-0.2-0.2-0.3l-1.1-3.2l1.1,0.3
		c0.2,0.1,0.4,0.1,0.7,0.1c0.6,0,1.1-0.2,1.6-0.6c0.6-0.5,1-1.2,1-2.1h3.4l0.1,0.2c0.3,0.9,1,1.5,1.9,1.7l0.4,0.1l1.3,3.8
		c0.1,0.3,0.3,0.6,0.6,0.8l4.3,2.9c0.1,0.1,0.1,0.1,0.2,0.2l1.2,2.4c0.3,0.5,0.8,0.8,1.3,0.8H27c0.8,0,1.5-0.7,1.5-1.5l0,0h0.1
		c0.8,0,1.5-0.7,1.5-1.5v-1.2c0-0.8-0.7-1.5-1.5-1.5c-0.2,0-0.4-0.1-0.4-0.3l-1.1-2.5c-0.1-0.2-0.2-0.3-0.3-0.4l-3.1-3.1L23,15.6
		l3.1,3.1c0.1,0.1,0.1,0.1,0.1,0.1l1.3,2.5c0.3,0.5,0.8,0.8,1.3,0.8c0.3,0,0.5,0.2,0.5,0.5v1.2c0,0.3-0.2,0.5-0.5,0.5h-0.1v-0.1
		c0-0.8-0.7-1.5-1.5-1.5c-0.2,0-0.4-0.1-0.4-0.3l-1.3-2.5c-0.1-0.2-0.2-0.3-0.3-0.4L23.7,18L23,18.7l1.5,1.5
		c0.1,0.1,0.1,0.1,0.1,0.1l1.3,2.5c0.3,0.5,0.8,0.8,1.3,0.8c0.3,0,0.5,0.2,0.5,0.5v1.3c0,0.3-0.2,0.5-0.5,0.5h-1.6
		c-0.2,0-0.4-0.1-0.4-0.3L24,23.2c-0.1-0.3-0.3-0.4-0.5-0.6l-4.3-2.9c-0.1-0.1-0.2-0.2-0.2-0.3l-1.1-3.2l1.1,0.3
		c0.2,0.1,0.4,0.1,0.7,0.1c0.6,0,1.1-0.2,1.6-0.6c0.6-0.5,1-1.2,1-2.1h3.4l0.1,0.2c0.3,0.9,1,1.5,1.9,1.7l0.4,0.1l1.3,3.8
		c0.1,0.3,0.3,0.6,0.6,0.8l4.3,2.9c0.1,0.1,0.1,0.1,0.2,0.2l1.2,2.4c0.3,0.5,0.8,0.8,1.3,0.8h1.6c0.8,0,1.5-0.7,1.5-1.5v0.1h0.1
		c0.8,0,1.5-0.7,1.5-1.5v-1.2c0-0.8-0.7-1.5-1.5-1.5c-0.2,0-0.4-0.1-0.4-0.3l-1.3-2.5c-0.1-0.2-0.2-0.3-0.3-0.4l-3.1-3.1l-0.8,0.7
		l3.1,3.1c0.1,0.1,0.1,0.1,0.1,0.1l1.3,2.5c0.3,0.5,0.8,0.8,1.3,0.8c0.3,0,0.5,0.2,0.5,0.5v1.2c0,0.3-0.2,0.5-0.5,0.5l0,0v-0.1
		c0-0.8-0.7-1.5-1.5-1.5c-0.2,0-0.4-0.1-0.4-0.3l-1.3-2.5c-0.1-0.2-0.2-0.3-0.3-0.4L35.1,18l-0.7,0.7l1.5,1.5
		c0.1,0.1,0.1,0.1,0.1,0.1l1.3,2.5c0.3,0.5,0.8,0.8,1.3,0.8c0.3,0,0.5,0.2,0.5,0.5v1.3c0,0.3-0.2,0.5-0.5,0.5H37
		c-0.2,0-0.4-0.1-0.4-0.3l-1.2-2.4c-0.1-0.3-0.3-0.4-0.5-0.6l-4.3-2.9c-0.1-0.1-0.2-0.2-0.2-0.3l-1.1-3.2l1.1,0.3
		C30.5,16.7,30.7,16.7,31,16.7z"/>
</g>
</svg>
