<svg width="81" height="74" viewBox="0 0 81 74" fill="none" xmlns="http://www.w3.org/2000/svg">
<path fill-rule="evenodd" clip-rule="evenodd" d="M54.8508 72.0601C58.3122 71.7288 59.9582 70.7974 61.5698 68.5644C65.8609 62.6186 73.7439 48.4617 76.968 42.0417C78.0602 39.867 78.6772 38.6913 78.8044 37.6109C78.6962 36.528 78.0999 35.3418 77.0465 33.1477C73.9356 26.6722 66.3025 12.3792 62.1172 6.3589C60.5449 4.09795 58.9154 3.13776 55.4609 2.74616H25.1321C21.6772 3.13776 20.0478 4.09795 18.4755 6.3589C14.2901 12.3792 6.65707 26.6722 3.5465 33.1477C2.49276 35.3418 1.89682 36.528 1.78824 37.6109C1.91545 38.6913 2.53246 39.867 3.62468 42.0417C6.8487 48.4617 14.7321 62.6186 19.0228 68.5644C20.6344 70.7974 22.2809 71.7288 25.7419 72.0601H54.8508ZM55.4747 1.14895C59.6163 1.39801 61.4199 2.37317 63.8742 6.1641C68.8881 13.908 73.8136 23.7074 78.4499 32.0041C79.7966 34.4128 80.4675 36.0809 80.5927 37.5477L80.5914 37.7052C80.4403 39.1704 79.7398 40.826 78.3515 43.2108C73.5697 51.424 68.4724 61.1352 63.3232 68.79C60.8029 72.5372 58.9819 73.4804 54.8366 73.6565C54.8366 73.7011 25.7561 73.7011 25.7561 73.6565C21.6108 73.4804 19.7897 72.5372 17.2694 68.79C12.1202 61.1352 7.02291 51.424 2.24117 43.2108C0.852798 40.826 0.15233 39.1704 0.0016221 37.7052L0 37.5477C0.125185 36.0809 0.796083 34.4128 2.14273 32.0041C6.77902 23.7074 11.705 13.908 16.7184 6.1641C19.1727 2.37317 20.9768 1.39801 25.118 1.14895C25.1156 0.934724 55.4771 0.934724 55.4747 1.14895Z" fill="#2978FC"/>
</svg>
