<svg width="77" height="80" viewBox="0 0 77 80" fill="none" xmlns="http://www.w3.org/2000/svg">
<path fill-rule="evenodd" clip-rule="evenodd" d="M26.9877 76.1029C29.8519 78.0731 31.7123 78.4174 34.3829 77.7423C41.4929 75.9446 56.6354 70.1653 63.2333 67.3187C65.4684 66.3545 66.6968 65.8503 67.4892 65.1039C68.103 64.2049 68.4088 62.9134 69.0125 60.5557C70.7938 53.5967 74.1373 37.7428 74.8026 30.4416C75.0521 27.6995 74.4209 25.9169 72.0266 23.3971L48.7933 3.90949C45.895 1.98993 44.0294 1.6785 41.371 2.40016C34.2934 4.32256 19.2554 10.3672 12.7081 13.3291C10.4905 14.3331 9.271 14.8583 8.49194 15.6184C7.89438 16.528 7.61078 17.8251 7.04887 20.1926C5.39068 27.1824 2.3259 43.0925 1.78992 50.4039C1.58857 53.1504 2.25053 54.9217 4.689 57.3993L26.9877 76.1029ZM73.0641 22.1826C76.0767 25.0344 76.8314 26.9402 76.2736 31.4212C75.1348 40.5752 72.6068 51.2466 70.8234 60.5816C70.306 63.2921 69.747 65.0007 68.8998 66.205L68.7973 66.3245C67.74 67.3503 66.1385 68.1683 63.5412 69.103C54.5968 72.3225 44.4475 76.4861 35.5805 79.0418C31.2403 80.2928 29.239 79.8453 25.9505 77.3167C25.9214 77.3507 3.64458 58.6657 3.67335 58.6313C0.610982 55.8329 -0.177397 53.9405 0.301465 49.4506C1.27944 40.278 3.61905 29.5636 5.23754 20.1995C5.70749 17.4801 6.23578 15.7618 7.06224 14.5428L7.16232 14.4209C8.20147 13.3777 9.78795 12.5309 12.3686 11.5509C21.2551 8.17465 31.3298 3.83296 40.1503 1.12208C44.4682 -0.20501 46.4768 0.206842 49.8094 2.67757C49.9455 2.51153 73.2039 22.0202 73.0641 22.1826Z" fill="#D2D2D2"/>
</svg>
