<svg width="58" height="51" viewBox="0 0 58 51" fill="none" xmlns="http://www.w3.org/2000/svg">
<path d="M3.53918 0C1.59795 0 0 1.61986 0 3.55866V36.334C0 38.2736 1.59876 39.8691 3.53918 39.8691H15.7327L9.77271 49.2661C9.54466 49.5404 9.63637 49.9957 9.93258 50.201C10.2296 50.3836 10.6857 50.2692 10.8456 49.9502L17.0791 40.1418C17.1246 40.0509 17.1708 39.9592 17.1708 39.8683H28.3597V49.6077C28.3597 49.9502 28.6567 50.2683 28.9992 50.2683C29.3417 50.2683 29.6379 49.9494 29.6379 49.6077V39.8699H40.804C40.804 39.9608 40.8503 40.0525 40.8957 40.1434L47.1301 49.9518C47.2883 50.2708 47.7452 50.3844 48.0431 50.2026C48.3393 49.9973 48.4318 49.542 48.2029 49.2677L42.2445 39.8699H54.4608C56.4012 39.8699 58 38.2736 58 36.3348V3.55866C58 1.61986 56.4004 0 54.4608 0H3.53918ZM3.53918 1.27738H54.4608C55.7163 1.27738 56.721 2.30318 56.721 3.55866V36.334C56.721 37.5886 55.7163 38.5917 54.4608 38.5917H3.53918C2.2829 38.5917 1.27819 37.5886 1.27819 36.334V3.55866C1.27901 2.30318 2.28371 1.27738 3.53918 1.27738ZM43.2484 4.19735C39.0024 4.19735 35.5306 7.66349 35.5306 11.929C35.5306 16.1945 39.0016 19.6834 43.2484 19.6834C47.5188 19.6834 50.9898 16.1945 50.9898 11.929C50.9898 7.66349 47.518 4.19735 43.2484 4.19735ZM42.587 5.5429C42.6089 5.5429 42.6089 5.5429 42.6089 5.5429C42.6089 5.56481 42.6089 5.58835 42.6089 5.61107V18.2697C42.6089 18.2924 42.6089 18.3159 42.6089 18.3378C39.344 18.0189 36.8096 15.2815 36.8096 11.9298C36.8096 8.57567 39.344 5.86184 42.587 5.5429ZM43.9106 5.5429C46.971 5.83912 49.3919 8.23401 49.6881 11.3122C49.6662 11.3122 49.6199 11.3122 49.5964 11.3122H43.9106V5.61107C43.9106 5.58835 43.9106 5.56562 43.9106 5.5429ZM44.8236 12.5904H49.5964C49.6199 12.5904 49.6662 12.5904 49.6881 12.5904C49.5517 13.8905 49.0259 15.0535 48.2492 16.0119C48.2273 15.9892 48.2046 15.9892 48.181 15.9665L44.8236 12.5904ZM43.9106 13.5034L47.2899 16.8778C47.3135 16.9014 47.3362 16.9241 47.3362 16.9468C46.4013 17.7227 45.2124 18.2234 43.9106 18.3378C43.9106 18.3159 43.9106 18.2924 43.9106 18.2697V13.5034ZM7.51254 14.0731C7.17006 14.0958 6.89657 14.4383 6.91929 14.7573C6.96474 15.0997 7.28449 15.3732 7.62778 15.3497H22.1278C22.4703 15.3497 22.79 15.0535 22.79 14.711C22.79 14.3693 22.4703 14.0504 22.1278 14.0731H7.62697C7.60424 14.0504 7.58071 14.0504 7.58071 14.0731C7.5588 14.0504 7.53526 14.0504 7.51254 14.0731ZM7.58071 20.3221C7.23823 20.3221 6.9412 20.6645 6.96393 20.9835C6.96393 21.3252 7.28368 21.6214 7.62615 21.5995H32.5165C32.8589 21.5995 33.1771 21.3032 33.1771 20.9608C33.1771 20.6183 32.8581 20.3221 32.5165 20.3221H7.62615C7.60424 20.3221 7.60424 20.3221 7.58071 20.3221ZM7.44437 26.5954C7.12461 26.6408 6.85031 26.9833 6.89657 27.325C6.94202 27.6666 7.28449 27.9174 7.62697 27.8719H50.3511C50.6936 27.8947 50.9898 27.5757 50.9898 27.2332C50.9898 26.8916 50.6936 26.5954 50.3511 26.5954H7.62697C7.60424 26.5954 7.5588 26.5954 7.51254 26.5954C7.48981 26.5954 7.46709 26.5954 7.44437 26.5954ZM7.44437 32.8443C7.12461 32.8906 6.85031 33.255 6.89657 33.5739C6.94202 33.9164 7.28449 34.1899 7.62697 34.1444H50.3511C50.6936 34.1444 50.9898 33.8247 50.9898 33.483C50.9898 33.1633 50.6936 32.8443 50.3511 32.8443H7.62697C7.60424 32.8443 7.5588 32.8443 7.51254 32.8443C7.48981 32.8443 7.46709 32.8443 7.44437 32.8443Z" fill="#F33974"/>
</svg>
