<svg width="67" height="58" viewBox="0 0 67 58" fill="none" xmlns="http://www.w3.org/2000/svg">
<path d="M41.4907 12.2686C41.0768 11.827 40.3861 11.808 39.9467 12.2233C39.5073 12.6386 39.4869 13.3332 39.9008 13.7741L47.3963 21.7422L39.9008 29.7066C39.4869 30.1475 39.5066 30.8414 39.9452 31.2574C40.1573 31.457 40.4261 31.5564 40.6965 31.5564C40.9865 31.5564 41.2757 31.4409 41.4907 31.2128L49.6937 22.496C50.0923 22.0734 50.0923 21.4132 49.6937 20.9905L41.4907 12.2686ZM26.8297 12.2233C26.3903 11.808 25.6995 11.8278 25.2842 12.2679L17.0819 20.9847C16.6848 21.4073 16.684 22.0675 17.0819 22.4901L25.2849 31.2121C25.4999 31.4409 25.7892 31.5564 26.0799 31.5564C26.3488 31.5564 26.6184 31.457 26.8297 31.2574C27.269 30.8421 27.2887 30.1475 26.8748 29.7073L19.3793 21.7385L26.8741 13.7741C27.288 13.3339 27.2683 12.6393 26.8297 12.2233ZM37.0707 12.1114C36.509 11.895 35.875 12.1772 35.6586 12.7424L29.0775 29.9537C28.8611 30.5189 29.1431 31.1536 29.7064 31.3707C29.8353 31.4204 29.9672 31.4438 30.0976 31.4438C30.537 31.4438 30.9516 31.1762 31.1177 30.7397L37.6988 13.5291C37.916 12.9625 37.634 12.3279 37.0707 12.1114ZM63.7981 0.224365H2.97682C1.56398 0.224365 0.413452 1.37812 0.413452 2.79656V40.8932C0.413452 42.311 1.56325 43.4654 2.97682 43.4654H26.6475V52.2575H21.5018C20.8978 52.2575 20.4089 52.7489 20.4089 53.3543V56.5684C20.4089 57.1738 20.8978 57.6651 21.5018 57.6651H45.2738C45.8771 57.6651 46.3668 57.1738 46.3668 56.5684V53.3543C46.3668 52.7489 45.8771 52.2575 45.2738 52.2575H40.1274V43.4647H63.7981C65.2109 43.4647 66.3615 42.311 66.3615 40.8925V2.79656C66.3615 1.37812 65.2117 0.224365 63.7981 0.224365ZM44.1808 54.451V55.4717H22.5948V54.451H44.1808ZM28.8334 52.2575V43.4837H37.9415V52.2575H28.8334ZM64.1755 40.8932C64.1755 41.1016 64.0065 41.272 63.7981 41.272H2.97682C2.76915 41.272 2.59938 41.1024 2.59938 40.8932V2.79656C2.59938 2.58745 2.76843 2.41782 2.97682 2.41782H63.7981C64.0057 2.41782 64.1755 2.58745 64.1755 2.79656V40.8932Z" fill="white"/>
</svg>
