<svg width="65" height="67" viewBox="0 0 65 67" fill="none" xmlns="http://www.w3.org/2000/svg">
<path d="M32.2746 0.0900879C15.0359 0.0900879 4.36639 13.3209 4.36639 25.5766C4.36639 33.7211 7.973 42.5528 14.0269 49.29V61.036C14.0269 61.3299 14.14 61.6117 14.3413 61.8195C14.5426 62.0273 14.8156 62.1441 15.1003 62.1441H19.3939V65.4684C19.3939 65.7623 19.507 66.0441 19.7083 66.252C19.9096 66.4598 20.1826 66.5765 20.4673 66.5765H44.082C44.3666 66.5765 44.6397 66.4598 44.841 66.252C45.0423 66.0441 45.1553 65.7623 45.1553 65.4684V62.1441H49.4489C49.7336 62.1441 50.0066 62.0273 50.2079 61.8195C50.4092 61.6117 50.5223 61.3299 50.5223 61.036V49.29C56.5763 42.5528 60.1829 33.7765 60.1829 25.5766C60.1829 13.3209 49.5133 0.0900879 32.2746 0.0900879ZM43.0086 64.3603H21.5407V62.1441H43.0086V64.3603ZM48.3755 59.9279H16.1737V57.7117H48.3755V59.9279ZM48.3755 55.4954H16.1737V53.2792H48.3755V55.4954ZM48.6653 48.0822C48.4775 48.2894 48.3737 48.563 48.3755 48.8468V51.063H16.1737V48.8468C16.1755 48.563 16.0718 48.2894 15.8839 48.0822C10.0124 41.7106 6.51318 33.3333 6.51318 25.5766C6.51318 14.3847 16.3669 2.3063 32.2746 2.3063C48.1823 2.3063 58.0361 14.3847 58.0361 25.5766C58.0361 33.3333 54.5368 41.7106 48.6653 48.0822Z" fill="white"/>
<path d="M48.2039 12.9783L45.939 13.7429C45.5848 13.344 45.1984 12.945 44.8656 12.5793L45.6063 10.2301C45.6785 9.99612 45.6734 9.74402 45.5918 9.51336C45.5102 9.2827 45.3567 9.08655 45.1554 8.95572C43.7613 7.87087 42.2481 6.9596 40.6472 6.24078C40.4397 6.15019 40.2099 6.12926 39.9903 6.18097C39.7707 6.23268 39.5724 6.3544 39.4235 6.5289L37.8134 8.39057C37.2982 8.22805 36.783 8.08399 36.2677 7.9584L35.8062 5.63131C35.7612 5.40555 35.6491 5.1999 35.4856 5.04299C35.322 4.88608 35.1152 4.78572 34.8938 4.75588C33.1557 4.51204 31.3937 4.51204 29.6556 4.75588C29.4343 4.78572 29.2274 4.88608 29.0639 5.04299C28.9003 5.1999 28.7883 5.40555 28.7433 5.63131L28.2495 8.05813C27.7343 8.17633 27.219 8.32039 26.7038 8.49031L25.0937 6.62863C24.9448 6.45413 24.7465 6.33241 24.5269 6.2807C24.3073 6.22899 24.0775 6.24992 23.8701 6.34052C22.2849 7.03026 20.7828 7.90789 19.394 8.95572C19.2146 9.09679 19.0828 9.29262 19.0173 9.5154C18.9518 9.73818 18.9559 9.97661 19.0291 10.1968L19.7697 12.535C19.3833 12.9007 18.9969 13.2996 18.6426 13.6986L16.3671 12.9339C16.1373 12.85 15.8868 12.8492 15.6566 12.9318C15.4264 13.0144 15.2303 13.1754 15.1004 13.3883C14.0496 14.8275 13.1669 16.3897 12.4706 18.0425C12.3829 18.2566 12.3626 18.4939 12.4127 18.7206C12.4628 18.9473 12.5807 19.152 12.7497 19.3057L14.553 20.9679C14.3956 21.4999 14.256 22.0318 14.1344 22.5637L11.8803 23.0402C11.6616 23.0866 11.4624 23.2023 11.3104 23.3712C11.1584 23.54 11.0612 23.7535 11.0323 23.9821C10.8034 25.7769 10.8034 27.595 11.0323 29.3898C11.0612 29.6183 11.1584 29.8319 11.3104 30.0007C11.4624 30.1696 11.6616 30.2853 11.8803 30.3317L14.231 30.8415C14.3455 31.3734 14.485 31.9053 14.6496 32.4372L12.8463 34.0994C12.6773 34.2531 12.5594 34.4578 12.5093 34.6845C12.4592 34.9113 12.4795 35.1485 12.5672 35.3627C13.2331 37.0003 14.0833 38.5513 15.1004 39.9836C15.2371 40.1688 15.4268 40.3049 15.6426 40.3725C15.8584 40.4402 16.0893 40.4359 16.3026 40.3604L18.5675 39.5958C18.9217 39.9947 19.3081 40.3936 19.6946 40.7039L18.9539 43.0532C18.8585 43.2973 18.8504 43.5685 18.931 43.8183C19.0117 44.068 19.1758 44.28 19.394 44.4162C20.7881 45.501 22.3013 46.4123 23.9023 47.1311C24.1097 47.2217 24.3395 47.2426 24.5591 47.1909C24.7788 47.1392 24.977 47.0175 25.1259 46.843L26.736 44.9813C27.2512 45.1438 27.7665 45.2879 28.2817 45.4135L28.7755 47.8403C28.8205 48.0661 28.9325 48.2717 29.0961 48.4286C29.2596 48.5855 29.4665 48.6859 29.6879 48.7157C31.4264 48.9521 33.1875 48.9521 34.926 48.7157C35.1474 48.6859 35.3542 48.5855 35.5178 48.4286C35.6813 48.2717 35.7934 48.0661 35.8384 47.8403L36.3321 45.4135C36.8474 45.2953 37.3626 45.1512 37.8778 44.9813L39.4879 46.843C39.6368 47.0175 39.8351 47.1392 40.0547 47.1909C40.2743 47.2426 40.5041 47.2217 40.7116 47.1311C42.2913 46.41 43.7829 45.4987 45.1554 44.4162C45.3348 44.2751 45.4667 44.0793 45.5322 43.8565C45.5977 43.6337 45.5936 43.3953 45.5204 43.175L44.7797 40.8369C45.1662 40.4712 45.5526 40.0723 45.8531 39.7287L48.1287 40.4933C48.3713 40.5872 48.6386 40.5872 48.8813 40.4936C49.1239 40.3999 49.3256 40.2188 49.449 39.9836C50.4998 38.5444 51.3825 36.9822 52.0788 35.3294C52.1666 35.1153 52.1868 34.878 52.1367 34.6513C52.0867 34.4246 51.9688 34.2199 51.7997 34.0661L49.9964 32.4039C50.1539 31.872 50.2934 31.3401 50.4151 30.8082L52.7658 30.2985C52.9845 30.252 53.1837 30.1363 53.3356 29.9675C53.4876 29.7987 53.5849 29.5851 53.6138 29.3566C53.8427 27.5617 53.8427 25.7437 53.6138 23.9488C53.5849 23.7203 53.4876 23.5067 53.3356 23.3379C53.1837 23.1691 52.9845 23.0534 52.7658 23.0069L50.4151 22.4972C50.297 21.9653 50.1682 21.389 49.9964 20.9015L51.7997 19.2393C51.9688 19.0855 52.0867 18.8808 52.1367 18.6541C52.1868 18.4274 52.1666 18.1901 52.0788 17.976C51.3804 16.3451 50.4976 14.8052 49.449 13.3883C49.3141 13.188 49.119 13.0392 48.8938 12.9651C48.6687 12.891 48.4262 12.8956 48.2039 12.9783ZM47.6994 20.9679C47.9927 21.8459 48.2189 22.7462 48.3756 23.6607C48.4139 23.8777 48.514 24.078 48.6631 24.236C48.8123 24.3939 49.0037 24.5023 49.2129 24.5472L51.4884 25.0348C51.4884 25.6332 51.5636 26.143 51.5636 26.6859C51.5636 27.2289 51.5636 27.7387 51.4884 28.3371L49.2129 28.8247C49.0037 28.8696 48.8123 28.978 48.6631 29.1359C48.514 29.2939 48.4139 29.4942 48.3756 29.7112C48.2098 30.6269 47.9729 31.5274 47.6672 32.4039C47.5964 32.6117 47.5872 32.8365 47.6407 33.0496C47.6943 33.2628 47.8081 33.4547 47.9677 33.6007L49.7066 35.2075C49.2519 36.198 48.7169 37.147 48.1073 38.0444L45.9068 37.2908C45.7039 37.224 45.4864 37.221 45.2819 37.2822C45.0774 37.3434 44.8951 37.466 44.7583 37.6344C44.1706 38.3408 43.5319 39.0002 42.8476 39.6068C42.6845 39.7481 42.5658 39.9363 42.5065 40.1474C42.4473 40.3586 42.4502 40.5831 42.5149 40.7925L43.2448 43.0642C42.3756 43.6936 41.4563 44.246 40.4969 44.7154L38.9405 42.9202C38.799 42.7554 38.6131 42.6379 38.4067 42.5826C38.2002 42.5274 37.9825 42.5368 37.7812 42.6099C36.9322 42.9255 36.0599 43.1701 35.1729 43.3413C34.9627 43.3807 34.7687 43.4841 34.6157 43.6381C34.4627 43.7921 34.3577 43.9897 34.3142 44.2056L33.8419 46.5549C32.7712 46.6672 31.6923 46.6672 30.6217 46.5549L30.1494 44.2056C30.1059 43.9897 30.0009 43.7921 29.8479 43.6381C29.6949 43.4841 29.5009 43.3807 29.2907 43.3413C28.4037 43.1701 27.5314 42.9255 26.6824 42.6099C26.4811 42.5368 26.2634 42.5274 26.0569 42.5826C25.8504 42.6379 25.6646 42.7554 25.5231 42.9202L23.9667 44.7154C23.0073 44.246 22.088 43.6936 21.2188 43.0642L21.9487 40.7925C22.0134 40.5831 22.0163 40.3586 21.9571 40.1474C21.8978 39.9363 21.7791 39.7481 21.6159 39.6068C20.9317 39.0002 20.293 38.3408 19.7053 37.6344C19.5685 37.466 19.3862 37.3434 19.1817 37.2822C18.9771 37.221 18.7596 37.224 18.5568 37.2908L16.3563 38.0444C15.7467 37.147 15.2116 36.198 14.757 35.2075L16.4959 33.6007C16.6555 33.4547 16.7693 33.2628 16.8228 33.0496C16.8764 32.8365 16.8672 32.6117 16.7964 32.4039C16.5212 31.5245 16.3131 30.6241 16.1738 29.7112C16.1356 29.4942 16.0355 29.2939 15.8863 29.1359C15.7372 28.978 15.5458 28.8696 15.3366 28.8247L13.061 28.3371C12.9537 27.7941 12.9537 27.2068 12.9537 26.6859C12.9537 26.1651 12.9537 25.6332 13.0288 25.0348L15.3044 24.5472C15.5136 24.5023 15.705 24.3939 15.8541 24.236C16.0033 24.078 16.1034 23.8777 16.1416 23.6607C16.3074 22.745 16.5443 21.8445 16.8501 20.9679C16.9208 20.7602 16.93 20.5354 16.8765 20.3223C16.823 20.1091 16.7091 19.9172 16.5495 19.7712L14.8106 18.1644C15.2653 17.1739 15.8003 16.2249 16.41 15.3275L18.6104 16.0811C18.8133 16.1479 19.0308 16.1509 19.2353 16.0897C19.4398 16.0285 19.6221 15.9059 19.759 15.7375C20.3466 15.0311 20.9853 14.3717 21.6696 13.765C21.8327 13.6238 21.9515 13.4356 22.0107 13.2245C22.07 13.0133 22.0671 12.7888 22.0024 12.5793L21.2725 10.3631C22.1417 9.73368 23.0609 9.18134 24.0203 8.71193L25.5768 10.5071C25.7183 10.6719 25.9041 10.7894 26.1106 10.8447C26.3171 10.8999 26.5348 10.8904 26.736 10.8174C27.5844 10.4942 28.4567 10.2422 29.3444 10.0639C29.5546 10.0244 29.7486 9.92103 29.9016 9.76705C30.0545 9.61307 30.1595 9.41546 30.2031 9.19952L30.6754 6.85026C31.746 6.73796 32.8249 6.73796 33.8955 6.85026L34.3678 9.19952C34.4114 9.41546 34.5164 9.61307 34.6694 9.76705C34.8223 9.92103 35.0163 10.0244 35.2266 10.0639C36.1136 10.235 36.9859 10.4796 37.8349 10.7952C38.0361 10.8683 38.2539 10.8778 38.4603 10.8225C38.6668 10.7673 38.8527 10.6497 38.9942 10.485L40.5506 8.68977C41.51 9.15917 42.4292 9.71152 43.2985 10.3409L42.5686 12.5572C42.5039 12.7666 42.5009 12.9912 42.5602 13.2023C42.6194 13.4134 42.7382 13.6016 42.9013 13.7429C43.5856 14.3496 44.2243 15.009 44.8119 15.7154C44.9488 15.8838 45.1311 16.0064 45.3356 16.0675C45.5401 16.1287 45.7576 16.1257 45.9605 16.0589L48.1609 15.3054C48.7706 16.2027 49.3056 17.1517 49.7603 18.1422L48.0214 19.749C47.8538 19.8941 47.7332 20.0886 47.6756 20.3064C47.6181 20.5243 47.6264 20.7551 47.6994 20.9679Z" fill="white"/>
<path d="M42.1392 16.5018C40.6257 14.9284 38.1461 14.6402 35.1514 15.6597C34.1559 16.0178 33.1932 16.4665 32.2747 17.0005C31.3562 16.4665 30.3935 16.0178 29.398 15.6597C26.4032 14.6402 23.9237 14.9284 22.4102 16.5018C20.8967 18.0753 20.5962 20.6239 21.5944 23.7155C21.9413 24.7432 22.376 25.737 22.8932 26.6852C22.376 27.6334 21.9413 28.6272 21.5944 29.6549C20.5962 32.7464 20.886 35.3061 22.4102 36.8685C22.9075 37.3549 23.4945 37.733 24.1362 37.9805C24.7779 38.228 25.4612 38.3397 26.1456 38.309C27.2428 38.2849 28.3294 38.083 29.3658 37.7107C30.3723 37.3544 31.3458 36.9057 32.2747 36.3699C33.1913 36.9229 34.1541 37.3902 35.1514 37.7661C36.1878 38.1384 37.2744 38.3403 38.3716 38.3644C39.0559 38.3951 39.7393 38.2834 40.381 38.0359C41.0227 37.7884 41.6097 37.4103 42.107 36.9239C43.6312 35.3615 43.921 32.8018 42.9227 29.7103C42.5892 28.6648 42.1653 27.6523 41.6561 26.6852C42.1919 25.7389 42.6445 24.7451 43.0086 23.7155C43.9532 20.6239 43.6634 18.0642 42.1392 16.5018ZM23.8915 18.0642C24.1966 17.7867 24.552 17.5744 24.937 17.4393C25.322 17.3043 25.7292 17.2493 26.1349 17.2775C27.0024 17.301 27.861 17.4655 28.6788 17.7651C29.1791 17.9414 29.6699 18.1448 30.1494 18.3745C27.8546 20.0786 25.8428 22.1555 24.1921 24.5244C23.9986 24.0277 23.8302 23.521 23.6876 23.0063C22.9147 20.8012 23.0221 18.995 23.9237 18.0642H23.8915ZM28.6788 35.6053C26.532 36.3477 24.7932 36.2369 23.8915 35.3061C22.9899 34.3753 22.8825 32.5691 23.6017 30.364C23.7847 29.8658 23.9925 29.3776 24.2243 28.9014C25.875 31.2703 27.8868 33.3472 30.1816 35.0513C29.7011 35.2622 29.2102 35.4471 28.711 35.6053H28.6788ZM28.4427 30.6078C27.2986 29.4119 26.2771 28.0974 25.3943 26.6852C27.1833 23.8485 29.5268 21.4292 32.2747 19.5823C35.0225 21.4292 37.3661 23.8485 39.1551 26.6852C37.3661 29.5219 35.0225 31.9412 32.2747 33.788C30.9051 32.8662 29.6317 31.8005 28.4749 30.6078H28.4427ZM40.5935 35.3061C39.6918 36.2369 37.9422 36.3477 35.8062 35.6053C35.335 35.4262 34.8729 35.2228 34.4215 34.9959C36.6929 33.3039 38.6861 31.2462 40.3251 28.9014C40.5476 29.3963 40.7447 29.9031 40.9155 30.4194C41.6347 32.5691 41.5273 34.3753 40.6257 35.3061H40.5935ZM40.8833 23.0063C40.7125 23.5227 40.5154 24.0295 40.2929 24.5244C38.6681 22.1625 36.6856 20.0859 34.4215 18.3745C34.8844 18.1654 35.3573 17.9804 35.8384 17.8205C36.6562 17.5209 37.5148 17.3564 38.3823 17.3329C38.788 17.3047 39.1951 17.3597 39.5802 17.4947C39.9652 17.6298 40.3205 17.8422 40.6257 18.1197C41.5273 18.995 41.6347 20.8012 40.9155 23.0063H40.8833Z" fill="white"/>
<path d="M32.2747 25.0249C31.9563 25.0249 31.645 25.1225 31.3802 25.3053C31.1154 25.4881 30.909 25.7479 30.7872 26.0519C30.6653 26.3559 30.6334 26.6903 30.6956 27.013C30.7577 27.3358 30.911 27.6322 31.1362 27.8648C31.3614 28.0975 31.6483 28.2559 31.9606 28.3201C32.2729 28.3843 32.5967 28.3514 32.8909 28.2255C33.1851 28.0995 33.4366 27.8863 33.6135 27.6127C33.7904 27.3392 33.8848 27.0175 33.8848 26.6885C33.8848 26.2473 33.7152 25.8241 33.4132 25.5122C33.1113 25.2002 32.7017 25.0249 32.2747 25.0249ZM32.2747 27.243C32.1686 27.243 32.0648 27.2105 31.9765 27.1496C31.8883 27.0886 31.8195 27.002 31.7789 26.9007C31.7383 26.7994 31.7276 26.6879 31.7483 26.5803C31.769 26.4727 31.8202 26.3739 31.8952 26.2964C31.9703 26.2188 32.0659 26.166 32.17 26.1446C32.2741 26.1232 32.382 26.1342 32.4801 26.1762C32.5782 26.2181 32.662 26.2892 32.721 26.3804C32.7799 26.4716 32.8114 26.5788 32.8114 26.6885C32.8114 26.8356 32.7549 26.9766 32.6542 27.0806C32.5536 27.1846 32.4171 27.243 32.2747 27.243Z" fill="white"/>
<path d="M1.14615 4.52417H3.29293V3.41565H4.36632V1.19861H3.29293V0.0900879H1.14615V1.19861H0.0727539V3.41565H1.14615V4.52417Z" fill="white"/>
<path d="M63.403 62.1426H61.2562V63.2511H60.1828V65.4681H61.2562V66.5767H63.403V65.4681H64.4764V63.2511H63.403V62.1426Z" fill="white"/>
<path d="M60.1829 48.8505V47.7417H61.2563V45.5241H60.1829V44.4153H58.0361V45.5241H56.9627V47.7417H58.0361V48.8505H60.1829Z" fill="white"/>
<path d="M9.73342 64.3665V63.2579H10.8068V61.0409H9.73342V59.9324H7.58664V61.0409H6.51324V63.2579H7.58664V64.3665H9.73342Z" fill="white"/>
<path d="M4.36648 45.5242V44.4156H5.43987V42.1986H4.36648V41.0901H2.21969V42.1986H1.1463V44.4156H2.21969V45.5242H4.36648Z" fill="white"/>
<path d="M63.403 2.30835H61.2562V3.41687H60.1828V5.63391H61.2562V6.74243H63.403V5.63391H64.4764V3.41687H63.403V2.30835Z" fill="white"/>
</svg>
