<svg width="65" height="78" viewBox="0 0 65 78" fill="none" xmlns="http://www.w3.org/2000/svg">
<path d="M26.1728 77.102C25.9082 77.1028 25.6492 77.0244 25.4281 76.8766C25.2317 76.749 25.0702 76.573 24.9586 76.365C24.847 76.157 24.7889 75.9236 24.7897 75.6867V61.1642C24.7897 60.9251 24.8832 60.6958 25.0494 60.5267C25.2157 60.3577 25.4412 60.2627 25.6763 60.2627C25.9115 60.2627 26.137 60.3577 26.3032 60.5267C26.4695 60.6958 26.5629 60.9251 26.5629 61.1642V75.0376L33.9393 71.558C34.2796 71.3974 34.6502 71.3142 35.0253 71.3142C35.4005 71.3142 35.7711 71.3974 36.1114 71.558L43.4878 75.0376V61.678C43.4878 61.4389 43.5812 61.2096 43.7474 61.0406C43.9137 60.8715 44.1392 60.7765 44.3744 60.7765C44.6095 60.7765 44.835 60.8715 45.0013 61.0406C45.1675 61.2096 45.2609 61.4389 45.2609 61.678V75.6867C45.2603 75.924 45.2009 76.1574 45.0883 76.3653C44.9757 76.5732 44.8135 76.7489 44.6166 76.8764C44.4198 77.0039 44.1945 77.079 43.9616 77.0947C43.7287 77.1105 43.4956 77.0665 43.2839 76.9668L35.3046 73.2167C35.202 73.1676 35.09 73.1422 34.9766 73.1422C34.8632 73.1422 34.7512 73.1676 34.6485 73.2167L26.6693 76.9668C26.5139 77.0438 26.3453 77.0897 26.1728 77.102Z" fill="white"/>
<path d="M35.0475 69.5922C34.8124 69.5922 34.5869 69.4972 34.4206 69.328C34.2544 69.1589 34.1609 68.9295 34.1609 68.6903V65.1368C34.1609 64.8976 34.2544 64.6682 34.4206 64.499C34.5869 64.3299 34.8124 64.2349 35.0475 64.2349C35.2827 64.2349 35.5082 64.3299 35.6744 64.499C35.8407 64.6682 35.9341 64.8976 35.9341 65.1368V68.6723C35.9364 68.7922 35.9153 68.9114 35.8718 69.0229C35.8283 69.1345 35.7633 69.236 35.6808 69.3217C35.5982 69.4074 35.4997 69.4754 35.3909 69.5219C35.2822 69.5683 35.1655 69.5922 35.0475 69.5922Z" fill="white"/>
<path d="M35.2602 66.0526C32.24 66.0539 29.3007 65.0608 26.8819 63.2219L22.3426 59.7603C21.4898 59.1104 20.5568 58.577 19.5676 58.1737L14.3102 56.0372C11.4552 54.8747 9.05716 52.787 7.48787 50.0977C5.91858 47.4084 5.26573 44.2679 5.63053 41.1629L6.30433 35.4385C6.31831 35.3202 6.35507 35.2057 6.41253 35.1018C6.47 34.9979 6.54703 34.9065 6.63924 34.8328C6.73144 34.7591 6.83702 34.7047 6.94993 34.6725C7.06284 34.6403 7.18088 34.631 7.29731 34.6452C7.41373 34.6595 7.52627 34.6968 7.62849 34.7553C7.73071 34.8137 7.82061 34.892 7.89306 34.9858C7.9655 35.0795 8.01908 35.1869 8.05073 35.3017C8.08237 35.4165 8.09147 35.5365 8.0775 35.6549L7.4037 41.3792C7.08791 44.0847 7.65757 46.8206 9.02459 49.1639C10.3916 51.5071 12.4798 53.3271 14.9663 54.3424L20.2237 56.4789C21.3606 56.9353 22.4337 57.5414 23.4154 58.2819L27.9636 61.7796C30.1084 63.4111 32.7226 64.2777 35.4011 64.2451C38.0795 64.2125 40.6726 63.2825 42.7784 61.5993L47.2113 57.9934C48.1695 57.2201 49.225 56.5804 50.3498 56.0913L55.5718 53.8556C58.0357 52.7823 60.0826 50.9127 61.3953 48.5364C62.7081 46.1602 63.2134 43.41 62.8329 40.7122L62.0439 35.0058C61.8842 33.7731 61.8842 32.5245 62.0439 31.2918L62.6645 25.5674C62.9824 22.8628 62.4147 20.127 61.0492 17.7836C59.6836 15.4402 57.5965 13.6198 55.1108 12.6042L49.8445 10.4677C48.7075 10.0114 47.6345 9.40522 46.6528 8.66479L42.1223 5.20314C39.9761 3.5709 37.3604 2.70391 34.6804 2.73651C32.0004 2.7691 29.4059 3.69946 27.2986 5.38343L22.8657 8.98932C21.9022 9.75953 20.8442 10.3989 19.7183 10.8914L14.4964 13.1C13.6596 13.4695 12.8657 13.9321 12.1292 14.4793C11.9376 14.6216 11.6982 14.6806 11.4638 14.6434C11.2293 14.6062 11.019 14.4758 10.8791 14.281C10.7392 14.0861 10.6812 13.8427 10.7177 13.6044C10.7543 13.366 10.8825 13.1521 11.0742 13.0099C11.9261 12.3711 12.8485 11.8356 13.8226 11.4143L19.0357 9.15159C20.0171 8.72462 20.9384 8.16683 21.7752 7.49288L26.2081 3.88699C28.6259 1.95639 31.602 0.889822 34.6759 0.852341C37.7499 0.81486 40.7503 1.80855 43.2128 3.67965L47.7521 7.1413C48.6011 7.8042 49.5309 8.35264 50.5183 8.77297L55.7846 10.9095C58.6319 12.0803 61.0215 14.1707 62.5852 16.8586C64.1488 19.5465 64.7998 22.6826 64.4376 25.7838L63.755 31.5081C63.6131 32.5821 63.6131 33.6705 63.755 34.7444L64.5617 40.4507C64.996 43.5465 64.415 46.7015 62.9086 49.4277C61.4021 52.1539 59.0541 54.2994 56.2279 55.5324L51.0147 57.7951C50.0333 58.222 49.112 58.7798 48.2752 59.4538L43.8423 63.0597C41.3886 65.0002 38.3686 66.0534 35.2602 66.0526Z" fill="white"/>
<path d="M6.87185 30.9921C6.65538 30.9939 6.44572 30.9152 6.2824 30.7707C6.11908 30.6262 6.01339 30.4259 5.98526 30.2077L5.46217 26.4932C5.13542 24.203 5.36368 21.8663 6.12711 19.6863C6.20706 19.4579 6.37294 19.2712 6.58826 19.1672C6.80357 19.0632 7.05069 19.0505 7.27525 19.1318C7.4998 19.2131 7.68341 19.3818 7.78566 19.6007C7.88792 19.8197 7.90045 20.071 7.8205 20.2993C7.15377 22.1989 6.95291 24.2353 7.23535 26.2317L7.7673 29.9462C7.78608 30.0655 7.78112 30.1873 7.7527 30.3046C7.72429 30.4218 7.673 30.532 7.60188 30.6288C7.53077 30.7255 7.44128 30.8066 7.33872 30.8675C7.23615 30.9284 7.12261 30.9677 7.00484 30.983L6.87185 30.9921Z" fill="white"/>
<path d="M53.0716 47.127C51.4615 49.3262 49.4766 51.2138 47.2113 52.7002L53.0716 47.127Z" fill="white"/>
<path d="M47.2114 53.6145C47.0125 53.6273 46.8151 53.5715 46.6511 53.4562C46.4872 53.3408 46.3662 53.1727 46.3078 52.9788C46.2494 52.7849 46.257 52.5767 46.3292 52.3878C46.4015 52.1988 46.5342 52.0401 46.7061 51.9373C48.8822 50.512 50.7891 48.7008 52.3359 46.5901C52.4052 46.4921 52.4931 46.4093 52.5945 46.3465C52.6958 46.2837 52.8086 46.2422 52.926 46.2245C53.0434 46.2069 53.1631 46.2134 53.278 46.2436C53.3929 46.2739 53.5006 46.3273 53.5948 46.4007C53.6905 46.4719 53.7712 46.5619 53.8321 46.6653C53.893 46.7687 53.9329 46.8835 53.9494 47.0029C53.966 47.1222 53.9588 47.2438 53.9283 47.3603C53.8979 47.4768 53.8448 47.5859 53.7721 47.6812C52.101 49.968 50.0376 51.9291 47.6813 53.4703C47.5412 53.5624 47.3783 53.6124 47.2114 53.6145Z" fill="white"/>
<path d="M35.0473 57.2699C29.9688 57.2689 25.0289 55.5852 20.9757 52.4737C16.9225 49.3623 13.9769 44.9925 12.5849 40.0263C11.193 35.0601 11.4305 29.768 13.2615 24.9513C15.0925 20.1347 18.4172 16.0559 22.7322 13.3327C27.0472 10.6095 32.1175 9.39024 37.175 9.85956C42.2325 10.3289 47.0019 12.4612 50.7609 15.9336C54.5198 19.4061 57.0635 24.0294 58.0068 29.1035C58.9501 34.1776 58.2415 39.4261 55.9885 44.054C55.9355 44.1612 55.8623 44.2566 55.773 44.335C55.6837 44.4134 55.5802 44.4731 55.4682 44.5108C55.3563 44.5485 55.2381 44.5633 55.1205 44.5546C55.0028 44.5458 54.8881 44.5136 54.7827 44.4597C54.6773 44.4058 54.5834 44.3314 54.5064 44.2406C54.4293 44.1499 54.3705 44.0446 54.3335 43.9307C54.2965 43.8169 54.2818 43.6967 54.2904 43.5771C54.2991 43.4575 54.3308 43.3408 54.3837 43.2337C55.8695 40.2015 56.6376 36.8582 56.6268 33.4705C56.6251 28.8009 55.1583 24.2536 52.4399 20.49C49.7214 16.7264 45.893 13.9427 41.5115 12.5439C37.1299 11.1452 32.4238 11.2042 28.0775 12.7124C23.7312 14.2206 19.9715 17.0994 17.3451 20.93C14.7188 24.7606 13.3627 29.3433 13.4742 34.0116C13.5858 38.6798 15.159 43.1902 17.9652 46.8866C20.7714 50.583 24.6642 53.2728 29.0774 54.5646C33.4905 55.8565 38.1939 55.6831 42.5035 54.0696C42.6141 54.0282 42.7317 54.0093 42.8495 54.0141C42.9672 54.0188 43.0829 54.0471 43.19 54.0973C43.297 54.1476 43.3932 54.2187 43.4732 54.3068C43.5532 54.3948 43.6153 54.498 43.6561 54.6105C43.6968 54.723 43.7154 54.8425 43.7107 54.9623C43.706 55.082 43.6782 55.1997 43.6288 55.3085C43.5794 55.4173 43.5094 55.5152 43.4228 55.5965C43.3362 55.6778 43.2347 55.741 43.1241 55.7824C40.5403 56.7628 37.8052 57.2665 35.0473 57.2699Z" fill="white"/>
<path d="M31.6342 43.9394C31.4003 43.9396 31.1686 43.8927 30.9525 43.8014C30.7364 43.7101 30.5402 43.5763 30.3753 43.4075L23.655 36.5831C22.9712 35.8342 22.5995 34.8449 22.6182 33.8232C22.6368 32.8015 23.0442 31.8269 23.7549 31.1043C24.4655 30.3817 25.4239 29.9674 26.4288 29.9484C27.4336 29.9295 28.4065 30.3074 29.1429 31.0027L31.8027 33.7073L41.1118 24.1332C41.458 23.7457 41.8779 23.4337 42.3461 23.2161C42.8144 22.9985 43.3212 22.8799 43.8359 22.8673C44.3506 22.8548 44.8624 22.9486 45.3404 23.1431C45.8183 23.3376 46.2525 23.6288 46.6165 23.999C46.9806 24.3691 47.2669 24.8106 47.4582 25.2966C47.6495 25.7826 47.7418 26.3031 47.7294 26.8264C47.7171 27.3498 47.6004 27.8651 47.3864 28.3412C47.1724 28.8174 46.8656 29.2444 46.4845 29.5964L42.7697 33.3647C42.6836 33.4493 42.5819 33.5159 42.4704 33.5606C42.3589 33.6053 42.2399 33.6272 42.1201 33.6251C42.0004 33.623 41.8821 33.5969 41.7723 33.5484C41.6624 33.4998 41.563 33.4298 41.4797 33.3422C41.3965 33.2545 41.331 33.1511 41.2871 33.0378C41.2432 32.9245 41.2216 32.8034 41.2237 32.6816C41.2257 32.5598 41.2513 32.4396 41.2991 32.3279C41.3468 32.2162 41.4157 32.1151 41.5019 32.0305L45.2167 28.2621C45.5865 27.878 45.7936 27.3618 45.7936 26.8242C45.7936 26.2866 45.5865 25.7705 45.2167 25.3863C44.8332 25.018 44.3257 24.8128 43.7982 24.8128C43.2706 24.8128 42.7631 25.018 42.3796 25.3863L32.379 35.6365C32.2062 35.8019 31.9779 35.8941 31.7406 35.8941C31.5033 35.8941 31.275 35.8019 31.1023 35.6365L27.8485 32.328C27.6557 32.1306 27.4264 31.974 27.1738 31.8671C26.9212 31.7602 26.6504 31.7052 26.3768 31.7052C26.1032 31.7052 25.8323 31.7602 25.5798 31.8671C25.3272 31.974 25.0979 32.1306 24.9051 32.328C24.711 32.524 24.557 32.7572 24.4519 33.014C24.3468 33.2708 24.2927 33.5463 24.2927 33.8245C24.2927 34.1026 24.3468 34.3781 24.4519 34.6349C24.557 34.8917 24.711 35.1249 24.9051 35.321L31.6342 42.1184L38.8599 34.735C38.9425 34.6491 39.0411 34.5809 39.1499 34.5343C39.2588 34.4877 39.3757 34.4637 39.4938 34.4637C39.6119 34.4637 39.7288 34.4877 39.8377 34.5343C39.9465 34.5809 40.0451 34.6491 40.1277 34.735C40.2121 34.8189 40.2792 34.9192 40.325 35.0299C40.3709 35.1406 40.3944 35.2595 40.3944 35.3796C40.3944 35.4997 40.3709 35.6185 40.325 35.7292C40.2792 35.8399 40.2121 35.9402 40.1277 36.0241L32.8666 43.3895C32.5428 43.7303 32.1001 43.9279 31.6342 43.9394Z" fill="white"/>
<path d="M9.46946 24.2983C9.30692 24.2976 9.14681 24.2581 9.00205 24.1829C8.85729 24.1078 8.73192 23.999 8.63607 23.8655L5.80786 19.9794L1.37492 18.2573C1.20751 18.1872 1.06105 18.0738 0.950087 17.9283C0.839129 17.7828 0.767541 17.6103 0.742441 17.428C0.71734 17.2456 0.7396 17.0598 0.807008 16.8889C0.874417 16.718 0.984626 16.5681 1.12668 16.4539L4.94787 13.5867L6.64125 9.07842C6.70591 8.90139 6.81688 8.74567 6.96219 8.62809C7.1075 8.5105 7.28162 8.4355 7.46577 8.41119C7.65118 8.38626 7.83977 8.41147 8.01255 8.48429C8.18532 8.5571 8.33617 8.67495 8.44988 8.82595L11.2692 12.7121L15.7022 14.4342C15.869 14.5053 16.0146 14.6194 16.1247 14.7653C16.2347 14.9113 16.3053 15.0839 16.3295 15.2662C16.3537 15.4485 16.3306 15.634 16.2626 15.8044C16.1945 15.9748 16.0839 16.1241 15.9415 16.2376L12.1292 19.1048L10.4358 23.6131C10.3669 23.7899 10.2538 23.9453 10.1076 24.0639C9.9614 24.1826 9.78726 24.2603 9.60244 24.2893L9.46946 24.2983ZM3.29882 17.049L6.65898 18.3564C6.84516 18.4306 7.00771 18.5553 7.12887 18.7171L9.25668 21.6475L10.5334 18.2392C10.604 18.0536 10.7237 17.8913 10.8791 17.7704L13.7783 15.5974L10.427 14.29C10.2465 14.2188 10.0896 14.0968 9.97481 13.9383L7.82927 10.9989L6.55259 14.4072C6.47825 14.6007 6.35238 14.7693 6.18909 14.8941L3.29882 17.049Z" fill="white"/>
<path d="M59.6679 71.0905C59.5506 71.09 59.4345 71.0659 59.3265 71.0194C59.2184 70.973 59.1205 70.9052 59.0384 70.82L54.3307 66.0411C54.1625 65.8737 54.0667 65.6452 54.0642 65.4059C54.0617 65.1667 54.1528 64.9362 54.3174 64.7652C54.482 64.5942 54.7066 64.4967 54.9419 64.4942C55.1771 64.4917 55.4038 64.5843 55.5719 64.7517L60.2707 69.5306C60.4028 69.6561 60.494 69.8196 60.5321 69.9993C60.5702 70.179 60.5534 70.3662 60.484 70.5359C60.4146 70.7056 60.2958 70.8497 60.1436 70.9488C59.9914 71.0479 59.813 71.0974 59.6324 71.0905H59.6679Z" fill="white"/>
<path d="M52.6992 64.0057C52.5804 64.0064 52.4627 63.9828 52.353 63.9363C52.2433 63.8898 52.144 63.8214 52.0608 63.735L51.4491 63.1125C51.3646 63.0285 51.2975 62.9281 51.2517 62.8173C51.2059 62.7065 51.1823 62.5876 51.1823 62.4674C51.1823 62.3472 51.2059 62.2282 51.2517 62.1174C51.2975 62.0066 51.3646 61.9063 51.4491 61.8223C51.5316 61.7363 51.6302 61.668 51.7391 61.6214C51.848 61.5748 51.9649 61.5508 52.083 61.5508C52.2011 61.5508 52.318 61.5748 52.4269 61.6214C52.5357 61.668 52.6343 61.7363 52.7169 61.8223L53.3375 62.4448C53.4696 62.5704 53.5608 62.734 53.5989 62.9138C53.637 63.0936 53.6202 63.281 53.5508 63.4508C53.4813 63.6206 53.3625 63.7647 53.2103 63.8639C53.0581 63.9631 52.8798 64.0126 52.6992 64.0057Z" fill="white"/>
<path d="M11.9609 71.0896C11.7811 71.0945 11.604 71.0437 11.4533 70.9439C11.3025 70.844 11.1852 70.6999 11.1169 70.5307C11.0486 70.3614 11.0325 70.1751 11.0708 69.9963C11.1092 69.8176 11.2001 69.6549 11.3315 69.53L12.2181 68.6284C12.3827 68.4575 12.6073 68.36 12.8426 68.3575C13.0778 68.3549 13.3045 68.4475 13.4726 68.6149C13.6407 68.7823 13.7366 69.0107 13.739 69.2499C13.7415 69.4892 13.6505 69.7196 13.4859 69.8906L12.5993 70.7921C12.5184 70.8833 12.4201 70.9567 12.3103 71.0078C12.2006 71.059 12.0817 71.0868 11.9609 71.0896Z" fill="white"/>
<path d="M15.0195 67.9896C14.9007 67.9903 14.783 67.9667 14.6734 67.9202C14.5637 67.8738 14.4643 67.8054 14.3812 67.7191C14.2967 67.6351 14.2297 67.5348 14.1838 67.4241C14.138 67.3134 14.1144 67.1944 14.1144 67.0743C14.1144 66.9542 14.138 66.8353 14.1838 66.7246C14.2297 66.6139 14.2967 66.5136 14.3812 66.4296L18.9116 61.8217C19.0797 61.6508 19.3078 61.5547 19.5455 61.5547C19.7833 61.5547 20.0113 61.6508 20.1794 61.8217C20.3475 61.9927 20.442 62.2247 20.442 62.4665C20.442 62.7083 20.3475 62.9402 20.1794 63.1112L15.6756 67.7191C15.5904 67.8076 15.4881 67.8773 15.3753 67.9238C15.2624 67.9704 15.1413 67.9927 15.0195 67.9896Z" fill="white"/>
</svg>
