<svg width="67" height="71" viewBox="0 0 67 71" fill="none" xmlns="http://www.w3.org/2000/svg">
<path d="M27.5002 70.5264C27.8243 70.7205 28.2275 70.7292 28.561 70.5459L38.574 65.0346C38.9182 64.8451 39.1323 64.4808 39.1323 64.0855V55.2412L60.4261 32.3671H60.7889C63.6737 32.3671 66.0209 30.0054 66.0209 27.0046C66.0209 24.1019 63.6737 21.7403 60.7889 21.7403H53.8948V17.5348C53.8948 17.0476 53.5718 16.6211 53.1061 16.4923L49.2201 15.4181C48.9759 14.6511 48.6686 13.9026 48.3018 13.1816L50.2912 9.65971C50.5299 9.2369 50.4595 8.70535 50.1187 8.36118L46.0125 4.20959C45.6715 3.8649 45.1438 3.79153 44.7239 4.03276L41.213 6.04337C40.4898 5.6765 39.7495 5.36718 39.0012 5.11909L37.9353 1.20608C37.8073 0.736291 37.384 0.411133 36.9013 0.411133H31.0901C30.6074 0.411133 30.1842 0.736291 30.0562 1.20608L28.9903 5.11909C28.2422 5.36665 27.5022 5.67598 26.7792 6.04284L23.2796 4.03328C22.8597 3.79257 22.3318 3.86437 21.9899 4.20959L17.8835 8.36118C17.5427 8.70535 17.4723 9.2369 17.711 9.65971L19.7003 13.1816C19.3362 13.8973 19.0271 14.6458 18.7763 15.4176L14.8955 16.4923C14.4301 16.6211 14.1074 17.0481 14.1074 17.5348V21.7403H5.29438C2.41533 21.7403 0.072876 24.1019 0.072876 27.1022C0.072876 30.0054 2.41532 32.3671 5.29438 32.3671H5.66005L26.9751 55.2412V69.5968C26.9751 69.9785 27.1745 70.3316 27.5002 70.5264ZM16.2517 18.3588L19.9129 17.3448C20.2744 17.2445 20.5576 16.9616 20.6602 16.5979C20.9471 15.5802 21.3505 14.6052 21.859 13.6999C22.0451 13.369 22.0446 12.963 21.8577 12.6321L19.9783 9.305L22.9299 6.32102L26.2283 8.21497C26.5521 8.40025 26.9484 8.40447 27.2753 8.22288C28.2111 7.704 29.1822 7.29914 30.1611 7.01831C30.5218 6.91486 30.8024 6.62929 30.9019 6.26453L31.9076 2.57322H36.0839L37.0896 6.26453C37.189 6.62927 37.4696 6.91484 37.8303 7.01831C38.8093 7.29914 39.7804 7.704 40.7167 8.22288C41.0426 8.40394 41.4386 8.40077 41.7624 8.21549L45.0718 6.31995L48.0239 9.30499L46.1445 12.6321C45.9576 12.963 45.9571 13.369 46.1434 13.7005C46.6567 14.6142 47.0556 15.586 47.3286 16.5884C47.4289 16.9563 47.7142 17.244 48.0791 17.3448L51.7505 18.3593V21.7403H44.7815C44.8312 21.3175 44.8566 20.8913 44.8566 20.4644C44.8566 14.4263 39.9846 9.5135 33.9959 9.5135C28.0129 9.5135 23.1456 14.4263 23.1456 20.4644C23.1456 20.8913 23.171 21.3175 23.2207 21.7403H16.2517V18.3588ZM24.7538 20.4644C24.7538 15.3204 28.8998 11.1351 33.9959 11.1351C39.0977 11.1351 43.2484 15.3204 43.2484 20.4644C43.2484 20.8922 43.2115 21.3181 43.1531 21.7403H24.8491C24.7907 21.3181 24.7538 20.8922 24.7538 20.4644ZM2.21719 27.0046C2.21719 25.2938 3.59769 23.9023 5.29439 23.9023C17.3052 23.9023 49.6623 23.9023 60.7889 23.9023C62.4914 23.9023 63.8766 25.2938 63.8766 27.1022C63.8766 28.813 62.4914 30.205 60.7889 30.205H5.29438C3.59768 30.205 2.21719 28.813 2.21719 27.0046ZM8.60611 32.3713H57.4814L37.595 53.7331H33.4957C32.9036 53.7331 32.4235 54.2172 32.4235 54.8142C32.4235 55.4112 32.9036 55.8952 33.4957 55.8952H36.988V63.4441L29.1194 67.7752V54.8131C29.1194 54.5381 29.0154 54.2731 28.8286 54.0731L8.60611 32.3713Z" fill="white"/>
</svg>
