<svg width="67" height="70" viewBox="0 0 67 70" fill="none" xmlns="http://www.w3.org/2000/svg">
<path d="M66.1396 19.8453L64.1909 16.7846V1.5293C64.1909 0.914497 63.7155 0.415527 63.1273 0.415527H47.1721C46.5839 0.415527 46.1084 0.914497 46.1084 1.5293V16.7846L39.905 26.5279C39.6732 26.8921 39.6657 27.3643 39.888 27.7352L45.2064 36.6454C45.4011 36.9717 45.7414 37.17 46.1084 37.17H47.1721V52.7628C47.1721 53.186 47.2551 53.5869 47.3933 53.9601L3.76552 44.9875C3.19007 44.8695 2.63057 45.2615 2.51676 45.8663C2.40401 46.47 2.77949 47.0547 3.356 47.1739L30.4511 52.7472C29.9862 53.1548 29.5959 53.6649 29.3129 54.2585L24.9465 63.4037C24.9423 63.4137 24.9444 63.4249 24.9402 63.4338C24.8763 63.5764 24.8349 63.7323 24.8349 63.9005V68.3555C24.8349 68.9715 25.3103 69.4693 25.8985 69.4693H40.79C41.3782 69.4693 41.8537 68.9715 41.8537 68.3555V63.9005C41.8537 63.7278 41.8154 63.5563 41.742 63.4026L37.3756 54.2574C37.3586 54.2229 37.3373 54.1928 37.3203 54.1583L62.9241 59.4242C62.9911 59.4387 63.0613 59.4454 63.1283 59.4454C63.6272 59.4454 64.0718 59.0778 64.1707 58.5455C64.2835 57.9418 63.908 57.3571 63.3315 57.2379L52.6788 55.0471C53.218 54.449 53.5542 53.6482 53.5542 52.7628V43.6477C53.8882 43.7724 54.2434 43.8526 54.6178 43.8526C55.4379 43.8526 56.1793 43.5173 56.7452 42.9838C57.3111 43.5185 58.0525 43.8526 58.8726 43.8526C59.6926 43.8526 60.434 43.5173 60.9999 42.9838C61.5658 43.5185 62.3072 43.8526 63.1273 43.8526C64.8866 43.8526 66.3183 42.3535 66.3183 40.5113V34.9424V33.8287V20.4634C66.3183 20.244 66.2555 20.0279 66.1396 19.8453ZM39.7263 64.1633V67.2418H26.9622V65.0142H32.2806C32.8688 65.0142 33.3443 64.5164 33.3443 63.9005C33.3443 63.2845 32.8688 62.7867 32.2806 62.7867H27.6196L31.2169 55.2531C31.6222 54.4045 32.437 53.8765 33.3443 53.8765C34.2516 53.8765 35.0664 54.4045 35.4716 55.2531L39.7263 64.1633ZM42.0558 27.1661L48.0571 17.7402C48.173 17.5576 48.2358 17.3415 48.2358 17.1221V7.09815H54.6178C55.2061 7.09815 55.6815 6.59918 55.6815 5.98438C55.6815 5.36958 55.2061 4.87061 54.6178 4.87061H48.2358V2.64307H62.0636V17.1221C62.0636 17.3415 62.1263 17.5576 62.2423 17.7402L64.1909 20.8009V30.6934C63.8569 30.5675 63.5017 30.4873 63.1273 30.4873C62.3072 30.4873 61.5658 30.8226 60.9999 31.3561C60.434 30.8215 59.6926 30.4873 58.8726 30.4873C58.3162 30.4873 57.8004 30.65 57.3451 30.9139C56.8367 29.8904 55.9442 29.0896 54.838 28.7588L49.5909 27.1895C49.0303 27.0202 48.4379 27.3621 48.2762 27.9546C48.1156 28.546 48.4421 29.1631 49.008 29.3312L54.2551 30.9005C55.0944 31.1523 55.6815 31.9664 55.6815 32.8819C55.6815 34.018 54.7987 34.9424 53.7127 34.9424H46.6977L42.0558 27.1661ZM51.4268 37.17V40.5113V52.7628C51.4268 53.3776 50.9503 53.8765 50.3631 53.8765C49.776 53.8765 49.2994 53.3776 49.2994 52.7628V37.17H51.4268ZM54.6178 41.625C54.0307 41.625 53.5542 41.1261 53.5542 40.5113V37.17H53.7127C54.4296 37.17 55.0944 36.9595 55.6815 36.6186V40.5113C55.6815 41.1261 55.205 41.625 54.6178 41.625ZM58.8726 41.625C58.2854 41.625 57.8089 41.1261 57.8089 40.5113V33.8287C57.8089 33.215 58.2854 32.7149 58.8726 32.7149C59.4597 32.7149 59.9362 33.215 59.9362 33.8287V40.5113C59.9362 41.1261 59.4597 41.625 58.8726 41.625ZM64.1909 40.5113C64.1909 41.1261 63.7144 41.625 63.1273 41.625C62.5401 41.625 62.0636 41.1261 62.0636 40.5113V33.8287C62.0636 33.215 62.5401 32.7149 63.1273 32.7149C63.7144 32.7149 64.1909 33.215 64.1909 33.8287V34.9424V40.5113Z" fill="white"/>
<path d="M58.8728 7.09691C59.4602 7.09691 59.9364 6.59821 59.9364 5.98303C59.9364 5.36784 59.4602 4.86914 58.8728 4.86914C58.2853 4.86914 57.8091 5.36784 57.8091 5.98303C57.8091 6.59821 58.2853 7.09691 58.8728 7.09691Z" fill="white"/>
<path d="M19.5166 16.0051C20.1041 16.0051 20.5803 15.5064 20.5803 14.8912C20.5803 14.276 20.1041 13.7773 19.5166 13.7773C18.9292 13.7773 18.4529 14.276 18.4529 14.8912C18.4529 15.5064 18.9292 16.0051 19.5166 16.0051Z" fill="white"/>
<path d="M4.62502 16.0051C5.21248 16.0051 5.68871 15.5064 5.68871 14.8912C5.68871 14.276 5.21248 13.7773 4.62502 13.7773C4.03757 13.7773 3.56134 14.276 3.56134 14.8912C3.56134 15.5064 4.03757 16.0051 4.62502 16.0051Z" fill="white"/>
<path d="M12.0708 27.1434C14.5077 27.1434 16.8499 26.3571 18.8443 24.8712C19.3229 24.5148 19.4346 23.8186 19.0932 23.3174C18.7528 22.8173 18.0901 22.7004 17.6094 23.0557C15.9787 24.2731 14.0631 24.9158 12.0708 24.9158C6.79178 24.9158 2.49771 20.4181 2.49771 14.8913C2.49771 9.36447 6.79178 4.86682 12.0708 4.86682C17.3498 4.86682 21.6439 9.36447 21.6439 14.8913C21.6439 16.9775 21.0301 18.9835 19.8675 20.6921C19.5272 21.1933 19.6378 21.8884 20.1164 22.2459C20.594 22.6035 21.2578 22.4843 21.6003 21.9853C23.0203 19.8957 23.7712 17.4431 23.7712 14.8913C23.7712 8.13591 18.522 2.63916 12.0708 2.63916C5.6196 2.63916 0.370361 8.13591 0.370361 14.8913C0.370361 21.6467 5.6196 27.1434 12.0708 27.1434Z" fill="white"/>
<path d="M11.0071 11.5535H13.1345C13.7216 11.5535 14.1982 12.0536 14.1982 12.6673C14.1982 13.2822 14.6736 13.7812 15.2619 13.7812C15.8501 13.7812 16.3255 13.2822 16.3255 12.6673C16.3255 10.8251 14.8938 9.32582 13.1345 9.32582V8.21198C13.1345 7.59714 12.659 7.09814 12.0708 7.09814C11.4826 7.09814 11.0071 7.59714 11.0071 8.21198V9.32582C9.24781 9.32582 7.8161 10.8251 7.8161 12.6673C7.8161 14.5096 9.24781 16.0089 11.0071 16.0089H13.1345C13.7216 16.0089 14.1982 16.509 14.1982 17.1227C14.1982 17.7364 13.7216 18.2365 13.1345 18.2365H11.0071C10.42 18.2365 9.94346 17.7364 9.94346 17.1227C9.94346 16.5079 9.46799 16.0089 8.87978 16.0089C8.29157 16.0089 7.8161 16.5079 7.8161 17.1227C7.8161 18.965 9.24781 20.4642 11.0071 20.4642V21.5781C11.0071 22.1929 11.4826 22.6919 12.0708 22.6919C12.659 22.6919 13.1345 22.1929 13.1345 21.5781V20.4642C14.8938 20.4642 16.3255 18.965 16.3255 17.1227C16.3255 15.2804 14.8938 13.7812 13.1345 13.7812H11.0071C10.42 13.7812 9.94346 13.2811 9.94346 12.6673C9.94346 12.0536 10.42 11.5535 11.0071 11.5535Z" fill="white"/>
<path d="M36.5353 65.0146C37.1228 65.0146 37.599 64.5159 37.599 63.9007C37.599 63.2856 37.1228 62.7869 36.5353 62.7869C35.9479 62.7869 35.4717 63.2856 35.4717 63.9007C35.4717 64.5159 35.9479 65.0146 36.5353 65.0146Z" fill="white"/>
<path d="M13.1345 30.4856C13.1345 29.8705 12.6591 29.3713 12.0709 29.3713C11.4827 29.3713 11.0072 29.8705 11.0072 30.4856V37.1711C11.0072 37.7873 11.4827 38.2854 12.0709 38.2854C12.6591 38.2854 13.1345 37.7873 13.1345 37.1711V30.4856Z" fill="white"/>
<path d="M12.0709 42.7363C12.6583 42.7363 13.1346 42.2376 13.1346 41.6224C13.1346 41.0072 12.6583 40.5085 12.0709 40.5085C11.4834 40.5085 11.0072 41.0072 11.0072 41.6224C11.0072 42.2376 11.4834 42.7363 12.0709 42.7363Z" fill="white"/>
<path d="M19.5165 30.4857C19.5165 29.8706 19.041 29.3713 18.4528 29.3713C17.8646 29.3713 17.3892 29.8706 17.3892 30.4857V34.943C17.3892 35.5582 17.8646 36.0574 18.4528 36.0574C19.041 36.0574 19.5165 35.5582 19.5165 34.943V30.4857Z" fill="white"/>
<path d="M18.4528 40.5073C19.0403 40.5073 19.5165 40.0086 19.5165 39.3934C19.5165 38.7782 19.0403 38.2795 18.4528 38.2795C17.8654 38.2795 17.3892 38.7782 17.3892 39.3934C17.3892 40.0086 17.8654 40.5073 18.4528 40.5073Z" fill="white"/>
<path d="M6.75244 30.4857C6.75244 29.8706 6.27699 29.3713 5.68878 29.3713C5.10058 29.3713 4.62512 29.8706 4.62512 30.4857V34.943C4.62512 35.5582 5.10058 36.0574 5.68878 36.0574C6.27699 36.0574 6.75244 35.5582 6.75244 34.943V30.4857Z" fill="white"/>
<path d="M5.68881 40.5073C6.27626 40.5073 6.75249 40.0086 6.75249 39.3934C6.75249 38.7782 6.27626 38.2795 5.68881 38.2795C5.10135 38.2795 4.62512 38.7782 4.62512 39.3934C4.62512 40.0086 5.10135 40.5073 5.68881 40.5073Z" fill="white"/>
</svg>
