<svg width="77" height="49" viewBox="0 0 77 49" fill="none" xmlns="http://www.w3.org/2000/svg">
<path d="M14.7681 5.72696C15.0259 5.72696 15.2837 5.62717 15.475 5.45831C15.658 5.28177 15.7661 5.04382 15.7661 4.80588C15.7661 4.56793 15.658 4.32231 15.475 4.15344C15.1091 3.81571 14.4272 3.81571 14.0613 4.15344C13.8783 4.32998 13.7702 4.56793 13.7702 4.80588C13.7702 5.04382 13.8783 5.28177 14.0613 5.45831C14.2525 5.62717 14.502 5.72696 14.7681 5.72696Z" fill="white"/>
<path d="M18.76 5.72696C19.0178 5.72696 19.2756 5.62717 19.4668 5.45831C19.6498 5.28177 19.7579 5.04382 19.7579 4.80588C19.7579 4.56793 19.6498 4.32231 19.4668 4.15344C19.1009 3.81571 18.419 3.81571 18.0531 4.15344C17.8701 4.32998 17.762 4.56793 17.762 4.80588C17.762 5.04382 17.8701 5.28177 18.0531 5.45831C18.2443 5.62717 18.5022 5.72696 18.76 5.72696Z" fill="white"/>
<path d="M22.7518 5.72696C23.0096 5.72696 23.2674 5.62717 23.4587 5.45831C23.6416 5.28177 23.7497 5.04382 23.7497 4.80588C23.7497 4.56793 23.6416 4.32231 23.4587 4.15344C23.0927 3.81571 22.4108 3.81571 22.0449 4.15344C21.8619 4.32998 21.7538 4.56793 21.7538 4.80588C21.7538 5.04382 21.8619 5.28177 22.0449 5.45831C22.2362 5.62717 22.494 5.72696 22.7518 5.72696Z" fill="white"/>
<path d="M76.441 46.6072L67.6591 35.804V1.12336C67.6591 0.616963 67.2101 0.202637 66.6612 0.202637H10.7763C10.2274 0.202637 9.77836 0.616963 9.77836 1.12336V35.804L0.996444 46.6072C0.771907 46.8834 0.730327 47.2594 0.904967 47.574C1.07129 47.8885 1.42057 48.0803 1.7948 48.0803H75.6427C76.0169 48.0803 76.3662 47.8809 76.5325 47.574C76.6988 47.267 76.6656 46.8834 76.441 46.6072ZM11.7742 8.48916H65.6632V35.1902H11.7742V8.48916ZM65.6632 2.04409V6.64771H11.7742V2.04409H65.6632ZM3.79069 46.2389L11.2753 37.0316H66.1622L73.6468 46.2389H3.79069Z" fill="white"/>
<path d="M58.6777 38.8738H17.762C17.2132 38.8738 16.7641 39.2878 16.7641 39.7939C16.7641 40.2999 17.2132 40.714 17.762 40.714H58.6777C59.2266 40.714 59.6757 40.2999 59.6757 39.7939C59.6757 39.2878 59.2266 38.8738 58.6777 38.8738Z" fill="white"/>
<path d="M48.8312 15.4161C46.9435 16.0838 45.563 17.5649 45.1305 19.3838C45.0141 19.8826 45.3551 20.3738 45.8873 20.4812C45.9622 20.4966 46.0287 20.5043 46.1035 20.5043C46.5609 20.5043 46.9767 20.2126 47.0765 19.7829C47.3676 18.5703 48.2824 17.588 49.5381 17.1352C50.0537 16.951 50.3115 16.4215 50.1119 15.9456C49.9207 15.4698 49.3468 15.2319 48.8312 15.4161Z" fill="white"/>
<path d="M57.9959 25.7381C60.8151 22.4921 60.5989 17.719 57.3306 14.7108C55.6341 13.1454 53.3804 12.2859 50.977 12.2859C48.5819 12.2859 46.3199 13.1454 44.6234 14.7108C42.9269 16.2763 41.9955 18.3559 41.9955 20.5736C41.9955 22.7837 42.9269 24.871 44.6234 26.4364C46.3199 28.0019 48.5736 28.8614 50.977 28.8614C53.0394 28.8614 54.9937 28.2168 56.5821 27.0427L61.3307 31.4244C61.522 31.6009 61.7798 31.693 62.0376 31.693C62.2954 31.693 62.5449 31.6009 62.7445 31.4244C63.1353 31.0638 63.1353 30.4805 62.7445 30.1199L57.9959 25.7381ZM46.0455 25.1319C44.7232 23.9117 43.9997 22.2926 43.9997 20.5736C43.9997 18.8547 44.7232 17.2355 46.0455 16.0154C47.3678 14.7952 49.1225 14.1276 50.9853 14.1276C52.8481 14.1276 54.6029 14.7952 55.9252 16.0154C58.6446 18.5324 58.6446 22.6149 55.9252 25.1319C54.6029 26.352 52.8481 27.0196 50.9853 27.0196C49.1142 27.0196 47.3594 26.3444 46.0455 25.1319Z" fill="white"/>
<path d="M15.7661 23.2183C15.2172 23.2183 14.7681 23.6327 14.7681 24.1393V31.5073C14.7681 32.0139 15.2172 32.4284 15.7661 32.4284C16.3149 32.4284 16.764 32.0139 16.764 31.5073V24.1393C16.764 23.6327 16.3149 23.2183 15.7661 23.2183Z" fill="white"/>
<path d="M20.756 20.4548C20.2071 20.4548 19.758 20.8692 19.758 21.3757V31.5047C19.758 32.0111 20.2071 32.4255 20.756 32.4255C21.3048 32.4255 21.7539 32.0111 21.7539 31.5047V21.3757C21.7539 20.8692 21.3048 20.4548 20.756 20.4548Z" fill="white"/>
<path d="M25.7455 23.2183C25.1967 23.2183 24.7476 23.6327 24.7476 24.1393V31.5073C24.7476 32.0139 25.1967 32.4284 25.7455 32.4284C26.2944 32.4284 26.7435 32.0139 26.7435 31.5073V24.1393C26.7435 23.6327 26.2944 23.2183 25.7455 23.2183Z" fill="white"/>
<path d="M30.7353 20.4548C30.1864 20.4548 29.7373 20.8692 29.7373 21.3757V31.5047C29.7373 32.0111 30.1864 32.4255 30.7353 32.4255C31.2841 32.4255 31.7332 32.0111 31.7332 31.5047V21.3757C31.7332 20.8692 31.2841 20.4548 30.7353 20.4548Z" fill="white"/>
<path d="M35.725 17.6936C35.1761 17.6936 34.727 18.1079 34.727 18.6143V31.5035C34.727 32.0098 35.1761 32.4241 35.725 32.4241C36.2739 32.4241 36.7229 32.0098 36.7229 31.5035V18.6143C36.7229 18.1079 36.2739 17.6936 35.725 17.6936Z" fill="white"/>
<path d="M36.6481 10.9245C36.6232 10.8631 36.5733 10.8094 36.5317 10.748C36.5067 10.7096 36.4901 10.6712 36.4568 10.6329C36.4485 10.6252 36.4402 10.6252 36.4319 10.6175C36.382 10.5638 36.3155 10.5331 36.2489 10.4947C36.199 10.4641 36.1658 10.4334 36.1159 10.4103C36.066 10.3873 36.0078 10.3873 35.9579 10.372C35.883 10.3566 35.8165 10.3336 35.7416 10.3336C35.7333 10.3336 35.725 10.3259 35.7167 10.3259H32.7229C32.174 10.3259 31.7249 10.7403 31.7249 11.2468C31.7249 11.7532 32.174 12.1676 32.7229 12.1676H33.1137L25.7705 18.2682L21.4461 14.2779C21.0552 13.9172 20.4232 13.9172 20.0323 14.2779L14.0447 19.8029C13.6538 20.1636 13.6538 20.7468 14.0447 21.1074C14.2359 21.2839 14.4937 21.376 14.7515 21.376C15.0094 21.376 15.2588 21.2839 15.4584 21.1074L20.7558 16.2423L25.0387 20.1943C25.4129 20.5396 26.02 20.5549 26.4109 20.225L34.7271 13.3187V14.017C34.7271 14.5234 35.1761 14.9378 35.725 14.9378C36.2739 14.9378 36.723 14.5234 36.723 14.017V11.2544C36.723 11.2084 36.698 11.17 36.698 11.124C36.6814 11.0549 36.6814 10.9935 36.6481 10.9245Z" fill="white"/>
<path d="M44.7066 42.55H32.7312C32.1824 42.55 31.7333 42.9643 31.7333 43.4707C31.7333 43.977 32.1824 44.3913 32.7312 44.3913H44.7066C45.2554 44.3913 45.7045 43.977 45.7045 43.4707C45.7045 42.9643 45.2554 42.55 44.7066 42.55Z" fill="white"/>
</svg>
