<svg width="48" height="72" viewBox="0 0 48 72" fill="none" xmlns="http://www.w3.org/2000/svg">
<path d="M12.6711 53.4848H35.3413C35.6146 53.4848 35.8767 53.3682 36.07 53.1607C36.2632 52.9532 36.3718 52.6717 36.3718 52.3782C36.3718 52.0847 36.2632 51.8033 36.07 51.5957C35.8767 51.3882 35.6146 51.2716 35.3413 51.2716H13.7016V21.3937C13.7016 21.1002 13.593 20.8187 13.3998 20.6112C13.2065 20.4037 12.9444 20.2871 12.6711 20.2871C12.3979 20.2871 12.1357 20.4037 11.9425 20.6112C11.7493 20.8187 11.6407 21.1002 11.6407 21.3937V52.3782C11.6407 52.6717 11.7493 52.9532 11.9425 53.1607C12.1357 53.3682 12.3979 53.4848 12.6711 53.4848Z" fill="white"/>
<path d="M17.8235 46.8452C18.0968 46.8452 18.3589 46.7286 18.5522 46.521C18.7454 46.3135 18.854 46.032 18.854 45.7385V28.0313C18.854 27.7377 18.7454 27.4563 18.5522 27.2487C18.3589 27.0412 18.0968 26.9246 17.8235 26.9246C17.5502 26.9246 17.2881 27.0412 17.0949 27.2487C16.9016 27.4563 16.793 27.7377 16.793 28.0313V45.7385C16.793 46.032 16.9016 46.3135 17.0949 46.521C17.2881 46.7286 17.5502 46.8452 17.8235 46.8452Z" fill="white"/>
<path d="M22.9758 46.8462C23.2491 46.8462 23.5112 46.7296 23.7044 46.522C23.8977 46.3145 24.0062 46.0331 24.0062 45.7396V25.8209C24.0062 25.5275 23.8977 25.246 23.7044 25.0385C23.5112 24.8309 23.2491 24.7144 22.9758 24.7144C22.7025 24.7144 22.4404 24.8309 22.2471 25.0385C22.0539 25.246 21.9453 25.5275 21.9453 25.8209V45.7396C21.9453 46.0331 22.0539 46.3145 22.2471 46.522C22.4404 46.7296 22.7025 46.8462 22.9758 46.8462Z" fill="white"/>
<path d="M28.1281 46.8462C28.4014 46.8462 28.6635 46.7296 28.8568 46.522C29.05 46.3145 29.1586 46.033 29.1586 45.7394V31.3516C29.1586 31.0581 29.05 30.7766 28.8568 30.569C28.6635 30.3615 28.4014 30.2449 28.1281 30.2449C27.8548 30.2449 27.5927 30.3615 27.3995 30.569C27.2062 30.7766 27.0977 31.0581 27.0977 31.3516V45.7394C27.0977 46.033 27.2062 46.3145 27.3995 46.522C27.5927 46.7296 27.8548 46.8462 28.1281 46.8462Z" fill="white"/>
<path d="M33.2804 46.8462C33.5537 46.8462 33.8158 46.7296 34.009 46.522C34.2023 46.3144 34.3109 46.0328 34.3109 45.7392V36.8834C34.3109 36.5898 34.2023 36.3082 34.009 36.1006C33.8158 35.893 33.5537 35.7764 33.2804 35.7764C33.0071 35.7764 32.745 35.893 32.5518 36.1006C32.3585 36.3082 32.2499 36.5898 32.2499 36.8834V45.7392C32.2499 46.0328 32.3585 46.3144 32.5518 46.522C32.745 46.7296 33.0071 46.8462 33.2804 46.8462Z" fill="white"/>
<path d="M44.6155 0.363037H3.39705C2.57716 0.363037 1.79085 0.712817 1.21111 1.33543C0.631362 1.95804 0.305664 2.80249 0.305664 3.68299V67.8688C0.305664 68.7493 0.631362 69.5938 1.21111 70.2164C1.79085 70.839 2.57716 71.1888 3.39705 71.1888H44.6155C45.4353 71.1888 46.2217 70.839 46.8014 70.2164C47.3811 69.5938 47.7068 68.7493 47.7068 67.8688V3.68299C47.7068 2.80249 47.3811 1.95804 46.8014 1.33543C46.2217 0.712817 45.4353 0.363037 44.6155 0.363037ZM45.6459 67.8688C45.6459 68.1623 45.5374 68.4438 45.3441 68.6513C45.1509 68.8589 44.8888 68.9755 44.6155 68.9755H3.39705C3.12375 68.9755 2.86165 68.8589 2.6684 68.6513C2.47515 68.4438 2.36659 68.1623 2.36659 67.8688V3.68299C2.36659 3.38949 2.47515 3.10801 2.6684 2.90047C2.86165 2.69293 3.12375 2.57634 3.39705 2.57634H44.6155C44.8888 2.57634 45.1509 2.69293 45.3441 2.90047C45.5374 3.10801 45.6459 3.38949 45.6459 3.68299V67.8688Z" fill="white"/>
<path d="M42.5546 10.3242H5.45795C5.18466 10.3242 4.92255 10.4408 4.72931 10.6483C4.53606 10.8559 4.42749 11.1374 4.42749 11.4309V60.1227C4.42749 60.4162 4.53606 60.6977 4.72931 60.9052C4.92255 61.1128 5.18466 61.2293 5.45795 61.2293H42.5546C42.8279 61.2293 43.09 61.1128 43.2832 60.9052C43.4765 60.6977 43.585 60.4162 43.585 60.1227V11.4309C43.585 11.1374 43.4765 10.8559 43.2832 10.6483C43.09 10.4408 42.8279 10.3242 42.5546 10.3242ZM41.5241 59.0161H6.48841V12.5375H41.5241V59.0161Z" fill="white"/>
<path d="M27.0977 64.5515H20.9149C20.6416 64.5515 20.3795 64.6681 20.1863 64.8756C19.993 65.0832 19.8845 65.3647 19.8845 65.6581C19.8845 65.9516 19.993 66.2331 20.1863 66.4407C20.3795 66.6482 20.6416 66.7648 20.9149 66.7648H27.0977C27.371 66.7648 27.6331 66.6482 27.8263 66.4407C28.0196 66.2331 28.1281 65.9516 28.1281 65.6581C28.1281 65.3647 28.0196 65.0832 27.8263 64.8756C27.6331 64.6681 27.371 64.5515 27.0977 64.5515Z" fill="white"/>
<path d="M21.9453 7.00599H26.0672C26.3405 7.00599 26.6026 6.8894 26.7958 6.68187C26.9891 6.47433 27.0976 6.19286 27.0976 5.89936C27.0976 5.60586 26.9891 5.32438 26.7958 5.11685C26.6026 4.90932 26.3405 4.79272 26.0672 4.79272H21.9453C21.672 4.79272 21.4099 4.90932 21.2167 5.11685C21.0234 5.32438 20.9149 5.60586 20.9149 5.89936C20.9149 6.19286 21.0234 6.47433 21.2167 6.68187C21.4099 6.8894 21.672 7.00599 21.9453 7.00599Z" fill="white"/>
</svg>
