<svg width="70" height="71" viewBox="0 0 70 71" fill="none" xmlns="http://www.w3.org/2000/svg">
<path d="M34.6954 70.0698C15.6044 70.0698 0.0727539 54.3624 0.0727539 35.0552C0.0727539 15.748 15.6044 0.0405273 34.6954 0.0405273C53.7865 0.0405273 69.3181 15.748 69.3181 35.0552C69.3181 54.3624 53.7865 70.0698 34.6954 70.0698ZM34.6954 2.29954C16.8363 2.29954 2.30648 16.9938 2.30648 35.0552C2.30648 53.1165 16.8363 67.8108 34.6954 67.8108C52.5546 67.8108 67.0844 53.1165 67.0844 35.0552C67.0844 16.9938 52.5546 2.29954 34.6954 2.29954Z" fill="white"/>
<path d="M49.3638 55.4114H14.1591C12.9886 55.4114 12.0365 54.4486 12.0365 53.2649V22.7871C12.0365 21.6035 12.9886 20.6406 14.1591 20.6406H19.0219C19.6384 20.6406 20.1388 21.1466 20.1388 21.7701C20.1388 22.3935 19.6384 22.8995 19.0219 22.8995H14.2702V53.1525H49.2532V48.3502C49.2532 47.7267 49.7536 47.2207 50.3701 47.2207C50.9866 47.2207 51.4869 47.7267 51.4869 48.3502V53.2655C51.4864 54.4486 50.5343 55.4114 49.3638 55.4114Z" fill="white"/>
<path d="M18.8705 29.6943H13.8246C13.2081 29.6943 12.7077 29.1877 12.7077 28.5634C12.7077 27.9392 13.2081 27.4326 13.8246 27.4326H18.8705C19.487 27.4326 19.9874 27.9392 19.9874 28.5634C19.9874 29.1877 19.4876 29.6943 18.8705 29.6943Z" fill="white"/>
<path d="M54.6866 49.4798H20.5727C19.1018 49.4798 17.9045 48.269 17.9045 46.7814V17.4054C17.9045 15.9179 19.1018 14.707 20.5727 14.707H54.6866C56.1576 14.707 57.3548 15.9179 57.3548 17.4054V46.7814C57.3548 48.269 56.1576 49.4798 54.6866 49.4798ZM20.5727 16.966C20.3331 16.966 20.1382 17.1631 20.1382 17.4054V46.7814C20.1382 47.0237 20.3331 47.2208 20.5727 47.2208H54.6866C54.9262 47.2208 55.1211 47.0237 55.1211 46.7814V17.4054C55.1211 17.1631 54.9262 16.966 54.6866 16.966H20.5727Z" fill="white"/>
<path d="M56.2382 23.7597H19.6934C19.0769 23.7597 18.5765 23.2536 18.5765 22.6301C18.5765 22.0065 19.0769 21.5005 19.6934 21.5005H56.2382C56.8547 21.5005 57.3551 22.0065 57.3551 22.6301C57.3551 23.2536 56.8547 23.7597 56.2382 23.7597Z" fill="white"/>
<path d="M25.8543 20.2145H23.1672C22.5506 20.2145 22.0503 19.7083 22.0503 19.0845C22.0503 18.4608 22.5506 17.9546 23.1672 17.9546H25.8543C26.4708 17.9546 26.9712 18.4608 26.9712 19.0845C26.9712 19.7083 26.4714 20.2145 25.8543 20.2145Z" fill="white"/>
<path d="M31.9732 20.2145H29.286C28.6695 20.2145 28.1692 19.7083 28.1692 19.0845C28.1692 18.4608 28.6695 17.9546 29.286 17.9546H31.9732C32.5897 17.9546 33.0901 18.4608 33.0901 19.0845C33.0901 19.7083 32.5903 20.2145 31.9732 20.2145Z" fill="white"/>
<path d="M27.7927 35.1876L33.6127 37.6019L33.1866 38.8751L26.104 35.8491V34.5261L33.186 31.4995L33.6121 32.7733L27.7927 35.1876Z" fill="white"/>
<path d="M35.646 43.1892H34.088L39.646 27.1863H41.1711L35.646 43.1892Z" fill="white"/>
<path d="M41.6469 32.7734L42.0729 31.4995L49.155 34.5264V35.8494L42.0729 38.8751L41.6469 37.6018L47.4669 35.1873L41.6469 32.7734Z" fill="white"/>
</svg>
