<svg width="73" height="67" viewBox="0 0 73 67" fill="none" xmlns="http://www.w3.org/2000/svg">
<path d="M36.6774 19.5932C40.5589 19.5932 43.7156 16.7173 43.7156 13.1809C43.7156 9.64448 40.5589 6.76855 36.6774 6.76855C32.7958 6.76855 29.6392 9.64448 29.6392 13.1809C29.6392 16.7173 32.7958 19.5932 36.6774 19.5932ZM36.6774 8.90599C39.2651 8.90599 41.3695 10.8233 41.3695 13.1809C41.3695 15.5385 39.2651 17.4558 36.6774 17.4558C34.0897 17.4558 31.9852 15.5385 31.9852 13.1809C31.9852 10.8233 34.0897 8.90599 36.6774 8.90599Z" fill="white"/>
<path d="M62.4841 29.4771L52.0194 43.0938H58.1837C55.5725 51.8372 46.7489 58.0526 36.6772 58.0526C29.6003 58.0526 23.1017 55.0929 18.8447 49.9321L18.3368 49.3167L9.15662 52.1054L9.96601 53.2605C15.8253 61.6139 25.8102 66.6005 36.6772 66.6005C51.8235 66.6005 65.0284 56.5589 67.8061 43.0938H72.9487L62.4841 29.4771ZM65.8108 40.9569L65.6571 41.8629C63.4729 54.7467 51.0141 64.4635 36.6772 64.4635C27.1205 64.4635 18.3004 60.2996 12.7919 53.2551L17.491 51.8276C22.1949 57.1519 29.1393 60.1896 36.6772 60.1896C48.3454 60.1896 58.4981 52.6407 60.8172 42.238L61.1022 40.9569H56.5262L62.4841 33.2039L68.4431 40.9569H65.8108Z" fill="white"/>
<path d="M21.3339 26.0026H15.1719C16.3884 21.9594 19.016 18.3116 22.6008 15.6371V16.134L25.68 16.9012C25.7809 17.1458 25.8923 17.3895 26.0155 17.632L24.4319 20.1612L26.1539 21.7286H23.7738V51.6466H49.5806V21.7286H47.2005L48.9225 20.1601L47.3389 17.6309C47.4609 17.3884 47.5735 17.1448 47.6744 16.9001L50.7536 16.134V15.62C52.1554 16.6607 53.4176 17.8414 54.5085 19.1653L55.0164 19.7808L64.1978 16.9909L63.3884 15.8359C59.4247 10.1835 53.3988 5.96293 46.404 3.90713L44.3394 2.02657L41.5652 3.47011C41.3001 3.35899 41.0315 3.25641 40.7617 3.16452L39.9183 0.358643H33.4361L32.5938 3.16346C32.324 3.25535 32.0554 3.35792 31.7903 3.46905L29.0161 2.0255L26.9339 3.92102C15.9567 7.15751 7.67037 15.7333 5.54835 26.0026H0.405762L10.8704 39.6196L21.3339 26.0026ZM47.2345 23.8656V49.5096H26.1199V23.8656H28.4999L29.0161 24.3347L31.7903 22.8912C32.0554 23.0023 32.324 23.1049 32.5938 23.1968L33.4361 26.0026H39.9183L40.7605 23.1978C41.0303 23.1059 41.2989 23.0034 41.564 22.8922L44.3383 24.3358L44.8544 23.8656H47.2345ZM60.5613 15.8423L55.8622 17.2698C54.3959 15.6125 52.6739 14.1701 50.7536 12.9498V10.2284L47.6744 9.46119C47.5735 9.21651 47.4609 8.97182 47.3389 8.72927L48.4732 6.9171C53.2944 8.84894 57.488 11.922 60.5613 15.8423ZM29.4091 4.69141L31.7305 5.89882L32.3006 5.62314C32.8226 5.37098 33.3634 5.16476 33.9065 5.01196L34.5223 4.83993L35.2261 2.49564H38.1282L38.832 4.83886L39.4479 5.01089C39.991 5.16476 40.5318 5.36991 41.0538 5.62207L41.6239 5.89775L43.9453 4.69034L45.9981 6.55915L44.6738 8.67371L44.9752 9.193C45.2532 9.67062 45.4785 10.1632 45.645 10.6568L45.8351 11.2167L48.4075 11.86V14.5024L45.8351 15.1445L45.645 15.7044C45.4785 16.1949 45.2532 16.6885 44.9741 17.1694L44.6738 17.6876L45.9981 19.8021L43.9453 21.6709L41.6239 20.4635L41.0538 20.7392C40.5318 20.9914 39.991 21.1976 39.4479 21.3504L38.832 21.5224L38.1282 23.8656H35.2261L34.5223 21.5224L33.9065 21.3504C33.3634 21.1965 32.8226 20.9914 32.3006 20.7392L31.7305 20.4635L29.4091 21.6709L27.3562 19.8021L28.6806 17.6876L28.3803 17.1694C28.1011 16.6885 27.8759 16.1949 27.7093 15.7044L27.5193 15.1445L24.9468 14.5013V11.8589L27.5193 11.2167L27.7093 10.6568C27.8771 10.1632 28.1011 9.67062 28.3791 9.193L28.6806 8.67371L27.3562 6.55915L29.4091 4.69141ZM7.54368 28.1396L7.69735 27.2336C9.21995 18.2539 15.8323 10.5671 24.8858 6.92564L26.0155 8.72927C25.8935 8.97182 25.7809 9.21544 25.68 9.46119L22.6008 10.2273V12.9744C17.4441 16.2622 13.7807 21.2799 12.5373 26.8574L12.2522 28.1396H16.8283L10.8704 35.8927L4.91256 28.1396H7.54368Z" fill="white"/>
<path d="M42.5425 45.233H40.1964V38.8217H37.8503V45.233H35.5043V40.9588H33.1582V45.233H28.4661V47.3701H44.8885V36.6846H42.5425V45.233Z" fill="white"/>
<path d="M30.8121 28.1384H28.4661V30.2762H30.8121V28.1384Z" fill="white"/>
<path d="M44.8887 28.1384H33.1583V30.2762H44.8887V28.1384Z" fill="white"/>
<path d="M44.8886 32.4126H28.4661V34.5504H44.8886V32.4126Z" fill="white"/>
</svg>
