<svg width="58" height="61" viewBox="0 0 58 61" fill="none" xmlns="http://www.w3.org/2000/svg">
<path d="M28.0187 23.9459C32.5857 23.9459 36.2886 20.2306 36.2886 15.676V12.7137C36.2886 8.14676 32.5733 4.44385 28.0187 4.44385C23.4642 4.44385 19.7489 8.15911 19.7489 12.7137V15.676C19.7489 20.2306 23.4518 23.9459 28.0187 23.9459ZM21.4769 12.7137C21.4769 9.10952 24.4146 6.17188 28.0187 6.17188C31.6229 6.17188 34.5606 9.10952 34.5606 12.7137V15.676C34.5606 19.2802 31.6229 22.2178 28.0187 22.2178C24.4146 22.2178 21.4769 19.2802 21.4769 15.676V12.7137Z" fill="#F33974"/>
<path d="M56.0375 28.0187C56.0375 20.5388 53.1245 13.5033 47.8293 8.20813C42.5342 2.91296 35.4986 0 28.0187 0C20.5388 0 13.5033 2.91296 8.20813 8.20813C2.91296 13.5033 0 20.5388 0 28.0187C0 35.4986 2.91296 42.5342 8.20813 47.8293C13.5033 53.1245 20.5388 56.0375 28.0187 56.0375C32.203 56.0375 36.3379 55.0994 40.0902 53.3096L39.8434 59.1973C39.8434 59.2096 39.8434 59.222 39.8434 59.2343C39.8434 59.7157 40.1273 60.1724 40.5593 60.3699C41.0036 60.5674 41.4973 60.4933 41.88 60.1724L47.2739 55.519L52.6678 60.1724C52.9023 60.3699 53.1862 60.481 53.4701 60.481C53.6429 60.481 53.8157 60.4439 53.9762 60.3699C54.4082 60.1724 54.6921 59.728 54.6921 59.2343C54.6921 59.222 54.6921 59.2096 54.6921 59.1973L54.186 47.0394C56.5188 45.0645 58 42.1268 58 38.8312C58 36.3379 57.1483 34.0421 55.7165 32.2154C55.9264 30.8329 56.0375 29.4258 56.0375 28.0187ZM1.72803 28.0187C1.72803 13.528 13.528 1.72803 28.0187 1.72803C42.5095 1.72803 54.3094 13.528 54.3094 28.0187C54.3094 28.8827 54.2601 29.7591 54.186 30.6231C52.3222 29.0555 49.903 28.1051 47.2739 28.1051C46.0766 28.1051 44.9164 28.3026 43.8425 28.6729C42.2256 26.9819 40.0038 26.0315 37.634 26.0315H35.4986C35.1283 26.0315 34.8074 26.266 34.684 26.5993L30.438 38.4116L29.8208 32.6597H29.8332C30.2034 32.6597 30.5367 32.4252 30.6478 32.0796L32.129 27.7348C32.2154 27.4756 32.1783 27.1794 32.0179 26.9572C31.8574 26.7351 31.5982 26.5993 31.3143 26.5993L25.1428 26.5746C24.8589 26.5746 24.5997 26.7104 24.4392 26.9325C24.2788 27.1547 24.2294 27.4509 24.3282 27.7102L25.8093 32.0796C25.9328 32.4252 26.2537 32.6721 26.624 32.6721H26.8091L26.1796 38.4733L21.8472 26.5869C21.7238 26.2413 21.4029 26.0192 21.0326 26.0192H18.4035C13.6391 26.0192 9.7757 29.8949 9.7757 34.6469V46.9159C4.81379 42.1515 1.72803 35.4369 1.72803 28.0187ZM29.216 30.9317H27.2411L26.3524 28.3026L30.117 28.315L29.216 30.9317ZM28.315 34.8321L29.8085 48.6933L28.3396 49.6808L26.8215 48.681L28.315 34.8321ZM28.0187 54.3094C21.7731 54.3094 16.0213 52.1124 11.5037 48.4588V34.6593C11.5037 30.8576 14.6018 27.7595 18.4035 27.7595H20.4278L25.7599 42.3367L25.0441 49.0266C25.007 49.3475 25.1551 49.6684 25.4267 49.8412L27.8706 51.4458C28.0187 51.5446 28.1792 51.594 28.3396 51.594C28.5125 51.594 28.6729 51.5446 28.821 51.4458L31.2032 49.8412C31.4624 49.6561 31.6106 49.3475 31.5735 49.0266L30.8576 42.3367L36.1034 27.7472H37.6216C39.3003 27.7472 40.8802 28.3396 42.1145 29.4135C38.7819 31.2403 36.5231 34.7827 36.5231 38.8312C36.5231 42.1145 38.0043 45.0645 40.3371 47.0394L40.1519 51.3348C36.4367 53.285 32.2524 54.3094 28.0187 54.3094ZM52.9394 58.1234L48.1132 53.9638C47.8787 53.754 47.5948 53.6306 47.2862 53.6306C46.9777 53.6306 46.6814 53.754 46.4592 53.9638L41.6331 58.1234L42.0528 48.212C43.608 49.0883 45.3977 49.582 47.2986 49.582C49.1994 49.582 50.9892 49.0883 52.5444 48.212L52.9394 58.1234ZM47.2739 47.854C42.2996 47.854 38.2635 43.8178 38.2635 38.8436C38.2635 33.8693 42.2996 29.8332 47.2739 29.8332C52.2481 29.8332 56.2843 33.8693 56.2843 38.8436C56.2843 43.8178 52.2481 47.854 47.2739 47.854Z" fill="#F33974"/>
<path d="M51.7667 34.6346L45.8421 40.5593L42.7933 37.4735C42.4601 37.1403 41.9046 37.1279 41.5714 37.4735C41.2381 37.8068 41.2258 38.3622 41.5714 38.6955L45.2373 42.3984C45.3977 42.5589 45.6199 42.6576 45.8544 42.6576C46.0889 42.6576 46.2988 42.5712 46.4716 42.4108L53.001 35.8813C53.3343 35.548 53.3343 34.9926 53.001 34.6593C52.6431 34.3014 52.1 34.3014 51.7667 34.6346Z" fill="#F33974"/>
</svg>
