<svg width="58" height="61" viewBox="0 0 58 61" fill="none" xmlns="http://www.w3.org/2000/svg">
<path d="M12.9834 9.99658C11.7566 9.99689 10.5575 10.3609 9.53763 11.0427C8.51778 11.7245 7.72298 12.6933 7.25373 13.8268C6.78449 14.9603 6.66187 16.2074 6.90139 17.4105C7.1409 18.6137 7.73179 19.7188 8.59934 20.5861C9.46689 21.4535 10.5721 22.0441 11.7753 22.2833C12.9785 22.5225 14.2257 22.3996 15.359 21.9301C16.4923 21.4605 17.461 20.6655 18.1425 19.6455C18.824 18.6254 19.1878 17.4262 19.1878 16.1995C19.1857 14.5547 18.5314 12.978 17.3682 11.8151C16.205 10.6522 14.6281 9.99822 12.9834 9.99658ZM12.9834 20.456C12.1415 20.456 11.3185 20.2064 10.6185 19.7387C9.91855 19.271 9.37298 18.6062 9.05081 17.8284C8.72864 17.0506 8.64435 16.1948 8.80859 15.3691C8.97283 14.5434 9.37823 13.7849 9.97352 13.1896C10.5688 12.5943 11.3273 12.189 12.1529 12.0247C12.9786 11.8605 13.8345 11.9448 14.6123 12.2669C15.39 12.5891 16.0548 13.1347 16.5225 13.8347C16.9903 14.5346 17.2399 15.3576 17.2399 16.1995C17.2387 17.328 16.7898 18.41 15.9918 19.208C15.1938 20.0059 14.1119 20.4548 12.9834 20.456Z" fill="#04B3AC"/>
<path d="M23.483 22.8126L21.9192 20.857C22.2156 20.2905 22.4567 19.6968 22.6392 19.0841L25.1058 18.81C25.3437 18.783 25.5633 18.6695 25.7229 18.4911C25.8825 18.3126 25.9709 18.0817 25.9713 17.8423V14.4017C25.9709 14.1623 25.8825 13.9314 25.7229 13.7529C25.5633 13.5745 25.3437 13.4609 25.1058 13.434L22.5912 13.1553C22.4044 12.5716 22.165 12.0062 21.8758 11.4659L23.4242 9.5289C23.5735 9.3417 23.6486 9.10607 23.6352 8.867C23.6218 8.62794 23.5208 8.40219 23.3514 8.23289L20.9235 5.7988C20.7542 5.62906 20.5281 5.52777 20.2887 5.51435C20.0492 5.50092 19.8133 5.57629 19.626 5.72603L17.6889 7.27443C17.1312 6.9875 16.5494 6.75019 15.9501 6.56526L15.6729 4.07698C15.6459 3.83909 15.5324 3.61943 15.354 3.45982C15.1755 3.30021 14.9446 3.2118 14.7052 3.21143H11.2615C11.0221 3.2118 10.7912 3.30021 10.6127 3.45982C10.4343 3.61943 10.3207 3.83909 10.2938 4.07698L10.0166 6.56836C9.40554 6.75583 8.81391 7.00161 8.24988 7.3023L6.28651 5.72603C6.09945 5.5764 5.86374 5.50108 5.62458 5.51451C5.38542 5.52794 5.15963 5.62917 4.99049 5.7988L2.55486 8.23289C2.38577 8.40239 2.28503 8.62824 2.27189 8.8673C2.25875 9.10636 2.33413 9.34189 2.48363 9.5289L4.0692 11.5093C3.77517 12.0607 3.53558 12.6394 3.35384 13.2373L0.865555 13.5129C0.627663 13.5399 0.408001 13.6534 0.248392 13.8319C0.0887834 14.0103 0.000374901 14.2413 0 14.4807V17.9243C0.000374901 18.1637 0.0887834 18.3947 0.248392 18.5731C0.408001 18.7516 0.627663 18.8651 0.865555 18.8921L3.35384 19.1677C3.53473 19.7649 3.77435 20.3427 4.0692 20.8926L2.48363 22.8699C2.33413 23.0569 2.25875 23.2925 2.27189 23.5315C2.28503 23.7706 2.38577 23.9964 2.55486 24.1659L4.99824 26.6C5.16737 26.7696 5.39316 26.8709 5.63232 26.8843C5.87149 26.8977 6.10719 26.8224 6.29425 26.6728L8.24988 25.0981C8.81305 25.3983 9.40361 25.6441 10.0135 25.832L10.2891 28.3218C10.3161 28.5597 10.4296 28.7794 10.6081 28.939C10.7865 29.0986 11.0175 29.187 11.2569 29.1874H14.7005C14.9399 29.187 15.1709 29.0986 15.3493 28.939C15.5278 28.7794 15.6413 28.5597 15.6683 28.3218L15.9439 25.832C16.5686 25.6403 17.1729 25.3872 17.7478 25.0764L19.6755 26.6248C19.8628 26.7744 20.0986 26.8498 20.3379 26.8367C20.5772 26.8236 20.8033 26.7228 20.9731 26.5536L23.4072 24.1179C23.5798 23.9487 23.6832 23.7213 23.6972 23.4799C23.7113 23.2386 23.6349 23.0007 23.483 22.8126ZM20.0518 21.6715L21.4113 23.3515L20.2097 24.553L18.6784 23.3282L18.6149 23.2524C18.4629 23.0709 18.25 22.9511 18.016 22.9152C17.7821 22.8792 17.5431 22.9298 17.3436 23.0573C16.5643 23.5546 15.7054 23.9144 14.8043 24.121C14.5896 24.1707 14.3981 24.2915 14.2609 24.4639C14.1237 24.6362 14.0489 24.8499 14.0486 25.0702L13.8272 27.238H12.124L11.9026 25.2467V25.0686C11.9024 24.8479 11.8272 24.6337 11.6894 24.4612C11.5515 24.2888 11.3592 24.1683 11.1438 24.1195L11.0726 24.1024C10.2224 23.8983 9.4109 23.5579 8.66949 23.0944C8.49669 22.9857 8.294 22.9342 8.09023 22.9472C7.88647 22.9603 7.69202 23.0373 7.53452 23.1672L5.74147 24.6057L4.53991 23.4041L5.83747 21.7814L5.99231 21.5708C6.11256 21.414 6.18242 21.2243 6.19264 21.0269C6.20287 20.8295 6.153 20.6337 6.0496 20.4653C5.58779 19.7287 5.25233 18.9201 5.05708 18.073C5.01517 17.8903 4.92144 17.7236 4.78713 17.5928C4.65283 17.4621 4.48365 17.3729 4.29991 17.3359L4.0692 17.2895C4.04105 17.2838 4.01262 17.2797 3.98403 17.2771L1.9386 17.0495V15.3462L4.03978 15.1109L4.27978 15.0706C4.46961 15.0382 4.64561 14.9503 4.78558 14.8181C4.92556 14.6858 5.02326 14.5151 5.06637 14.3274C5.26156 13.4775 5.59756 12.6663 6.06044 11.9274C6.16494 11.7587 6.21531 11.562 6.20479 11.3638C6.19427 11.1656 6.12337 10.9754 6.0016 10.8187L4.5492 8.99315L5.75076 7.79159L7.33477 9.05819L7.53142 9.22541C7.69545 9.36515 7.90124 9.44644 8.11648 9.45653C8.33172 9.46662 8.54422 9.40493 8.72059 9.28116L8.75311 9.25638C9.4959 8.80226 10.3075 8.47177 11.1562 8.27779C11.3706 8.2282 11.5619 8.1076 11.6991 7.93557C11.8362 7.76354 11.9112 7.55019 11.9118 7.33017L12.1333 5.16241H13.8365L14.0579 7.1552V7.32862C14.0586 7.54864 14.1335 7.76199 14.2707 7.93402C14.4079 8.10605 14.5992 8.22665 14.8135 8.27624C15.6874 8.47921 16.5236 8.81944 17.291 9.28425C17.4711 9.39432 17.682 9.44282 17.8921 9.42243C18.1021 9.40203 18.2999 9.31386 18.4554 9.17122L20.1586 7.79005L21.3617 8.9916L20.075 10.6004L20.0611 10.619L19.9202 10.8032C19.7674 11.0164 19.7051 11.2813 19.7468 11.5403C19.7712 11.701 19.835 11.8531 19.9326 11.9831C20.369 12.7032 20.6907 13.4868 20.8864 14.3057C20.9362 14.5158 21.0546 14.7034 21.2228 14.8388C21.391 14.9742 21.5995 15.0498 21.8154 15.0536L24.0172 15.2781V16.9814L21.7674 17.2291C21.563 17.2485 21.3699 17.3323 21.216 17.4683C21.0622 17.6044 20.9554 17.7857 20.9112 17.9863C20.7148 18.8666 20.372 19.7078 19.8969 20.4745C19.7831 20.6626 19.7364 20.8836 19.7646 21.1016C19.7927 21.3196 19.894 21.5216 20.0518 21.6746V21.6715Z" fill="#04B3AC"/>
<path d="M39.6933 31.5337C37.7063 31.5349 35.7643 32.1252 34.1128 33.23C32.4613 34.3348 31.1745 35.9044 30.4149 37.7405C29.6554 39.5766 29.4573 41.5966 29.8457 43.5452C30.2341 45.4939 31.1915 47.2836 32.5969 48.6882C34.0024 50.0927 35.7927 51.049 37.7415 51.4362C39.6904 51.8234 41.7103 51.6241 43.5459 50.8634C45.3815 50.1028 46.9504 48.8149 48.0541 47.1628C49.1579 45.5106 49.747 43.5682 49.747 41.5813C49.7425 38.9168 48.6816 36.3628 46.797 34.4793C44.9123 32.5959 42.3577 31.5366 39.6933 31.5337ZM39.6933 49.6809C38.0913 49.6809 36.5253 49.2059 35.1933 48.3159C33.8613 47.4259 32.8232 46.1609 32.2101 44.6809C31.5971 43.2009 31.4367 41.5723 31.7492 40.0011C32.0617 38.4299 32.8332 36.9867 33.9659 35.8539C35.0987 34.7212 36.5419 33.9497 38.1131 33.6372C39.6843 33.3247 41.3128 33.4851 42.7929 34.0981C44.2729 34.7112 45.5379 35.7493 46.4279 37.0813C47.3179 38.4133 47.7929 39.9793 47.7929 41.5813C47.7905 43.7287 46.9363 45.7874 45.4179 47.3059C43.8994 48.8243 41.8407 49.6785 39.6933 49.6809Z" fill="#04B3AC"/>
<path d="M57.136 38.0196L53.2247 37.5845C52.9297 36.5828 52.5236 35.6174 52.0139 34.706L54.4278 31.6882C54.5774 31.5009 54.6529 31.2651 54.6397 31.0258C54.6266 30.7865 54.5258 30.5604 54.3566 30.3906L50.8433 26.8788C50.674 26.7094 50.4481 26.6085 50.2089 26.5953C49.9697 26.5822 49.7342 26.6578 49.5473 26.8076L46.531 29.2216C45.5918 28.7163 44.6014 28.3124 43.5766 28.0169L43.1446 24.1459C43.1187 23.9075 43.0055 23.687 42.8269 23.527C42.6482 23.3669 42.4167 23.2785 42.1769 23.2788H37.205C36.9653 23.2792 36.7342 23.3679 36.5557 23.5278C36.3772 23.6877 36.2639 23.9077 36.2372 24.1459L35.8068 28.0169C34.7677 28.3134 33.7665 28.7291 32.823 29.2556L29.7572 26.8045C29.5703 26.6547 29.3347 26.5791 29.0955 26.5922C28.8564 26.6054 28.6305 26.7063 28.4612 26.8757L24.9494 30.3875C24.7796 30.5569 24.6784 30.783 24.6649 31.0224C24.6515 31.2618 24.7269 31.4978 24.8766 31.6851L27.3355 34.7602C26.8169 35.6899 26.4095 36.6773 26.1215 37.7022L22.2505 38.1326C22.0125 38.1593 21.7926 38.2727 21.633 38.4512C21.4733 38.6298 21.385 38.8609 21.385 39.1004V44.0676C21.385 44.3071 21.4733 44.5383 21.633 44.7168C21.7926 44.8953 22.0125 45.0087 22.2505 45.0354L26.1215 45.4658C26.4093 46.4908 26.8167 47.4782 27.3355 48.4078L24.8813 51.4736C24.7316 51.6607 24.6563 51.8964 24.6697 52.1356C24.6832 52.3747 24.7844 52.6005 24.954 52.7696L28.4658 56.2814C28.6349 56.451 28.8607 56.5523 29.0999 56.5657C29.3391 56.5791 29.5748 56.5038 29.7618 56.3542L32.8246 53.9046C33.7691 54.4314 34.7714 54.847 35.8114 55.1433L36.2419 59.0143C36.2685 59.2524 36.382 59.4722 36.5605 59.6319C36.739 59.7916 36.9701 59.8799 37.2096 59.8799H42.1769C42.4166 59.8806 42.6481 59.7925 42.8267 59.6327C43.0054 59.4729 43.1186 59.2526 43.1446 59.0143L43.5766 55.1433C44.6376 54.8407 45.6589 54.4135 46.6193 53.8706L49.6247 56.2752C49.8118 56.4249 50.0475 56.5002 50.2866 56.4867C50.5258 56.4733 50.7516 56.3721 50.9207 56.2025L54.434 52.6969C54.6031 52.5274 54.7039 52.3015 54.717 52.0625C54.7301 51.8234 54.6548 51.5879 54.5053 51.4009L52.0696 48.3521C52.5903 47.4017 52.9993 46.3942 53.2882 45.3497L57.1344 44.9224C57.3725 44.8957 57.5923 44.7823 57.752 44.6037C57.9117 44.4252 58 44.1941 58 43.9546V38.9873C57.9997 38.7482 57.9115 38.5174 57.7522 38.339C57.5929 38.1606 57.3736 38.0469 57.136 38.0196ZM56.0521 43.0829L52.7323 43.4529L52.4227 43.4839C52.2179 43.503 52.0245 43.5866 51.8704 43.7227C51.7162 43.8588 51.6092 44.0403 51.5648 44.2411C51.27 45.5555 50.7577 46.8116 50.049 47.9572C49.9323 48.1455 49.8834 48.3679 49.9101 48.5877C49.9368 48.8075 50.0377 49.0117 50.1961 49.1665L50.3865 49.3508L52.4443 51.9258L50.1651 54.205L47.6211 52.1704L47.5018 52.028C47.35 51.8459 47.1369 51.7254 46.9026 51.6892C46.6683 51.653 46.4288 51.7036 46.2291 51.8313C45.0638 52.5764 43.779 53.1154 42.4308 53.4246C42.2162 53.4743 42.0247 53.5951 41.8875 53.7675C41.7503 53.9398 41.6755 54.1535 41.6752 54.3738L41.3098 57.9351H38.0814L37.716 54.651V54.3722C37.7156 54.1521 37.6407 53.9387 37.5035 53.7666C37.3663 53.5945 37.1748 53.474 36.9603 53.4246L36.8504 53.3983C35.5775 53.0933 34.3627 52.5834 33.2535 51.8886C33.08 51.7804 32.8769 51.7295 32.6729 51.7431C32.469 51.7567 32.2744 51.8341 32.1169 51.9645L29.2261 54.2871L26.9468 52.0078L29.0557 49.3755L29.288 49.0659C29.4081 48.9092 29.4777 48.7197 29.4877 48.5225C29.4976 48.3254 29.4474 48.1299 29.3438 47.9619C28.6535 46.8589 28.1521 45.6484 27.8604 44.3804C27.818 44.1977 27.7239 44.031 27.5894 43.9003C27.4549 43.7696 27.2855 43.6804 27.1017 43.6434L26.7517 43.5737C26.7267 43.5683 26.7013 43.5641 26.6759 43.5613L23.3391 43.1897V39.969L26.7301 39.5897L27.0769 39.5324C27.2666 39.4998 27.4425 39.4118 27.5825 39.2796C27.7224 39.1474 27.8202 38.9767 27.8635 38.7891C28.1544 37.5186 28.6552 36.3056 29.3453 35.1999C29.4496 35.0312 29.4998 34.8345 29.4893 34.6364C29.4788 34.4383 29.408 34.2481 29.2865 34.0913L26.9468 31.1571L29.2261 28.8763L31.8227 30.9527L32.1061 31.1942C32.2699 31.3348 32.4758 31.4169 32.6914 31.4275C32.907 31.4382 33.12 31.3768 33.2968 31.2531L33.3665 31.2004C34.4775 30.5213 35.6911 30.0266 36.9603 29.7356C37.1748 29.6863 37.3663 29.5658 37.5035 29.3937C37.6407 29.2216 37.7156 29.0081 37.716 28.788L38.0814 25.2267H41.3051L41.6706 28.5093V28.7896C41.6715 29.0095 41.7466 29.2227 41.8837 29.3947C42.0208 29.5667 42.212 29.6873 42.4262 29.7372C43.7324 30.0414 44.9823 30.5498 46.13 31.2438C46.3102 31.3534 46.5211 31.4016 46.731 31.3812C46.9409 31.3608 47.1386 31.2729 47.2944 31.1307L50.0815 28.8778L52.3607 31.1586L50.2642 33.7801L50.2503 33.7971L50.0567 34.0603C49.906 34.2767 49.8464 34.5437 49.891 34.8036C49.9175 34.9696 49.9857 35.1263 50.0892 35.2588C50.7481 36.3369 51.233 37.5121 51.5261 38.7411C51.5762 38.9511 51.6946 39.1385 51.8628 39.2739C52.031 39.4093 52.2393 39.485 52.4552 39.489L56.0583 39.8591L56.0521 43.0829Z" fill="#04B3AC"/>
<path d="M15.0056 52.0775C14.8151 51.9029 14.563 51.8113 14.3048 51.8226C14.0467 51.8339 13.8036 51.9473 13.6291 52.1379C13.4546 52.3284 13.3629 52.5805 13.3742 52.8386C13.3855 53.0968 13.4989 53.3399 13.6895 53.5144L15.4918 55.1743H8.23446C7.41716 55.1702 6.63462 54.8432 6.05742 54.2645C5.48022 53.6859 5.15517 52.9025 5.15314 52.0852V36.2606C5.15314 36.0023 5.05053 35.7545 4.86788 35.5719C4.68523 35.3892 4.4375 35.2866 4.1792 35.2866C3.92089 35.2866 3.67316 35.3892 3.49051 35.5719C3.30786 35.7545 3.20525 36.0023 3.20525 36.2606V52.0852C3.20689 53.4202 3.73793 54.7 4.6819 55.644C5.62586 56.5879 6.90568 57.119 8.24065 57.1206H15.498L13.6957 58.7712C13.5051 58.9457 13.3917 59.1888 13.3804 59.447C13.3691 59.7051 13.4607 59.9572 13.6353 60.1477C13.8098 60.3383 14.0529 60.4517 14.311 60.463C14.5692 60.4743 14.8213 60.3827 15.0118 60.2081L18.6598 56.8636C18.7589 56.7721 18.8379 56.6611 18.8919 56.5376C18.946 56.4141 18.9739 56.2807 18.9739 56.1459C18.9739 56.0111 18.946 55.8777 18.8919 55.7542C18.8379 55.6307 18.7589 55.5197 18.6598 55.4282L15.0056 52.0775Z" fill="#04B3AC"/>
<path d="M42.9665 8.41271C43.0597 8.50499 43.1705 8.57751 43.2923 8.62593C43.4142 8.67435 43.5445 8.69766 43.6756 8.69448C43.8067 8.6913 43.9358 8.66168 44.0551 8.60741C44.1745 8.55313 44.2817 8.47532 44.3702 8.37862C44.4588 8.28193 44.5269 8.16836 44.5705 8.0447C44.6141 7.92105 44.6323 7.78987 44.624 7.65901C44.6156 7.52816 44.581 7.40034 44.5221 7.2832C44.4631 7.16607 44.3812 7.06204 44.2811 6.97734L42.4803 5.31591H49.7578C50.5772 5.31878 51.3621 5.64631 51.9406 6.22676C52.519 6.80722 52.8438 7.59326 52.8438 8.41271V21.4379C52.8438 21.6962 52.9464 21.9439 53.129 22.1265C53.3117 22.3092 53.5594 22.4118 53.8177 22.4118C54.076 22.4118 54.3237 22.3092 54.5064 22.1265C54.689 21.9439 54.7916 21.6962 54.7916 21.4379V8.41271C54.7925 7.07735 54.2633 5.79624 53.3204 4.85069C52.3774 3.90514 51.0978 3.37244 49.7624 3.36957H42.485L44.2811 1.71743C44.3812 1.63273 44.4631 1.5287 44.5221 1.41156C44.581 1.29443 44.6156 1.1666 44.624 1.03575C44.6323 0.904901 44.6141 0.773717 44.5705 0.650064C44.5269 0.52641 44.4588 0.412833 44.3702 0.316142C44.2817 0.219451 44.1745 0.141635 44.0551 0.0873609C43.9358 0.0330863 43.8067 0.00346978 43.6756 0.000287008C43.5445 -0.00289577 43.4142 0.020421 43.2923 0.0688387C43.1705 0.117256 43.0597 0.189779 42.9665 0.282058L39.3185 3.6266C39.219 3.71784 39.1396 3.82875 39.0853 3.95229C39.031 4.07584 39.0029 4.20933 39.0029 4.34429C39.0029 4.47925 39.031 4.61273 39.0853 4.73628C39.1396 4.85983 39.219 4.97073 39.3185 5.06197L42.9665 8.41271Z" fill="#04B3AC"/>
</svg>
