<svg width="58" height="58" viewBox="0 0 58 58" fill="none" xmlns="http://www.w3.org/2000/svg">
<path d="M53.9142 48.4303H18.385C17.8993 48.4303 17.5063 48.0368 17.5063 47.5515C17.5063 47.0662 17.8993 46.6727 18.385 46.6727H53.9142C55.198 46.6727 56.2424 45.6279 56.2424 44.3436V4.10387C56.2424 2.81015 55.198 1.75758 53.9142 1.75758H13.671C12.3829 1.75758 11.3341 2.81015 11.3341 4.10387V39.2906C11.3341 39.7759 10.9411 40.1694 10.4554 40.1694C9.96962 40.1694 9.57657 39.7759 9.57657 39.2906V4.10387C9.57657 1.84082 11.4131 0 13.671 0H53.9142C56.1669 0 58 1.84082 58 4.10387V44.3436C58 46.5972 56.1669 48.4303 53.9142 48.4303Z" fill="#04B3AC"/>
<path d="M19.7453 57.9999H0.878788C0.393052 57.9999 0 57.6064 0 57.1211V52.329C0 51.8437 0.393052 51.4502 0.878788 51.4502H19.7453C20.231 51.4502 20.6241 51.8437 20.6241 52.329V57.1211C20.6241 57.6064 20.231 57.9999 19.7453 57.9999ZM1.75758 56.2423H18.8665V53.2078H1.75758V56.2423Z" fill="#04B3AC"/>
<path d="M16.1228 53.2079H4.50122C2.76853 53.2079 1.35852 51.5606 1.35852 49.5361V42.087C1.35852 40.0621 2.76853 38.4148 4.50122 38.4148H12.4352C12.7965 38.4148 13.0909 38.0986 13.0909 37.7098V32.0617C13.0909 30.1475 14.476 28.5898 16.1786 28.5898C17.8804 28.5898 19.2655 30.1475 19.2655 32.0617V49.5361C19.2655 51.5606 17.8555 53.2079 16.1228 53.2079ZM4.50122 40.1724C3.7503 40.1724 3.1161 41.0491 3.1161 42.087V49.5361C3.1161 50.5737 3.7503 51.4503 4.50122 51.4503H16.1228C16.8738 51.4503 17.508 50.5737 17.508 49.5361V32.0617C17.508 31.1164 16.9115 30.3474 16.1786 30.3474C15.4449 30.3474 14.8484 31.1164 14.8484 32.0617V37.7098C14.8484 39.0679 13.7662 40.1724 12.4352 40.1724H4.50122Z" fill="#04B3AC"/>
<path d="M20.4601 13.4804C17.6692 13.4804 15.3993 11.2045 15.3993 8.40724C15.3993 5.60997 17.6692 3.33447 20.4601 3.33447C23.2509 3.33447 25.5208 5.60997 25.5208 8.40724C25.5208 11.2045 23.2509 13.4804 20.4601 13.4804ZM20.4601 5.09205C18.639 5.09205 17.1569 6.57929 17.1569 8.40724C17.1569 10.2356 18.639 11.7229 20.4601 11.7229C22.2812 11.7229 23.7633 10.2356 23.7633 8.40724C23.7633 6.57929 22.2812 5.09205 20.4601 5.09205Z" fill="#04B3AC"/>
<path d="M33.8384 13.4804C31.0476 13.4804 28.7776 11.2045 28.7776 8.40724C28.7776 5.60997 31.0476 3.33447 33.8384 3.33447C36.6284 3.33447 38.8983 5.60997 38.8983 8.40724C38.8983 11.2045 36.6284 13.4804 33.8384 13.4804ZM33.8384 5.09205C32.0173 5.09205 30.5352 6.57929 30.5352 8.40724C30.5352 10.2356 32.0173 11.7229 33.8384 11.7229C35.6595 11.7229 37.1407 10.2356 37.1407 8.40724C37.1407 6.57929 35.6595 5.09205 33.8384 5.09205Z" fill="#04B3AC"/>
<path d="M47.2159 13.4804C44.425 13.4804 42.1551 11.2045 42.1551 8.40724C42.1551 5.60997 44.425 3.33447 47.2159 3.33447C50.0067 3.33447 52.2766 5.60997 52.2766 8.40724C52.2766 11.2045 50.0067 13.4804 47.2159 13.4804ZM47.2159 5.09205C45.3948 5.09205 43.9127 6.57929 43.9127 8.40724C43.9127 10.2356 45.3948 11.7229 47.2159 11.7229C49.037 11.7229 50.5191 10.2356 50.5191 8.40724C50.5191 6.57929 49.037 5.09205 47.2159 5.09205Z" fill="#04B3AC"/>
<path d="M22.9608 19.5872H15.3384C14.8526 19.5872 14.4596 19.1937 14.4596 18.7084C14.4596 18.2231 14.8526 17.8296 15.3384 17.8296H22.9608C23.4466 17.8296 23.8396 18.2231 23.8396 18.7084C23.8396 19.1937 23.4466 19.5872 22.9608 19.5872Z" fill="#04B3AC"/>
<path d="M22.9608 25.2263H15.3384C14.8526 25.2263 14.4596 24.8328 14.4596 24.3475C14.4596 23.8622 14.8526 23.4688 15.3384 23.4688H22.9608C23.4466 23.4688 23.8396 23.8622 23.8396 24.3475C23.8396 24.8328 23.4466 25.2263 22.9608 25.2263Z" fill="#04B3AC"/>
<path d="M31.7985 42.8977C29.5046 42.8977 27.6389 41.0273 27.6389 38.7282C27.6389 36.4295 29.5046 34.5591 31.7985 34.5591C34.0925 34.5591 35.9582 36.4295 35.9582 38.7282C35.9582 41.0273 34.0925 42.8977 31.7985 42.8977ZM31.7985 36.3167C30.4743 36.3167 29.3964 37.3984 29.3964 38.7282C29.3964 40.0579 30.4743 41.1401 31.7985 41.1401C33.1227 41.1401 34.2006 40.0579 34.2006 38.7282C34.2006 37.3984 33.1227 36.3167 31.7985 36.3167Z" fill="#04B3AC"/>
<path d="M31.7985 36.3165C31.3128 36.3165 30.9197 35.923 30.9197 35.4377V15.952C30.9197 15.4667 31.3128 15.0732 31.7985 15.0732C32.2842 15.0732 32.6773 15.4667 32.6773 15.952V35.4377C32.6773 35.923 32.2842 36.3165 31.7985 36.3165Z" fill="#04B3AC"/>
<path d="M48.922 37.1106C46.6092 37.1106 44.728 35.156 44.728 32.7535C44.728 30.351 46.6092 28.3965 48.922 28.3965C51.2348 28.3965 53.116 30.351 53.116 32.7535C53.116 35.156 51.2348 37.1106 48.922 37.1106ZM48.922 30.1541C47.5789 30.1541 46.4856 31.3203 46.4856 32.7535C46.4856 34.1867 47.5789 35.353 48.922 35.353C50.2651 35.353 51.3584 34.1867 51.3584 32.7535C51.3584 31.3203 50.2651 30.1541 48.922 30.1541Z" fill="#04B3AC"/>
<path d="M48.922 42.8974C48.4363 42.8974 48.0432 42.5039 48.0432 42.0186V36.2284C48.0432 35.7431 48.4363 35.3496 48.922 35.3496C49.4078 35.3496 49.8008 35.7431 49.8008 36.2284V42.0186C49.8008 42.5039 49.4078 42.8974 48.922 42.8974Z" fill="#04B3AC"/>
<path d="M48.922 30.1602C48.4363 30.1602 48.0432 29.7668 48.0432 29.2815V15.952C48.0432 15.4667 48.4363 15.0732 48.922 15.0732C49.4078 15.0732 49.8008 15.4667 49.8008 15.952V29.2815C49.8008 29.7668 49.4078 30.1602 48.922 30.1602Z" fill="#04B3AC"/>
<path d="M40.5993 37.1105C40.1136 37.1105 39.7205 36.717 39.7205 36.2317V20.2123C39.7205 19.727 40.1136 19.3335 40.5993 19.3335C41.085 19.3335 41.4781 19.727 41.4781 20.2123V36.2317C41.4781 36.717 41.085 37.1105 40.5993 37.1105Z" fill="#04B3AC"/>
</svg>
