<svg width="56" height="56" viewBox="0 0 56 56" fill="none" xmlns="http://www.w3.org/2000/svg">
<path d="M28 55.9995C12.5603 55.9995 0 43.4387 0 27.9995C0 12.5608 12.5603 0 28 0C43.4398 0 56 12.5608 56 27.9995C56 43.4387 43.4398 55.9995 28 55.9995ZM28 2.09269C13.7149 2.09269 2.09269 13.7144 2.09269 27.9995C2.09269 42.2846 13.7149 53.9068 28 53.9068C42.2851 53.9068 53.9073 42.2846 53.9073 27.9995C53.9073 13.7144 42.2851 2.09269 28 2.09269Z" fill="#04B3AC"/>
<path d="M24.1294 19.8466C24.0415 19.8466 23.9526 19.8353 23.8637 19.8118L17.4926 18.1437C16.9347 17.9981 16.6006 17.429 16.7436 16.8705L18.3918 10.4688C18.5359 9.90884 19.1153 9.57471 19.6661 9.71674C20.226 9.86082 20.5632 10.431 20.4191 10.991L19.0305 16.3831L24.393 17.7876C24.952 17.9337 25.2871 18.506 25.141 19.0649C25.0173 19.5349 24.5933 19.8461 24.1294 19.8466Z" fill="#04B3AC"/>
<path d="M39.0449 46.3164C38.4829 46.3164 38.019 45.8698 38.0006 45.3037L37.8198 39.7389L32.2784 39.8952C31.6766 39.9264 31.2188 39.4569 31.2025 38.879C31.1861 38.3012 31.6418 37.8199 32.2192 37.8036L38.8018 37.6176C39.3474 37.5875 39.8583 38.0534 39.8767 38.6297L40.0913 45.2363C40.1107 45.8136 39.657 46.297 39.0797 46.3159C39.0684 46.3164 39.0572 46.3164 39.0449 46.3164Z" fill="#04B3AC"/>
<path d="M42.5211 34.0532C42.4199 34.0532 42.3177 34.0384 42.2156 34.0072C41.6627 33.8386 41.3511 33.2536 41.5207 32.7008C41.9264 31.3694 42.1328 29.9812 42.1328 28.5742C42.1328 20.7812 35.7924 14.4413 27.9999 14.4413C24.6392 14.4413 21.3816 15.6415 18.8291 17.821C18.3907 18.195 17.7306 18.1439 17.3536 17.7045C16.9786 17.2646 17.0307 16.6045 17.4701 16.229C20.4017 13.7266 24.1415 12.3486 27.9999 12.3486C36.947 12.3486 44.2255 19.6276 44.2255 28.5742C44.2255 30.1886 43.9884 31.7822 43.5214 33.3118C43.3845 33.7625 42.9697 34.0532 42.5211 34.0532Z" fill="#04B3AC"/>
<path d="M27.9999 44.7995C19.0529 44.7995 11.7744 37.5211 11.7744 28.5745C11.7744 26.5038 12.1596 24.4852 12.9209 22.5739C13.1345 22.0369 13.7394 21.7738 14.2799 21.9884C14.8164 22.2019 15.079 22.8104 14.8644 23.3474C14.2033 25.0114 13.8671 26.77 13.8671 28.5745C13.8671 36.3669 20.2075 42.7069 27.9999 42.7069C31.4588 42.7069 34.7869 41.4444 37.3721 39.1524C37.8033 38.7687 38.4644 38.8071 38.8486 39.2408C39.2318 39.6736 39.193 40.3347 38.7597 40.7179C35.7924 43.3501 31.9708 44.7995 27.9999 44.7995Z" fill="#04B3AC"/>
</svg>
