<svg width="58" height="58" viewBox="0 0 58 58" fill="none" xmlns="http://www.w3.org/2000/svg">
<path d="M55 0H3C2.20435 0 1.44129 0.316071 0.87868 0.87868C0.316071 1.44129 0 2.20435 0 3V48C0 48.7957 0.316071 49.5587 0.87868 50.1213C1.44129 50.6839 2.20435 51 3 51H25V54C25 55.0609 25.4214 56.0783 26.1716 56.8284C26.9217 57.5786 27.9391 58 29 58C30.0609 58 31.0783 57.5786 31.8284 56.8284C32.5786 56.0783 33 55.0609 33 54V51H55C55.7957 51 56.5587 50.6839 57.1213 50.1213C57.6839 49.5587 58 48.7957 58 48V3C58 2.20435 57.6839 1.44129 57.1213 0.87868C56.5587 0.316071 55.7957 0 55 0ZM3 2H55C55.2652 2 55.5196 2.10536 55.7071 2.29289C55.8946 2.48043 56 2.73478 56 3V10H2V3C2 2.73478 2.10536 2.48043 2.29289 2.29289C2.48043 2.10536 2.73478 2 3 2ZM28 42C28.6657 42.05 29.3343 42.05 30 42V44H28V42ZM31 54C31 54.5304 30.7893 55.0391 30.4142 55.4142C30.0391 55.7893 29.5304 56 29 56C28.4696 56 27.9609 55.7893 27.5858 55.4142C27.2107 55.0391 27 54.5304 27 54V46H31V54ZM55 49H33V45C33 44.7348 32.8946 44.4804 32.7071 44.2929C32.5196 44.1054 32.2652 44 32 44V41.64C34.8508 40.9749 37.3919 39.3628 39.2082 37.067C41.0245 34.7712 42.0087 31.9274 42 29C42.0019 28.6258 41.9819 28.2518 41.94 27.88C41.9242 27.7487 41.8828 27.6217 41.818 27.5065C41.7531 27.3912 41.6663 27.2898 41.5623 27.208C41.4583 27.1263 41.3392 27.0659 41.2118 27.0302C41.0845 26.9945 40.9513 26.9842 40.82 27C40.6887 27.0158 40.5617 27.0572 40.4464 27.122C40.3312 27.1869 40.2298 27.2737 40.148 27.3777C40.0663 27.4817 40.0059 27.6008 39.9702 27.7282C39.9345 27.8555 39.9242 27.9887 39.94 28.12C39.9752 28.4121 39.9952 28.7058 40 29C40.0125 31.6028 39.0958 34.1246 37.4148 36.1117C35.7338 38.0989 33.3988 39.4209 30.83 39.84C29.8981 40.0198 28.9462 40.0736 28 40C27.7149 39.9787 27.4311 39.942 27.15 39.89C25.4605 39.6052 23.8608 38.9297 22.4786 37.9173C21.0963 36.905 19.9697 35.5837 19.1884 34.0588C18.4071 32.534 17.9929 30.8477 17.9787 29.1344C17.9644 27.4211 18.3506 25.7282 19.1064 24.1905C19.8622 22.6529 20.9668 21.3131 22.332 20.2779C23.6973 19.2427 25.2855 18.5407 26.97 18.2279C28.6546 17.9151 30.3889 18.0001 32.0348 18.4762C33.6806 18.9522 35.1926 19.8062 36.45 20.97C36.5437 21.0701 36.6569 21.1499 36.7827 21.2044C36.9085 21.2588 37.0442 21.2869 37.1813 21.2867C37.3184 21.2866 37.454 21.2582 37.5797 21.2035C37.7054 21.1487 37.8184 21.0686 37.9119 20.9683C38.0053 20.868 38.0772 20.7496 38.1229 20.6203C38.1686 20.4911 38.1873 20.3538 38.1777 20.217C38.1682 20.0803 38.1306 19.9469 38.0673 19.8253C38.0041 19.7037 37.9165 19.5963 37.81 19.51C36.3562 18.1381 34.6057 17.1199 32.6944 16.5346C30.7831 15.9493 28.7626 15.8126 26.7899 16.1352C24.8173 16.4577 22.9455 17.2308 21.3202 18.3944C19.6949 19.558 18.3598 21.0807 17.4187 22.8442C16.4776 24.6077 15.9558 26.5644 15.894 28.5623C15.8321 30.5603 16.2317 32.5456 17.0619 34.3639C17.8921 36.1822 19.1304 37.7846 20.6806 39.0466C22.2307 40.3085 24.0511 41.196 26 41.64V44C25.7348 44 25.4804 44.1054 25.2929 44.2929C25.1054 44.4804 25 44.7348 25 45V49H3C2.73478 49 2.48043 48.8946 2.29289 48.7071C2.10536 48.5196 2 48.2652 2 48V12H56V48C56 48.2652 55.8946 48.5196 55.7071 48.7071C55.5196 48.8946 55.2652 49 55 49Z" fill="#04B3AC"/>
<path d="M39 8C40.1046 8 41 7.10457 41 6C41 4.89543 40.1046 4 39 4C37.8954 4 37 4.89543 37 6C37 7.10457 37.8954 8 39 8Z" fill="#04B3AC"/>
<path d="M45 8C46.1046 8 47 7.10457 47 6C47 4.89543 46.1046 4 45 4C43.8954 4 43 4.89543 43 6C43 7.10457 43.8954 8 45 8Z" fill="#04B3AC"/>
<path d="M51 8C52.1046 8 53 7.10457 53 6C53 4.89543 52.1046 4 51 4C49.8954 4 49 4.89543 49 6C49 7.10457 49.8954 8 51 8Z" fill="#04B3AC"/>
<path d="M40.44 22.8001C40.3796 22.6833 40.2968 22.5794 40.1962 22.4946C40.0957 22.4097 39.9794 22.3455 39.8541 22.3056C39.6009 22.2249 39.326 22.2482 39.09 22.3702C38.854 22.4921 38.6761 22.7029 38.5954 22.9561C38.5148 23.2093 38.538 23.4841 38.66 23.7201C38.82 24.0301 38.97 24.3301 39.12 24.6501C39.1974 24.8275 39.3246 24.9785 39.4861 25.085C39.6476 25.1915 39.8365 25.2489 40.03 25.2501C40.1684 25.2503 40.305 25.2195 40.43 25.1601C40.6703 25.0528 40.8586 24.8551 40.954 24.6099C41.0495 24.3647 41.0445 24.0917 40.94 23.8501C40.79 23.4901 40.62 23.1501 40.44 22.8001Z" fill="#04B3AC"/>
<path d="M6 7H25C25.2652 7 25.5196 6.89464 25.7071 6.70711C25.8946 6.51957 26 6.26522 26 6C26 5.73478 25.8946 5.48043 25.7071 5.29289C25.5196 5.10536 25.2652 5 25 5H6C5.73478 5 5.48043 5.10536 5.29289 5.29289C5.10536 5.48043 5 5.73478 5 6C5 6.26522 5.10536 6.51957 5.29289 6.70711C5.48043 6.89464 5.73478 7 6 7Z" fill="#04B3AC"/>
<path d="M33.71 24.2902C33.6168 24.1969 33.5061 24.123 33.3843 24.0725C33.2624 24.0221 33.1319 23.9961 33 23.9961C32.8681 23.9961 32.7376 24.0221 32.6157 24.0725C32.4939 24.123 32.3832 24.1969 32.29 24.2902C32.1968 24.3834 32.1228 24.4941 32.0723 24.6159C32.0219 24.7378 31.9959 24.8683 31.9959 25.0002C31.9959 25.132 32.0219 25.2626 32.0723 25.3844C32.1228 25.5063 32.1968 25.6169 32.29 25.7102L35.59 29.0002L32.29 32.2902C32.1963 32.3831 32.1219 32.4938 32.0711 32.6156C32.0203 32.7375 31.9942 32.8682 31.9942 33.0002C31.9942 33.1322 32.0203 33.2629 32.0711 33.3848C32.1219 33.5066 32.1963 33.6172 32.29 33.7102C32.383 33.8039 32.4936 33.8783 32.6154 33.9291C32.7373 33.9798 32.868 34.006 33 34.006C33.132 34.006 33.2627 33.9798 33.3846 33.9291C33.5064 33.8783 33.617 33.8039 33.71 33.7102L37.71 29.7102C37.8037 29.6172 37.8781 29.5066 37.9289 29.3848C37.9797 29.2629 38.0058 29.1322 38.0058 29.0002C38.0058 28.8682 37.9797 28.7375 37.9289 28.6156C37.8781 28.4937 37.8037 28.3831 37.71 28.2902L33.71 24.2902Z" fill="#04B3AC"/>
<path d="M25.71 24.2899C25.617 24.1962 25.5064 24.1218 25.3846 24.071C25.2627 24.0203 25.132 23.9941 25 23.9941C24.868 23.9941 24.7373 24.0203 24.6154 24.071C24.4936 24.1218 24.383 24.1962 24.29 24.2899L20.29 28.2899C20.1963 28.3829 20.1219 28.4935 20.0711 28.6154C20.0203 28.7372 19.9942 28.8679 19.9942 28.9999C19.9942 29.132 20.0203 29.2627 20.0711 29.3845C20.1219 29.5064 20.1963 29.617 20.29 29.7099L24.29 33.7099C24.383 33.8037 24.4936 33.8781 24.6154 33.9288C24.7373 33.9796 24.868 34.0057 25 34.0057C25.132 34.0057 25.2627 33.9796 25.3846 33.9288C25.5064 33.8781 25.617 33.8037 25.71 33.7099C25.8037 33.617 25.8781 33.5064 25.9289 33.3845C25.9797 33.2627 26.0058 33.132 26.0058 32.9999C26.0058 32.8679 25.9797 32.7372 25.9289 32.6154C25.8781 32.4935 25.8037 32.3829 25.71 32.2899L22.41 28.9999L25.71 25.7099C25.8037 25.617 25.8781 25.5064 25.9289 25.3845C25.9797 25.2627 26.0058 25.132 26.0058 24.9999C26.0058 24.8679 25.9797 24.7372 25.9289 24.6154C25.8781 24.4935 25.8037 24.3829 25.71 24.2899Z" fill="#04B3AC"/>
<path d="M30.2 23.0001C30.0685 22.9711 29.9325 22.9689 29.8001 22.9937C29.6677 23.0185 29.5417 23.0698 29.4296 23.1445C29.3175 23.2192 29.2217 23.3158 29.1479 23.4285C29.0741 23.5411 29.0238 23.6675 29 23.8001L27 33.8001C26.971 33.9316 26.9688 34.0677 26.9936 34.2C27.0184 34.3324 27.0697 34.4584 27.1444 34.5705C27.2191 34.6826 27.3157 34.7784 27.4284 34.8522C27.541 34.926 27.6674 34.9763 27.8 35.0001H28C28.234 35.0048 28.4621 34.9273 28.6449 34.7812C28.8276 34.635 28.9533 34.4294 29 34.2001L31 24.2001C31.0291 24.0686 31.0312 23.9326 31.0064 23.8002C30.9816 23.6678 30.9303 23.5418 30.8556 23.4297C30.7809 23.3176 30.6843 23.2218 30.5717 23.148C30.459 23.0742 30.3326 23.0239 30.2 23.0001Z" fill="#04B3AC"/>
</svg>
