<svg width="58" height="59" viewBox="0 0 58 59" fill="none" xmlns="http://www.w3.org/2000/svg">
<path d="M30.6852 45.4268H3.48758C1.78773 45.4268 0.439572 44.02 0.439572 42.3788V23.3874C0.439572 21.6875 1.84634 20.3394 3.48758 20.3394H30.6852C32.385 20.3394 33.7332 21.6875 33.7332 23.3874V42.3788C33.7332 44.0786 32.385 45.4268 30.6852 45.4268ZM3.48758 21.6875C2.54973 21.6875 1.78773 22.4495 1.78773 23.3874V42.3788C1.78773 43.3166 2.54973 44.0786 3.48758 44.0786H30.6852C31.623 44.0786 32.385 43.3166 32.385 42.3788V23.3874C32.385 22.4495 31.623 21.6875 30.6852 21.6875H3.48758Z" fill="#04B3AC"/>
<path d="M26.6994 49.1196H7.47348C7.23902 49.1196 7.00456 49.0024 6.88733 48.8265C6.7701 48.6507 6.71148 48.4162 6.82871 48.1817L8.2941 44.489C8.41133 44.1373 8.82164 43.9614 9.17333 44.0786C9.52503 44.1959 9.70087 44.6062 9.58364 44.9579L8.46995 47.7714H25.6443L24.5892 45.0165C24.472 44.6648 24.6478 44.2545 24.9995 44.1373C25.3512 44.02 25.7615 44.1959 25.8787 44.5476L27.3441 48.2404C27.4028 48.4748 27.4028 48.7093 27.2855 48.8851C27.1097 49.0024 26.9338 49.1196 26.6994 49.1196Z" fill="#04B3AC"/>
<path d="M32.3264 58.6153H1.84639C1.20162 58.6153 0.615463 58.2636 0.26377 57.7361C-0.0879232 57.1499 -0.0879232 56.5052 0.26377 55.919L3.0187 50.8781C3.13593 50.6436 3.37039 50.5264 3.60485 50.5264H30.5094C30.7438 50.5264 30.9783 50.6436 31.0955 50.8781L33.8504 55.919C34.1435 56.5052 34.1435 57.1499 33.8504 57.7361C33.5574 58.2636 32.9712 58.6153 32.3264 58.6153ZM4.01516 51.9331L1.43608 56.6224C1.31885 56.7982 1.37746 56.9741 1.43608 57.0913C1.49469 57.1499 1.61193 57.3258 1.84639 57.3258H32.3264C32.5609 57.3258 32.6781 57.1499 32.7368 57.0913C32.7954 57.0327 32.854 56.8568 32.7368 56.6224L30.1577 51.9331H4.01516Z" fill="#04B3AC"/>
<path d="M57.2966 53.9849H35.6675C35.3158 53.9849 34.9641 53.6918 34.9641 53.2815C34.9641 52.9298 35.2572 52.5781 35.6675 52.5781H56.5932V1.34816H25.4098L17.7898 8.96817V18.757C17.7898 19.1087 17.4967 19.4603 17.0864 19.4603C16.7347 19.4603 16.383 19.1673 16.383 18.757V8.73371C16.383 8.55786 16.4416 8.38202 16.5588 8.26478L24.6478 0.175846C24.765 0.0586155 24.9409 0 25.1167 0H57.2966C57.6483 0 58 0.293077 58 0.703386V53.2815C57.9414 53.6918 57.6483 53.9849 57.2966 53.9849Z" fill="#04B3AC"/>
<path d="M43.4633 29.1907C43.2875 29.1907 43.1116 29.1321 42.9944 29.0148L40.8843 26.9047C40.5912 26.6116 40.5912 26.2013 40.8843 25.9082C41.1773 25.6151 41.5876 25.6151 41.8807 25.9082L43.4633 27.4908L47.2733 23.4464C47.5078 23.1533 47.9767 23.1533 48.2698 23.4464C48.5629 23.6808 48.5629 24.1498 48.2698 24.4428L43.9909 29.0148C43.815 29.1321 43.6392 29.1907 43.4633 29.1907Z" fill="#04B3AC"/>
<path d="M43.4634 16.2952C43.2875 16.2952 43.1117 16.2366 42.9944 16.1193L40.8843 14.0092C40.5912 13.7161 40.5912 13.3058 40.8843 13.0127C41.1774 12.7196 41.5877 12.7196 41.8807 13.0127L43.4634 14.5953L47.2734 10.5509C47.5078 10.2578 47.9768 10.2578 48.2698 10.5509C48.5629 10.7853 48.5629 11.2542 48.2698 11.5473L43.9909 16.1193C43.8151 16.2366 43.6392 16.2952 43.4634 16.2952Z" fill="#04B3AC"/>
<path d="M41.5876 42.9653C41.4118 42.9653 41.2359 42.9067 41.1187 42.7895C40.8256 42.4964 40.8256 42.0861 41.1187 41.793L46.2769 36.6348C46.57 36.3418 46.9803 36.3418 47.2733 36.6348C47.5664 36.9279 47.5664 37.3382 47.2733 37.6313L42.0566 42.7895C41.9393 42.9067 41.7635 42.9653 41.5876 42.9653Z" fill="#04B3AC"/>
<path d="M46.6872 42.9653C46.5114 42.9653 46.3355 42.9067 46.2183 42.7895L41.0601 37.6313C40.7671 37.3382 40.7671 36.9279 41.0601 36.6348C41.3532 36.3418 41.7635 36.3418 42.0566 36.6348L47.2148 41.793C47.5079 42.0861 47.5079 42.4964 47.2148 42.7895C47.0389 42.9067 46.8631 42.9653 46.6872 42.9653Z" fill="#04B3AC"/>
<path d="M26.8165 11.1372H20.3102C19.9585 11.1372 19.6068 10.8441 19.6068 10.4338C19.6068 10.0235 19.8999 9.73044 20.3102 9.73044H26.1131V3.92751C26.1131 3.57581 26.4062 3.22412 26.8165 3.22412C27.1682 3.22412 27.5199 3.5172 27.5199 3.92751V10.4338C27.5199 10.8441 27.2268 11.1372 26.8165 11.1372Z" fill="#04B3AC"/>
</svg>
