<svg width="58" height="56" viewBox="0 0 58 56" fill="none" xmlns="http://www.w3.org/2000/svg">
<path d="M4.67742 5.14516C4.67742 4.37058 5.30606 3.74194 6.08065 3.74194C6.85523 3.74194 7.48387 4.37058 7.48387 5.14516C7.48387 5.91974 6.85523 6.54839 6.08065 6.54839C5.30606 6.54839 4.67742 5.91974 4.67742 5.14516ZM10.7581 6.54839C11.5326 6.54839 12.1613 5.91974 12.1613 5.14516C12.1613 4.37058 11.5326 3.74194 10.7581 3.74194C9.98348 3.74194 9.35484 4.37058 9.35484 5.14516C9.35484 5.91974 9.98348 6.54839 10.7581 6.54839ZM15.4355 6.54839C16.2101 6.54839 16.8387 5.91974 16.8387 5.14516C16.8387 4.37058 16.2101 3.74194 15.4355 3.74194C14.6609 3.74194 14.0323 4.37058 14.0323 5.14516C14.0323 5.91974 14.6609 6.54839 15.4355 6.54839ZM19.9193 20.8547L14.5805 26.1935L19.9193 31.5324L21.242 30.2096L17.226 26.1935L21.242 22.1775L19.9193 20.8547ZM29.2741 22.1775L33.2901 26.1935L29.2741 30.2096L30.5969 31.5324L35.9357 26.1935L30.5969 20.8547L29.2741 22.1775ZM45.776 44.4533L42.7582 41.4354L41.4354 42.7582L45.9014 47.2242L51.2346 40.8245L49.7967 39.6271L45.776 44.4533ZM58 43.0323C58 49.7378 52.5443 55.1936 45.8387 55.1936C39.7712 55.1936 34.7411 50.7219 33.8364 44.9032H2.80645C1.25916 44.9032 0 43.6441 0 42.0968V2.80645C0 1.25916 1.25916 0 2.80645 0H47.7097C49.257 0 50.5161 1.25916 50.5161 2.80645V31.8093C54.9064 33.6456 58 37.9835 58 43.0323ZM1.87097 2.80645V8.41935H48.6452V2.80645C48.6452 2.291 48.2261 1.87097 47.7097 1.87097H2.80645C2.29006 1.87097 1.87097 2.291 1.87097 2.80645ZM33.6774 43.0323C33.6774 36.3267 39.1332 30.871 45.8387 30.871C46.806 30.871 47.7424 30.9963 48.6452 31.2105V10.2903H1.87097V42.0968C1.87097 42.6122 2.29006 43.0323 2.80645 43.0323H33.6774ZM56.129 43.0323C56.129 37.3585 51.5124 32.7419 45.8387 32.7419C40.165 32.7419 35.5484 37.3585 35.5484 43.0323C35.5484 48.706 40.165 53.3226 45.8387 53.3226C51.5124 53.3226 56.129 48.706 56.129 43.0323ZM22.6574 32.7419H24.5854L27.8596 19.6452H25.9316L22.6574 32.7419Z" fill="#04B3AC"/>
</svg>
