<svg width="58" height="46" viewBox="0 0 58 46" fill="none" xmlns="http://www.w3.org/2000/svg">
<path d="M28.9893 23.4197C25.4487 23.4197 22.7784 25.9382 22.7784 29.2776C22.7784 31.0879 23.5262 32.1226 24.3221 33.2234C24.8777 33.9921 25.5079 34.8632 26.0022 36.1722C26.0433 36.3031 26.2661 37.1401 26.333 37.4764C26.3977 37.8022 26.6832 38.0376 27.016 38.0376C27.0167 38.0376 27.0167 38.0376 27.0174 38.0376L28.9879 38.0334L30.9626 38.0376C30.9633 38.0376 30.9633 38.0376 30.964 38.0376C31.2954 38.0376 31.5816 37.8036 31.6463 37.4785C31.7118 37.1526 31.9325 36.3164 31.9771 36.1694C32.4735 34.8618 33.103 33.9894 33.6614 33.2158C34.4545 32.1212 35.203 31.0872 35.203 29.2776C35.203 25.9389 32.5327 23.4197 28.9893 23.4197ZM32.5334 32.4018C31.9263 33.2415 31.2383 34.1934 30.6799 35.6716C30.6667 35.7001 30.6555 35.7294 30.6465 35.76C30.6144 35.8645 30.5065 36.2669 30.4118 36.6443L28.9879 36.6415L27.5689 36.6443C27.4728 36.262 27.3635 35.8589 27.3321 35.7593C27.3273 35.7447 27.3092 35.6918 27.3043 35.6786C26.7466 34.2024 26.06 33.252 25.4466 32.4011C24.7064 31.3783 24.171 30.6395 24.171 29.279C24.171 26.7333 26.2424 24.8137 28.9921 24.8137C31.739 24.8137 33.8104 26.7333 33.8104 29.279C33.8104 30.636 33.2757 31.3762 32.5334 32.4018ZM30.0351 38.9107H27.9463C27.5612 38.9107 27.25 39.222 27.25 39.607C27.25 39.9921 27.5612 40.3033 27.9463 40.3033H30.0351C30.4202 40.3033 30.7314 39.9921 30.7314 39.607C30.7314 39.222 30.4202 38.9107 30.0351 38.9107ZM49.6712 20.0114V19.4863C49.6712 8.74121 40.93 0 30.1855 0H30.0296C20.92 0 13.2204 6.05772 11.1288 14.7954C4.84757 15.5231 0 20.9089 0 27.2806V27.6643C0 34.5763 5.62393 40.1989 12.536 40.1989H17.8786C20.4632 43.5062 24.478 45.6438 28.9914 45.6438C33.5047 45.6438 37.5202 43.5062 40.1049 40.1989H48.1359C53.5746 40.1989 57.9988 35.7746 57.9988 30.3366V29.8088C58.0754 24.9007 54.4644 20.7174 49.6712 20.0114ZM39.2631 39.0013C39.2359 39.027 39.2192 39.0597 39.1962 39.0897C36.8769 42.2132 33.1719 44.2506 28.9907 44.2506C24.8791 44.2506 21.2271 42.2808 18.9008 39.2443C18.8583 39.1377 18.7866 39.0507 18.7009 38.9769C17.1809 36.8817 16.273 34.3145 16.273 31.5342C16.273 31.0044 16.3057 30.4724 16.3705 29.953C17.1566 23.6042 22.5821 18.8165 28.9907 18.8165C30.6298 18.8165 32.2263 19.1236 33.7352 19.7307C38.5786 21.679 41.7084 26.3121 41.7084 31.5349C41.7091 34.325 40.7935 36.9019 39.2631 39.0013ZM56.6055 30.3359C56.6055 35.0059 52.8059 38.8056 48.1352 38.8056H41.0602C42.3469 36.6784 43.1017 34.1962 43.1017 31.5342C43.1017 25.7397 39.6293 20.599 34.2553 18.4377C32.5808 17.7644 30.8094 17.4232 28.9907 17.4232C21.8809 17.4232 15.8615 22.7359 14.989 29.781C14.9173 30.3568 14.8811 30.9473 14.8811 31.5342C14.8811 34.1962 15.6352 36.6791 16.9219 38.8056H12.536C6.39124 38.8056 1.39258 33.8069 1.39258 27.6636V27.2799C1.39258 21.4603 5.94144 16.5647 11.7485 16.1344C12.0569 16.1114 12.3139 15.8879 12.3779 15.585C14.1528 7.22818 21.4116 1.39188 30.0296 1.39188H30.1855C40.162 1.39188 48.2786 9.50852 48.2786 19.4857V20.6317C48.2786 20.9945 48.5571 21.2967 48.9192 21.3259C53.2989 21.6776 56.6759 25.3937 56.6062 29.7963V30.3359H56.6055Z" fill="#04B3AC"/>
</svg>
