<svg width="55" height="74" viewBox="0 0 55 74" fill="none" xmlns="http://www.w3.org/2000/svg">
<path d="M5.46448 73.3334H49.5355C52.5536 73.3334 55 70.887 55 67.8689V5.46448C55 2.44636 52.5536 0 49.5355 0H5.46448C2.44635 0 0 2.44636 0 5.46448V67.8689C0 70.887 2.44635 73.3334 5.46448 73.3334ZM1.60417 5.46448C1.60417 3.33552 3.33552 1.60417 5.46448 1.60417H49.5355C51.6645 1.60417 53.3958 3.33552 53.3958 5.46448V67.8689C53.3958 69.9978 51.6645 71.7292 49.5355 71.7292H5.46448C3.33552 71.7292 1.60417 69.9978 1.60417 67.8689V5.46448Z" fill="#F33974"/>
<path d="M46.7077 61.2104H8.29135V62.8146H46.7077V61.2104Z" fill="#F33974"/>
<path d="M46.7077 56.9341H8.29135V58.5383H46.7077V56.9341Z" fill="#F33974"/>
<path d="M46.7077 52.6558H8.29135V54.2599H46.7077V52.6558Z" fill="#F33974"/>
<path d="M46.7077 48.3706H8.29135V49.9748H46.7077V48.3706Z" fill="#F33974"/>
<path d="M46.7077 39.8076H8.29135V41.4118H46.7077V39.8076Z" fill="#F33974"/>
<path d="M46.7077 44.0933H8.29135V45.6974H46.7077V44.0933Z" fill="#F33974"/>
<path d="M11.9229 30.8165C13.9281 30.8165 15.5529 29.1917 15.5529 27.1865C15.5529 26.334 15.2469 25.5606 14.7542 24.9407L21.0953 17.4779C21.5375 17.6704 22.0245 17.7792 22.5379 17.7792C23.0099 17.7792 23.458 17.683 23.8716 17.5191L29.5206 24.5878C28.8434 25.2478 28.4194 26.1656 28.4194 27.1865C28.4194 29.1917 30.0442 30.8165 32.0494 30.8165C34.0546 30.8165 35.6794 29.1917 35.6794 27.1865C35.6794 26.334 35.3735 25.5606 34.8819 24.9407L41.223 17.4779C41.6653 17.6704 42.1523 17.7792 42.6656 17.7792C44.6708 17.7792 46.2956 16.1544 46.2956 14.1492C46.2956 12.144 44.6708 10.5192 42.6656 10.5192C40.6604 10.5192 39.0356 12.144 39.0356 14.1492C39.0356 15.059 39.3816 15.8806 39.9351 16.5176L33.633 23.9335C33.1529 23.6986 32.6201 23.5554 32.0494 23.5554C31.6484 23.5554 31.2691 23.6356 30.9082 23.7559L25.1939 16.6059C25.7932 15.9585 26.1667 15.1003 26.1667 14.1481C26.1667 12.1429 24.5419 10.5181 22.5367 10.5181C20.5315 10.5181 18.9067 12.1429 18.9067 14.1481C18.9067 15.0579 19.2528 15.8794 19.8062 16.5165L13.5041 23.9323C13.024 23.6974 12.4912 23.5542 11.9206 23.5542C9.91535 23.5542 8.29056 25.179 8.29056 27.1842C8.29056 29.1894 9.91764 30.8165 11.9229 30.8165ZM42.6667 12.1222C43.7839 12.1222 44.6926 13.0309 44.6926 14.1481C44.6926 15.2653 43.7839 16.1739 42.6667 16.1739C41.5495 16.1739 40.6409 15.2653 40.6409 14.1481C40.6409 13.0309 41.5495 12.1222 42.6667 12.1222ZM34.0776 27.1854C34.0776 28.3025 33.1689 29.2112 32.0517 29.2112C30.9345 29.2112 30.0259 28.3025 30.0259 27.1854C30.0259 26.0682 30.9345 25.1595 32.0517 25.1595C33.1678 25.1595 34.0776 26.0682 34.0776 27.1854ZM22.539 12.1222C23.6562 12.1222 24.5648 13.0309 24.5648 14.1481C24.5648 15.2653 23.6562 16.1739 22.539 16.1739C21.4218 16.1739 20.5132 15.2653 20.5132 14.1481C20.5132 13.0309 21.4218 12.1222 22.539 12.1222ZM11.9229 25.1595C13.04 25.1595 13.9487 26.0682 13.9487 27.1854C13.9487 28.3025 13.04 29.2112 11.9229 29.2112C10.8057 29.2112 9.89702 28.3025 9.89702 27.1854C9.89702 26.0682 10.8057 25.1595 11.9229 25.1595Z" fill="#F33974"/>
</svg>
