<svg width="447" height="285" viewBox="0 0 447 285" fill="none" xmlns="http://www.w3.org/2000/svg">
<rect x="0.5" y="0.5" width="446" height="284" rx="4.5" fill="white" stroke="#B4B4B4"/>
<path d="M176.438 161.249L231.569 125.472L233.405 129.095C233.604 129.484 233.902 129.798 234.259 129.996C234.616 130.195 235.017 130.27 235.412 130.211C235.806 130.153 236.177 129.964 236.477 129.668C236.776 129.372 236.992 128.982 237.096 128.549L239.113 119.752C239.184 119.464 239.203 119.162 239.17 118.865C239.137 118.568 239.053 118.281 238.922 118.02C238.791 117.76 238.615 117.531 238.406 117.348C238.197 117.164 237.957 117.029 237.701 116.95L229.915 114.671C229.53 114.553 229.124 114.567 228.746 114.71C228.369 114.854 228.037 115.12 227.793 115.476C227.55 115.832 227.404 116.261 227.376 116.71C227.348 117.159 227.438 117.607 227.635 117.998L229.552 121.53L174.421 157.307L176.438 161.249Z" fill="#7818ED"/>
<path d="M279.983 124.401H267.879V78.8254C267.878 78.4326 267.788 78.0467 267.616 77.7051C267.444 77.3636 267.197 77.0781 266.898 76.8763C266.6 76.6745 266.26 76.5633 265.913 76.5535C265.565 76.5436 265.221 76.6355 264.914 76.8201L238.69 92.7716C238.359 92.9629 238.082 93.2534 237.888 93.6112C237.695 93.9691 237.592 94.3803 237.592 94.7997C237.592 95.2191 237.695 95.6304 237.888 95.9883C238.082 96.3461 238.359 96.6366 238.69 96.8279L263.845 110.25V124.401H251.741C251.206 124.401 250.693 124.641 250.315 125.069C249.937 125.496 249.724 126.076 249.724 126.68V147.189H223.5C222.965 147.189 222.452 147.429 222.074 147.856C221.695 148.284 221.483 148.863 221.483 149.468V167.698H195.259C194.724 167.698 194.211 167.938 193.832 168.366C193.454 168.793 193.241 169.373 193.241 169.977V183.65H167.017C166.482 183.65 165.969 183.89 165.591 184.317C165.213 184.744 165 185.324 165 185.928V206.438C165 207.042 165.213 207.622 165.591 208.049C165.969 208.476 166.482 208.716 167.017 208.716H279.983C280.518 208.716 281.031 208.476 281.409 208.049C281.787 207.622 282 207.042 282 206.438V126.68C282 126.076 281.787 125.496 281.409 125.069C281.031 124.641 280.518 124.401 279.983 124.401ZM244.116 94.6402L263.845 82.631V105.191L244.116 94.6402ZM277.966 204.159H169.034V188.207H195.259C195.794 188.207 196.307 187.967 196.685 187.54C197.063 187.112 197.276 186.533 197.276 185.928V172.256H223.5C224.035 172.256 224.548 172.016 224.926 171.588C225.305 171.161 225.517 170.581 225.517 169.977V151.747H251.741C252.276 151.747 252.789 151.507 253.168 151.079C253.546 150.652 253.759 150.072 253.759 149.468V128.959H277.966V204.159Z" fill="#7818ED"/>
</svg>
