<svg width="47" height="58" viewBox="0 0 47 58" fill="none" xmlns="http://www.w3.org/2000/svg">
<path d="M2.25341 58C2.13869 58 2.02333 57.9694 1.9188 57.905C1.61924 57.7196 1.52746 57.3269 1.7123 57.0274C1.76711 56.9388 7.20508 48.0928 7.05976 43.6632C6.91061 39.1112 5.66457 34.2717 4.02847 31.8924C2.31333 29.3965 -0.151988 23.5532 0.00735232 18.9387C0.178803 13.9519 4.45614 -0.247832 21.2716 0.00328857C28.8435 0.107816 38.4097 2.49155 40.9814 13.2559L41.0445 13.5166C41.172 14.0252 41.3167 14.5166 41.4575 14.9953C41.926 16.5868 42.3689 18.0897 42.0477 19.6984C41.6978 21.448 41.7698 21.6385 42.6621 23.1605C42.8967 23.5602 43.2918 24.1249 43.7106 24.7214C45.049 26.631 46.0006 28.0606 46.0599 29.0714C46.1689 30.923 45.0146 31.4654 43.9241 31.8293C43.6328 31.9262 43.2606 32.1008 43.1408 32.3787C43.0611 32.5623 43.0911 32.8057 43.2287 33.104C43.571 33.8453 43.4671 34.4425 43.3199 34.8122C43.188 35.1429 42.97 35.4317 42.6838 35.6624C43.0344 36.3775 43.0981 37.1972 42.1809 38.115C41.7258 38.5694 41.8093 38.7899 41.9598 39.1896C41.9846 39.2552 42.0082 39.3177 42.028 39.3782C42.2625 40.0838 42.5327 43.0246 40.7239 43.9774C39.961 44.3789 38.5091 44.5651 36.829 44.7805C35.2267 44.9857 33.2324 45.2413 32.704 45.6709C31.5689 46.5925 31.066 48.5116 31.4223 50.5601C31.5956 51.5601 31.3675 52.3925 31.1029 53.3562C30.8372 54.3237 30.5363 55.4187 30.5115 57.0669C30.5051 57.4194 30.1934 57.6775 29.8646 57.6947C29.5121 57.689 29.2317 57.3996 29.2367 57.0478C29.2642 55.237 29.602 54.0069 29.8735 53.0184C30.1157 52.135 30.2909 51.497 30.166 50.7781C29.7313 48.2828 30.4127 45.8889 31.8996 44.6811C32.7097 44.0227 34.632 43.776 36.6665 43.5153C38.0279 43.3413 39.5709 43.1431 40.1299 42.8493C41.1656 42.3043 40.9279 40.1093 40.8182 39.7817L40.7666 39.6395C40.5837 39.1539 40.2421 38.2494 41.2791 37.2137C41.7736 36.7185 41.7749 36.5082 41.2842 35.8064L40.8227 35.1474L41.5697 34.8491C41.8438 34.7395 42.0496 34.554 42.135 34.3405C42.2153 34.1404 42.1937 33.9033 42.0707 33.6381C41.7023 32.8395 41.8132 32.2378 41.9706 31.8726C42.2173 31.3022 42.7386 30.8809 43.5213 30.6202C44.6003 30.2601 44.8368 29.9848 44.7877 29.146C44.745 28.4181 43.4945 26.6335 42.6672 25.4531C42.2332 24.8343 41.824 24.2498 41.564 23.8056C40.5282 22.0388 40.3778 21.5557 40.7991 19.4492C41.0585 18.149 40.678 16.8551 40.2357 15.3567C40.0897 14.8615 39.9406 14.3528 39.8093 13.827L39.743 13.553C37.8303 5.55025 31.6096 1.42078 21.2544 1.27801C21.1187 1.2761 20.9823 1.27546 20.8484 1.27546C2.41021 1.27546 1.28654 18.8042 1.28016 18.9826C1.13166 23.311 3.45867 28.8139 5.0782 31.1709C6.83796 33.7305 8.17578 38.8505 8.33193 43.6211C8.49063 48.4351 3.02845 57.3225 2.79517 57.6985C2.67535 57.8929 2.46693 58 2.25341 58Z" fill="#7818ED"/>
<path d="M31.7653 18.342C31.9871 17.9354 32.1662 17.5173 32.3185 17.0941L30.6907 15.4758C30.7697 15.0864 30.8105 14.6944 30.8201 14.3031L32.7748 13.0915C32.7213 12.6383 32.6384 12.1902 32.5161 11.7517C32.5052 11.7122 32.4938 11.6727 32.4823 11.6332C32.3542 11.1966 32.1872 10.7727 31.9928 10.3597L29.6932 10.3661C29.4778 10.0391 29.2356 9.7281 28.9628 9.43937L29.488 7.20478C29.1349 6.92626 28.762 6.66621 28.3586 6.43867C28.3407 6.42848 28.3254 6.417 28.3076 6.40681C28.2897 6.39725 28.2712 6.39023 28.254 6.38067C27.8474 6.15887 27.4293 5.97977 27.0067 5.82808L25.3885 7.4559C24.999 7.37687 24.607 7.33608 24.2157 7.32588L23.0041 5.37109C22.5509 5.42463 22.1029 5.50749 21.6644 5.62922C21.6248 5.64006 21.5853 5.65153 21.5458 5.66301C21.1092 5.79112 20.6854 5.95874 20.2724 6.1525L20.2787 8.4521C19.9518 8.66753 19.6407 8.90973 19.352 9.18252L17.1174 8.65733C16.8389 9.01043 16.5788 9.38329 16.3513 9.78673C16.3411 9.80458 16.3296 9.81988 16.3194 9.83772C16.3092 9.85557 16.3029 9.87405 16.2933 9.89126C16.0715 10.2979 15.8924 10.716 15.7407 11.1392L17.3685 12.7575C17.2895 13.1469 17.2487 13.5389 17.2391 13.9302L15.2844 15.1418C15.3379 15.595 15.4208 16.0431 15.5431 16.4816C15.554 16.5211 15.5654 16.5606 15.5769 16.6001C15.705 17.0367 15.8726 17.4606 16.0664 17.8736L18.366 17.8672C18.5814 18.1942 18.8236 18.5058 19.0971 18.7939L18.5719 21.0285C18.925 21.307 19.2978 21.5671 19.7013 21.7946C19.7191 21.8042 19.7344 21.8163 19.7523 21.8265C19.7701 21.8361 19.7886 21.8431 19.8058 21.8526C20.2124 22.0744 20.6306 22.2535 21.0531 22.4052L22.6714 20.7774C23.0608 20.8564 23.4528 20.8972 23.8441 20.9068L25.0558 22.8616C25.5083 22.808 25.957 22.7252 26.3948 22.6034C26.4344 22.5926 26.4739 22.5811 26.5134 22.5697C26.95 22.4415 27.3738 22.2739 27.7868 22.0802L27.7805 19.7806C28.1074 19.5651 28.4185 19.3229 28.7072 19.0501L30.9418 19.5753C31.2203 19.2222 31.4804 18.8494 31.7079 18.4459C31.7181 18.4281 31.7296 18.4128 31.7398 18.3949C31.7487 18.3784 31.7557 18.3599 31.7653 18.342ZM28.2789 17.6409C27.7817 18.2407 27.175 18.7168 26.5032 19.0527L26.5089 21.228C26.2393 21.3217 25.9653 21.4001 25.6867 21.4632L24.5408 19.6142C23.7925 19.685 23.0258 19.6021 22.2871 19.3561L20.7523 20.9004C20.6242 20.8386 20.4954 20.7825 20.3692 20.7124C20.243 20.6423 20.1277 20.5626 20.0072 20.4868L20.5056 18.3669C19.9059 17.8698 19.4298 17.263 19.0939 16.5912L16.9186 16.5969C16.8249 16.3273 16.7465 16.0533 16.6834 15.7747L18.5324 14.6288C18.4616 13.8805 18.5445 13.1138 18.7905 12.3751L17.2462 10.8403C17.308 10.7122 17.3641 10.5834 17.4335 10.4572C17.503 10.3317 17.5833 10.2157 17.6592 10.0952L19.7784 10.5936C20.2755 9.99388 20.8823 9.51777 21.5547 9.18188L21.549 7.00656C21.8186 6.91287 22.0927 6.83448 22.3712 6.77138L23.5172 8.62036C24.2654 8.54962 25.0322 8.63247 25.7709 8.87849L27.3056 7.33417C27.4337 7.39599 27.5625 7.45208 27.6887 7.52219C27.8143 7.59166 27.9303 7.67197 28.0507 7.74781L27.5523 9.86768C28.1521 10.3648 28.6282 10.9716 28.9641 11.6434L31.1394 11.637C31.2331 11.9066 31.3115 12.1807 31.3746 12.4586L29.5256 13.6045C29.5963 14.3528 29.5135 15.1195 29.2674 15.8589L30.8118 17.3936C30.7499 17.5218 30.6939 17.6505 30.6244 17.7767C30.5549 17.9023 30.4746 18.0183 30.3988 18.1387L28.2789 17.6409Z" fill="#7818ED"/>
<path d="M24.0939 17.0621C23.5796 17.0621 23.0716 16.9314 22.6101 16.6752C21.1315 15.8543 20.5961 13.9836 21.417 12.5049C22.2373 11.0269 24.1067 10.4909 25.5872 11.3112C27.0653 12.1321 27.6013 14.0027 26.7804 15.4814C26.3833 16.1978 25.7307 16.7166 24.9422 16.9423C24.6631 17.0219 24.3769 17.0621 24.0939 17.0621ZM24.1022 12.2009C23.4712 12.2009 22.8587 12.5336 22.5311 13.1232C22.2991 13.5419 22.2436 14.0257 22.3756 14.4859C22.5069 14.946 22.8103 15.3278 23.229 15.5598C23.6471 15.7931 24.1321 15.8473 24.5923 15.716C25.0525 15.584 25.4336 15.2807 25.6669 14.8625C26.1462 13.9983 25.8333 12.9046 24.969 12.4253C24.6943 12.2729 24.396 12.2009 24.1022 12.2009Z" fill="#7818ED"/>
<path d="M12.893 24.2116C13.3918 24.2116 13.7961 23.8072 13.7961 23.3084C13.7961 22.8096 13.3918 22.4053 12.893 22.4053C12.3942 22.4053 11.9898 22.8096 11.9898 23.3084C11.9898 23.8072 12.3942 24.2116 12.893 24.2116Z" fill="#7818ED"/>
<path d="M16.6126 22.7122C16.6068 22.6746 16.6043 22.6376 16.5966 22.6C16.589 22.5624 16.5781 22.5267 16.5698 22.4898L17.6037 20.7447C17.2302 20.0601 16.7133 19.4776 16.1033 19.0206L14.2326 19.788C14.1625 19.7612 14.0924 19.7332 14.0204 19.7102L13.0293 17.9467C12.6526 17.9371 12.2702 17.9645 11.8852 18.0384C11.5003 18.1117 11.1344 18.2277 10.7883 18.3756L10.5175 20.3801C10.4588 20.4279 10.4047 20.4795 10.3498 20.5305L8.32749 20.5076C7.9285 21.157 7.66336 21.8894 7.56903 22.6631L9.17327 23.9041C9.17901 23.9417 9.18156 23.9786 9.1892 24.0163C9.19621 24.0539 9.20769 24.0895 9.21597 24.1265L8.18217 25.8716C8.55567 26.5561 9.07257 27.1387 9.68252 27.5957L11.5538 26.8283C11.6239 26.8551 11.6934 26.8831 11.7648 26.9054L12.7559 28.669C13.1326 28.6786 13.515 28.6511 13.8999 28.5772C14.2849 28.5039 14.6508 28.3879 14.9968 28.24L15.2677 26.2355C15.3264 26.1877 15.3805 26.1361 15.436 26.0851L17.4583 26.1081C17.8573 25.4586 18.1225 24.7263 18.2168 23.9525L16.6126 22.7122ZM16.6858 24.8244L14.8789 24.804C14.668 25.0845 14.3977 25.3165 14.0829 25.4892L13.8407 27.2815C13.7808 27.2955 13.7221 27.314 13.6609 27.3254C13.5997 27.3369 13.5392 27.342 13.478 27.3509L12.5927 25.7747C12.2364 25.7308 11.8993 25.6148 11.5997 25.4318L9.92791 26.1176C9.84314 26.0284 9.76155 25.9353 9.68443 25.8378L10.6016 24.2897C10.5321 24.1278 10.4767 23.957 10.4423 23.7772C10.4078 23.5969 10.397 23.4184 10.4015 23.2419L8.9776 22.1411C9.01329 22.0226 9.05472 21.9059 9.10061 21.7912L10.9082 21.8116C11.1191 21.5312 11.3894 21.2985 11.7042 21.1265L11.9458 19.3348C12.0057 19.3208 12.0643 19.303 12.1255 19.2909C12.1867 19.2794 12.2479 19.2743 12.3091 19.2654L13.1957 20.8416C13.5519 20.8855 13.8885 21.0015 14.188 21.1845L15.8598 20.4987C15.9452 20.5885 16.0262 20.6809 16.1033 20.7785L15.1868 22.3266C15.2562 22.4885 15.3117 22.6593 15.3461 22.839C15.3805 23.0194 15.3914 23.1979 15.3869 23.3744L16.8101 24.4752C16.7738 24.5937 16.7324 24.7103 16.6858 24.8244Z" fill="#7818ED"/>
</svg>
