<svg width="55" height="55" viewBox="0 0 55 55" fill="none" xmlns="http://www.w3.org/2000/svg">
<path d="M42.3958 12.6042C45.5547 12.6042 48.125 9.77707 48.125 6.30208C48.125 2.8271 45.5547 0 42.3958 0C39.2369 0 36.6667 2.8271 36.6667 6.30208C36.6667 9.77707 39.2369 12.6042 42.3958 12.6042ZM42.3958 2.29167C44.2914 2.29167 45.8333 4.09098 45.8333 6.30208C45.8333 8.51318 44.2914 10.3125 42.3958 10.3125C40.5003 10.3125 38.9583 8.51318 38.9583 6.30208C38.9583 4.09098 40.5003 2.29167 42.3958 2.29167Z" fill="#7818ED"/>
<path d="M42.3958 33.6699C41.7631 33.6699 41.25 34.183 41.25 34.8158V53.854C41.25 54.4868 41.7631 54.9999 42.3958 54.9999C43.0286 54.9999 43.5417 54.4868 43.5417 53.854V34.8158C43.5417 34.183 43.0286 33.6699 42.3958 33.6699Z" fill="#7818ED"/>
<path d="M46.9792 14.8955H40.1042C39.4714 14.8955 38.9583 15.4086 38.9583 16.0413C38.9583 16.6741 39.4714 17.1872 40.1042 17.1872H46.9792C49.6222 17.1872 52.7083 18.3873 52.7083 21.7705V31.0412C52.7083 32.2475 51.6806 33.2288 50.4167 33.2288V22.9163C50.4167 22.2836 49.9036 21.7705 49.2708 21.7705C48.6381 21.7705 48.125 22.2836 48.125 22.9163V53.8538C48.125 54.4866 48.6381 54.9997 49.2708 54.9997C49.9036 54.9997 50.4167 54.4866 50.4167 53.8538V35.5205C52.9439 35.5205 55 33.5114 55 31.0412V21.7705C55 17.7226 51.7018 14.8955 46.9792 14.8955Z" fill="#7818ED"/>
<path d="M12.6042 12.6042C15.763 12.6042 18.3333 9.77707 18.3333 6.30208C18.3333 2.8271 15.763 0 12.6042 0C9.44529 0 6.875 2.8271 6.875 6.30208C6.875 9.77707 9.44529 12.6042 12.6042 12.6042ZM12.6042 2.29167C14.4997 2.29167 16.0417 4.09098 16.0417 6.30208C16.0417 8.51318 14.4997 10.3125 12.6042 10.3125C10.7086 10.3125 9.16667 8.51318 9.16667 6.30208C9.16667 4.09098 10.7086 2.29167 12.6042 2.29167Z" fill="#7818ED"/>
<path d="M12.6042 33.6699C11.9714 33.6699 11.4583 34.183 11.4583 34.8158V53.854C11.4583 54.4868 11.9714 54.9999 12.6042 54.9999C13.237 54.9999 13.75 54.4868 13.75 53.854V34.8158C13.75 34.183 13.237 33.6699 12.6042 33.6699Z" fill="#7818ED"/>
<path d="M8.02083 17.1872H14.8958C15.5286 17.1872 16.0417 16.6741 16.0417 16.0413C16.0417 15.4086 15.5286 14.8955 14.8958 14.8955H8.02083C3.29819 14.8955 0 17.7226 0 21.7705V31.0412C0 33.5114 2.05612 35.5205 4.58333 35.5205V53.8538C4.58333 54.4866 5.09638 54.9997 5.72917 54.9997C6.36195 54.9997 6.875 54.4866 6.875 53.8538V22.9163C6.875 22.2836 6.36195 21.7705 5.72917 21.7705C5.09638 21.7705 4.58333 22.2836 4.58333 22.9163V33.2288C3.31945 33.2288 2.29167 32.2475 2.29167 31.0412V21.7705C2.29167 18.3873 5.37781 17.1872 8.02083 17.1872Z" fill="#7818ED"/>
<path d="M27.5 17.1878C31.2911 17.1878 34.375 13.8466 34.375 9.73991C34.375 5.63326 31.2911 2.29199 27.5 2.29199C23.7089 2.29199 20.625 5.63326 20.625 9.73991C20.625 13.8466 23.7089 17.1878 27.5 17.1878ZM27.5 4.58366C30.0272 4.58366 32.0833 6.89659 32.0833 9.73991C32.0833 12.5832 30.0272 14.8962 27.5 14.8962C24.9728 14.8962 22.9167 12.5832 22.9167 9.73991C22.9167 6.89659 24.9728 4.58366 27.5 4.58366Z" fill="#7818ED"/>
<path d="M27.5 36.8965C26.8672 36.8965 26.3542 37.4095 26.3542 38.0423V53.8546C26.3542 54.4874 26.8672 55.0004 27.5 55.0004C28.1328 55.0004 28.6458 54.4874 28.6458 53.8546V38.0423C28.6458 37.4095 28.1328 36.8965 27.5 36.8965Z" fill="#7818ED"/>
<path d="M32.0464 19.5527H22.9536C18.5107 19.5527 14.8958 23.1178 14.8958 27.4997V36.6664C14.8958 39.1936 16.952 41.2497 19.4792 41.2497V53.8539C19.4792 54.4867 19.9922 54.9997 20.625 54.9997C21.2578 54.9997 21.7708 54.4867 21.7708 53.8539V27.4997C21.7708 26.8669 21.2578 26.3539 20.625 26.3539C19.9922 26.3539 19.4792 26.8669 19.4792 27.4997V38.958C18.2371 38.958 17.1875 37.9084 17.1875 36.6664V27.4997C17.1875 24.3811 19.774 21.8444 22.9536 21.8444H32.0464C35.226 21.8444 37.8125 24.3811 37.8125 27.4997V36.6664C37.8125 37.9084 36.7629 38.958 35.5208 38.958V27.4997C35.5208 26.8669 35.0078 26.3539 34.375 26.3539C33.7422 26.3539 33.2292 26.8669 33.2292 27.4997V53.8539C33.2292 54.4867 33.7422 54.9997 34.375 54.9997C35.0078 54.9997 35.5208 54.4867 35.5208 53.8539V41.2497C38.0481 41.2497 40.1042 39.1936 40.1042 36.6664V27.4997C40.1042 23.1178 36.4893 19.5527 32.0464 19.5527Z" fill="#7818ED"/>
</svg>
