<svg width="58" height="46" viewBox="0 0 58 46" fill="none" xmlns="http://www.w3.org/2000/svg">
<path d="M47.6058 11.6185C46.3222 11.6185 45.0881 11.8437 43.9299 12.2892C41.6418 9.684 38.0399 8.94602 35.0579 10.0981C33.0853 4.11335 27.4448 0 21.0716 0C13.8529 0 7.68306 5.28452 6.55069 12.3601C2.61528 13.9135 0 17.733 0 21.9944C0 27.7209 4.6588 32.3797 10.3853 32.3797H14.6962V34.2702C14.6962 34.6047 14.9375 34.8902 15.2675 34.9459L18.278 35.4526C18.4211 35.8593 18.5844 36.2509 18.765 36.6228L16.9882 39.115C16.7937 39.388 16.8249 39.7613 17.0622 39.9976L20.7064 43.6333C20.9437 43.8706 21.3174 43.9014 21.589 43.7056L24.074 41.9283C24.45 42.1094 24.8434 42.2726 25.2497 42.4162L25.7483 45.4249C25.8027 45.7554 26.089 45.998 26.424 45.998H31.5756C31.9101 45.998 32.1955 45.7567 32.2513 45.4267L32.7584 42.4162C33.1575 42.2744 33.5482 42.1112 33.9264 41.9283L36.4106 43.7056C36.6831 43.9014 37.0564 43.8706 37.2932 43.6333L40.9378 39.9976C41.1751 39.7613 41.2063 39.388 41.0118 39.115L39.235 36.6228C39.4152 36.2513 39.578 35.8602 39.722 35.453L42.7409 34.9459C43.071 34.8906 43.3127 34.6047 43.3127 34.2702V32.3797H47.6058C53.3372 32.3797 58 27.7209 58 21.9944C58 16.2732 53.3372 11.6185 47.6058 11.6185ZM41.9426 33.6904L39.0891 34.1699C38.8349 34.2127 38.6262 34.3942 38.5491 34.64C38.3551 35.2568 38.1138 35.8343 37.8324 36.3566C37.7084 36.5862 37.7258 36.8668 37.8774 37.0795L39.5592 39.4379L36.7361 42.2539L34.3858 40.5725C34.1739 40.4209 33.8943 40.4012 33.6655 40.5248C33.1218 40.8138 32.5429 41.0555 31.9453 41.2437C31.6996 41.3209 31.5181 41.5291 31.4752 41.7834L30.9962 44.6279H27.0046L26.5337 41.7851C26.4917 41.5305 26.3098 41.3209 26.0636 41.2437C25.4504 41.0506 24.8688 40.8089 24.3345 40.5248C24.1048 40.4017 23.8256 40.4209 23.6142 40.5725L21.2634 42.2539L18.4408 39.4379L20.1226 37.0795C20.2742 36.8668 20.2916 36.5863 20.1676 36.3566C19.8853 35.8325 19.644 35.255 19.4514 34.6404C19.3742 34.3947 19.1655 34.2127 18.9113 34.1699L16.0663 33.6909C16.0663 33.5835 16.0663 29.5717 16.0663 29.7073L18.9113 29.2279C19.1655 29.1851 19.3738 29.0031 19.4509 28.7574C19.6427 28.1472 19.8844 27.5657 20.1694 27.0292C20.2916 26.7995 20.2729 26.5207 20.1217 26.3093L18.4416 23.9594L21.2634 21.1443L23.6147 22.8253C23.8283 22.9791 24.1119 22.9961 24.3416 22.869C24.8733 22.5782 25.4495 22.3387 26.0547 22.1572C26.3053 22.0822 26.4913 21.8708 26.5337 21.6126L27.0051 18.761H30.9958L31.4752 21.6144C31.5185 21.8717 31.704 22.0822 31.9542 22.1572C32.5451 22.3347 33.1187 22.5742 33.6583 22.8694C33.8889 22.9952 34.1717 22.9791 34.3857 22.8253L36.7361 21.1443L39.5583 23.9594L37.8783 26.3093C37.7271 26.5207 37.7083 26.7995 37.8306 27.0292C38.1142 27.5634 38.3564 28.1455 38.549 28.7578C38.6262 29.0035 38.8349 29.1851 39.0887 29.2279L41.9426 29.7073C41.9426 29.7987 41.9426 33.8261 41.9426 33.6904ZM47.6058 31.0096H43.3127V29.128C43.3127 28.7935 43.0709 28.5081 42.7413 28.4523L39.722 27.9448C39.5784 27.5385 39.4152 27.1451 39.2337 26.7687L41.0109 24.2832C41.2063 24.0107 41.175 23.6365 40.9378 23.3997L37.2932 19.7644C37.0554 19.5285 36.683 19.4977 36.4105 19.6926L33.9299 21.4668C33.5504 21.2799 33.1579 21.1162 32.7574 20.9775L32.2512 17.9626C32.1959 17.6326 31.9101 17.3909 31.5756 17.3909H26.4239C26.0886 17.3909 25.8027 17.6335 25.7483 17.9644L25.2501 20.9771C24.8429 21.1176 24.4487 21.2812 24.07 21.4672L21.5885 19.6926C21.3178 19.4977 20.9436 19.5285 20.7064 19.7649L17.0622 23.4001C16.8249 23.637 16.7937 24.0107 16.989 24.2832L18.7663 26.7687C18.5843 27.146 18.4211 27.5394 18.2779 27.9452L15.2675 28.4523C14.9375 28.5081 14.6962 28.7935 14.6962 29.128V31.0096H10.3853C5.41428 31.0096 1.37005 26.9654 1.37005 21.9944C1.37005 18.1745 3.79177 14.764 7.39581 13.5072C7.64021 13.422 7.81593 13.2062 7.84938 12.9497C8.7146 6.34821 14.3992 1.37009 21.0716 1.37009C27.0956 1.37009 32.3975 5.42101 33.9647 11.2215C34.0187 11.4213 34.1605 11.5863 34.3505 11.6697C34.5396 11.7531 34.7572 11.7451 34.9414 11.651C37.5456 10.2995 41.1155 10.8508 43.1811 13.534C43.3733 13.7842 43.7131 13.8716 44.003 13.7418C45.1229 13.2419 46.3351 12.9885 47.6057 12.9885C52.5816 12.9885 56.6299 17.0287 56.6299 21.9944C56.6299 26.9654 52.5817 31.0096 47.6058 31.0096Z" fill="#7818ED"/>
<path d="M29.0035 24.5791C25.0766 24.5791 21.882 27.7706 21.882 31.6935C21.882 35.6205 25.0766 38.8155 29.0035 38.8155C32.9305 38.8155 36.1251 35.6204 36.1251 31.6935C36.1251 27.7706 32.9305 24.5791 29.0035 24.5791ZM29.0035 37.4454C25.8321 37.4454 23.2521 34.8649 23.2521 31.6935C23.2521 28.5261 25.8321 25.9492 29.0035 25.9492C32.175 25.9492 34.755 28.5261 34.755 31.6935C34.755 34.865 32.175 37.4454 29.0035 37.4454Z" fill="#7818ED"/>
</svg>
