<?xml version="1.0" encoding="utf-8"?>
<!-- Generator: Adobe Illustrator 25.3.1, SVG Export Plug-In . SVG Version: 6.00 Build 0)  -->
<svg version="1.1" id="Layer_1" xmlns="http://www.w3.org/2000/svg" xmlns:xlink="http://www.w3.org/1999/xlink" x="0px" y="0px"
	 viewBox="0 0 39.9 41.9" style="enable-background:new 0 0 39.9 41.9;" xml:space="preserve">
<style type="text/css">
	.st0{fill:#202F62;}
</style>
<g>
	<path class="st0" d="M30.4,28.7H3.2c-1.6,0-2.8-1.3-2.8-2.8v-19c0-1.6,1.3-2.8,2.8-2.8h21.2c0.3,0,0.4,0.2,0.4,0.4
		c0,0.3-0.2,0.4-0.4,0.4H3.2c-1.1,0-1.9,0.9-1.9,1.9v19c0,1.1,0.9,1.9,1.9,1.9h27.2c1.1,0,1.9-0.9,1.9-1.9V15.2
		c0-0.3,0.2-0.4,0.4-0.4c0.3,0,0.4,0.2,0.4,0.4v10.7C33.2,27.5,32,28.7,30.4,28.7z"/>
	<path class="st0" d="M26.4,32.4H7.2c-0.1,0-0.3-0.1-0.3-0.2c-0.1-0.1-0.1-0.3,0-0.4l1.5-3.7c0.1-0.2,0.3-0.3,0.5-0.3
		s0.3,0.3,0.3,0.5L8,31.4h17.9l-1.2-3.1c-0.1-0.2,0-0.5,0.3-0.5c0.2-0.1,0.5,0,0.5,0.3l1.5,3.7c0,0.1,0,0.3,0,0.4
		C26.7,32.3,26.6,32.4,26.4,32.4z"/>
	<path class="st0" d="M3.6,35.1L1,39.9c-0.1,0.2-0.1,0.5,0,0.7s0.3,0.3,0.6,0.3h30.5c0.3,0,0.5-0.1,0.6-0.3c0.1-0.2,0.1-0.5,0-0.7
		l-2.6-4.8C30.1,35.1,3.6,35.1,3.6,35.1z M32,41.9H1.5c-0.5,0-1.1-0.3-1.3-0.8c-0.3-0.5-0.3-1.1,0-1.6l2.8-5
		c0.1-0.1,0.2-0.2,0.4-0.2h26.9c0.2,0,0.3,0.1,0.4,0.2l2.8,5c0.3,0.5,0.3,1.1,0,1.6C33.1,41.6,32.6,41.9,32,41.9z"/>
	<path class="st0" d="M26.7,13h7.4h2.6V9.2c0-0.3,0.2-0.6,0.5-0.8c0.3-0.1,0.6-0.1,0.9,0.1c0.2,0.1,0.4,0.2,0.5,0.2
		c0.2,0,0.4-0.2,0.4-0.4V7.7c0-0.2-0.2-0.4-0.4-0.4s-0.4,0.1-0.5,0.2c-0.3,0.2-0.6,0.2-0.9,0.1c-0.3-0.1-0.5-0.4-0.5-0.8V3h-3.9
		c-0.3,0-0.6-0.2-0.8-0.5s-0.1-0.6,0.1-0.9c0.1-0.2,0.2-0.3,0.2-0.5s-0.2-0.4-0.4-0.4h-0.6c-0.2,0-0.4,0.2-0.4,0.4s0.1,0.4,0.2,0.5
		c0.2,0.3,0.2,0.6,0.1,0.9S30.8,3,30.4,3h-3.7v3.4c0.3-0.1,0.5-0.2,0.8-0.2c0.8,0,1.5,0.6,1.5,1.5v0.6c0,0.8-0.6,1.5-1.5,1.5
		c-0.3,0-0.6-0.1-0.8-0.2L26.7,13L26.7,13z M34.1,13.8h-7.6c-0.4,0-0.7-0.3-0.7-0.7v-4c0,0,0,0,0-0.1c0-0.2,0.2-0.4,0.3-0.5
		c0.2-0.1,0.5-0.1,0.7,0.1s0.4,0.2,0.7,0.2c0.3,0,0.6-0.3,0.6-0.6V7.7c0-0.3-0.3-0.6-0.6-0.6c-0.3,0-0.5,0.1-0.7,0.3
		c-0.2,0.1-0.5,0.2-0.7,0.1c-0.2-0.1-0.3-0.3-0.3-0.5l0,0l0,0l0,0V3c0-0.4,0.3-0.7,0.7-0.7h3.9c-0.2-0.3-0.3-0.7-0.3-1.1
		c0-0.7,0.5-1.2,1.2-1.2h0.6c0.7,0,1.2,0.5,1.2,1.2c0,0.4-0.1,0.8-0.3,1.1h4c0.1,0,0.2,0,0.3,0c0.3,0.1,0.5,0.4,0.5,0.7v4
		c0.3-0.2,0.7-0.3,1.1-0.3c0.7,0,1.2,0.5,1.2,1.2v0.6c0,0.7-0.5,1.2-1.2,1.2c-0.4,0-0.8-0.1-1.1-0.3v3.9c0,0.3-0.2,0.6-0.5,0.7
		c-0.1,0-0.2,0-0.3,0L34.1,13.8z"/>
	<path class="st0" d="M11.2,21.6C11.1,21.8,11,22,11,22.1c0,0.2,0.2,0.4,0.4,0.4H12c0.2,0,0.4-0.2,0.4-0.4s-0.1-0.4-0.2-0.5
		C12,21.3,12,21,12.1,20.7c0.1-0.3,0.4-0.5,0.8-0.5h3.8v-3.9c0-0.3,0.2-0.6,0.5-0.8c0.3-0.1,0.6-0.1,0.9,0.1
		c0.2,0.1,0.3,0.2,0.5,0.2s0.4-0.2,0.4-0.4v-0.6c0-0.2-0.2-0.4-0.4-0.4s-0.4,0.1-0.5,0.2c-0.3,0.2-0.6,0.2-0.9,0.1
		c-0.3-0.1-0.5-0.4-0.5-0.8v-3.7h-3.4c0.1,0.3,0.2,0.5,0.2,0.8c0,0.8-0.6,1.5-1.5,1.5h-0.6c-0.8,0-1.5-0.6-1.5-1.5
		c0-0.3,0.1-0.6,0.2-0.8H6.7v7.5v2.6h3.8c0.3,0,0.6,0.2,0.8,0.5c0,0.1,0.1,0.3,0.1,0.4C11.4,21.3,11.3,21.4,11.2,21.6z M12,23.4
		h-0.6c-0.7,0-1.2-0.5-1.2-1.2c0-0.4,0.1-0.8,0.3-1.1H6.6c-0.3,0-0.6-0.2-0.7-0.5c0-0.1,0-0.2,0-0.3v-2.6v-7.6
		c0-0.4,0.3-0.7,0.7-0.7h4c0,0,0,0,0.1,0c0.2,0,0.4,0.2,0.5,0.3c0.1,0.2,0.1,0.5-0.1,0.7s-0.2,0.4-0.2,0.7s0.3,0.6,0.6,0.6h0.6
		c0.3,0,0.6-0.3,0.6-0.6s-0.1-0.5-0.3-0.7c-0.1-0.2-0.2-0.5-0.1-0.7s0.3-0.3,0.5-0.3l0,0l0,0l0,0h4c0.4,0,0.7,0.3,0.7,0.7V14
		c0.3-0.2,0.7-0.3,1.1-0.3c0.7,0,1.2,0.5,1.2,1.2v0.6c0,0.7-0.5,1.2-1.2,1.2c-0.4,0-0.8-0.1-1.1-0.3v4c0,0.1,0,0.2,0,0.3
		c-0.1,0.3-0.4,0.5-0.7,0.5h-4c0.2,0.3,0.3,0.7,0.3,1.1C13.2,22.8,12.7,23.4,12,23.4z"/>
</g>
</svg>
