<?xml version="1.0" encoding="utf-8"?>
<!-- Generator: Adobe Illustrator 25.3.1, SVG Export Plug-In . SVG Version: 6.00 Build 0)  -->
<svg version="1.1" id="Layer_1" xmlns="http://www.w3.org/2000/svg" xmlns:xlink="http://www.w3.org/1999/xlink" x="0px" y="0px"
	 viewBox="0 0 35.7 37.7" style="enable-background:new 0 0 35.7 37.7;" xml:space="preserve">
<style type="text/css">
	.st0{fill:#202F62;}
</style>
<g>
	<path class="st0" d="M19.1,36.4c1.3-1.7,2.2-4.6,2.7-8h8.5C28.1,32.6,24,35.6,19.1,36.4z M16.7,36.6c-1.5,0-3.1-3.2-3.9-8.2h7.8
		C19.8,33.4,18.2,36.6,16.7,36.6z M3.1,28.3h8.5c0.5,3.4,1.5,6.4,2.7,8C9.5,35.6,5.3,32.6,3.1,28.3z M1.3,21.1c0-1,0.1-1.9,0.3-2.8
		h9.6c-0.1,0.9-0.1,1.9-0.1,2.8c0,2,0.1,4.1,0.4,6H2.6C1.7,25.3,1.3,23.2,1.3,21.1z M14.3,5.8c-1.7,2.1-2.7,6.5-3.1,11.2H1.8
		C3.4,11.2,8.3,6.8,14.3,5.8z M21.1,18.3c0.1,0.9,0.1,1.9,0.1,2.8c0,2.2-0.1,4.2-0.4,6h-8.2c-0.2-1.8-0.4-3.8-0.4-6
		c0-1,0-1.9,0.1-2.8H21.1z M31.9,18.3c0.2,0.9,0.3,1.8,0.3,2.8c0,2.1-0.4,4.2-1.2,6h-8.9c0.2-1.9,0.4-4,0.4-6c0-0.9,0-1.9-0.1-2.8
		L21.1,17h-8.7c0.6-6.9,2.5-11.4,4.3-11.4c0.2,0,0.5,0.1,0.7,0.2c0.1-0.5,0.3-1,0.5-1.4c-0.4,0-0.8-0.1-1.2-0.1C7.5,4.3,0,11.8,0,21
		s7.5,16.7,16.7,16.7c6.6,0,12.3-3.9,15-9.4h0.1v-0.2c1-2.1,1.5-4.5,1.5-7c0-1.3-0.2-2.7-0.5-3.9L31.9,18.3z"/>
	<path class="st0" d="M27.1,1.2c4.1,0,7.4,3.3,7.4,7.4c0,1.8-0.8,3.7-2.2,5.3l-5.2,5.9l-5.2-5.9c-1.4-1.6-2.2-3.4-2.2-5.3
		C19.7,4.5,23,1.2,27.1,1.2z M27.1,21.6l6.1-6.9c1.6-1.8,2.5-3.9,2.5-6.1c0-4.8-3.9-8.6-8.6-8.6c-4.8,0-8.6,3.9-8.6,8.6
		c0,2.1,0.9,4.2,2.5,6.1L27.1,21.6z"/>
	<path class="st0" d="M27.1,6.4c1.2,0,2.2,1,2.2,2.2c0,0.6-0.2,1.1-0.6,1.5s-1,0.6-1.5,0.6c-0.6,0-1.1-0.2-1.5-0.6s-0.6-1-0.6-1.5
		C25,7.4,25.9,6.4,27.1,6.4z M27.1,12c0.9,0,1.8-0.4,2.4-1s1-1.5,1-2.4c0-1.9-1.5-3.4-3.4-3.4s-3.4,1.5-3.4,3.4c0,0.9,0.4,1.8,1,2.4
		C25.4,11.6,26.2,12,27.1,12z"/>
</g>
</svg>
