<?xml version="1.0" encoding="utf-8"?>
<!-- Generator: Adobe Illustrator 25.3.1, SVG Export Plug-In . SVG Version: 6.00 Build 0)  -->
<svg version="1.1" id="Layer_1" xmlns="http://www.w3.org/2000/svg" xmlns:xlink="http://www.w3.org/1999/xlink" x="0px" y="0px"
	 viewBox="0 0 30.8 42" style="enable-background:new 0 0 30.8 42;" xml:space="preserve">
<style type="text/css">
	.st0{fill:#202F62;}
</style>
<g>
	<path class="st0" d="M7.7,1.1C5.1,1.1,3,3.2,3,5.8s2.1,4.7,4.7,4.7s4.7-2.1,4.7-4.7S10.3,1.1,7.7,1.1z M7.7,11.6
		C4.5,11.6,2,9,2,5.8S4.6,0,7.7,0c3.2,0,5.7,2.6,5.7,5.7C13.5,9,10.9,11.6,7.7,11.6z"/>
	<path class="st0" d="M20.4,17.1c-1.3,0-2.5,0.2-3.7,0.7c-0.2,0.1-0.4,0.2-0.6,0.3c-2.6,1.3-4.4,3.6-5,6.4c-0.2,0.7-0.2,1.4-0.2,2.1
		c0,0.8,0.1,1.5,0.3,2.3c1,4.3,4.8,7.2,9.2,7.2s8.2-3,9.2-7.2c0.2-0.7,0.3-1.5,0.3-2.3c0-0.7-0.1-1.4-0.2-2.1
		c-0.6-2.8-2.5-5.1-5-6.4c-0.2-0.1-0.4-0.2-0.6-0.3C22.9,17.3,21.7,17.1,20.4,17.1z M20.4,37c-4.8,0-9-3.3-10.1-8
		c-0.2-0.8-0.3-1.7-0.3-2.5s0.1-1.6,0.3-2.4c0.7-3,2.7-5.6,5.5-7c0.2-0.1,0.4-0.2,0.6-0.3c2.5-1.1,5.5-1.1,8,0
		c0.2,0.1,0.4,0.2,0.6,0.3c2.8,1.4,4.9,4,5.5,7.1c0.2,0.8,0.3,1.5,0.3,2.3s-0.1,1.7-0.3,2.5C29.4,33.8,25.2,37,20.4,37z"/>
	<path class="st0" d="M20.2,33.3c-0.7,0-1.1-0.5-1.1-1.2s0.5-1.2,1.1-1.2c0.7,0,1.1,0.5,1.1,1.2S20.9,33.3,20.2,33.3z"/>
	<path class="st0" d="M22,26.2c-0.9,1-1.2,1.9-1.1,2.9v0.5h-1.5v-0.5c-0.1-1,0.2-2.2,1.2-3.4c0.9-1,1.4-1.8,1.4-2.7
		c0-1-0.6-1.6-1.8-1.7c-0.7,0-1.5,0.2-2,0.6l-0.5-1.2c0.7-0.5,1.7-0.8,2.8-0.8c2.2,0,3.2,1.4,3.2,2.8C23.7,24.1,22.9,25.1,22,26.2z"
		/>
	<path class="st0" d="M12.5,34.8v6.1c0,0,0,0.1-0.1,0.1H3l-0.1-0.1V28.2L2.7,28c-0.8-0.8-1.6-1.8-1.6-2.1V14.7C1.1,14,2,13.2,4,13.2
		h7.1c2.3,0,3.1,1,3.1,1.5v2.4c0.3-0.2,0.7-0.5,1-0.7v-1.8c0-1.2-1.5-2.5-4.2-2.5H3.9C1,12.1,0,13.5,0,14.6v11.3
		c0,0.7,1.1,1.9,1.8,2.7v12.3c0,0.5,0.5,1.1,1,1.1h9.5c0.6,0,1-0.6,1-1.1v-5C13.2,35.5,12.8,35.2,12.5,34.8z"/>
</g>
</svg>
